<svg xmlns="http://www.w3.org/2000/svg" xmlns:xlink="http://www.w3.org/1999/xlink" contentStyleType="text/css" height="817px" preserveAspectRatio="none" style="width:1026px;height:817px;background:#FFFFFF;" version="1.1" viewBox="0 0 1026 817" width="1026px" zoomAndPan="magnify"><defs/><g><!--class BouwsteenController--><g id="elem_BouwsteenController"><rect codeLine="3" fill="#E0F9FF" height="90" id="BouwsteenController" rx="2.5" ry="2.5" style="stroke:#000000;stroke-width:2.0;" width="533.6182" x="7" y="144"/><ellipse cx="190.1646" cy="157" fill="#ADD1B2" rx="5" ry="5" style="stroke:#181818;stroke-width:1.0;"/><path d="M190.8872,159.832 Q190.6138,159.9727 190.313,160.043 Q190.0122,160.1133 189.6802,160.1133 Q188.5005,160.1133 187.8794,159.3359 Q187.2583,158.5586 187.2583,157.0898 Q187.2583,155.6172 187.8794,154.8398 Q188.5005,154.0625 189.6802,154.0625 Q190.0122,154.0625 190.3169,154.1328 Q190.6216,154.2031 190.8872,154.3438 L190.8872,155.625 Q190.5903,155.3516 190.311,155.2246 Q190.0317,155.0977 189.7349,155.0977 Q189.1021,155.0977 188.7798,155.5996 Q188.4575,156.1016 188.4575,157.0898 Q188.4575,158.0742 188.7798,158.5762 Q189.1021,159.0781 189.7349,159.0781 Q190.0317,159.0781 190.311,158.9512 Q190.5903,158.8242 190.8872,158.5508 Z " fill="#000000"/><text fill="#000000" font-family="Helvetica" font-size="16" font-weight="bold" lengthAdjust="spacing" textLength="161.7891" x="201.6646" y="161.3203">BouwsteenController</text><line style="stroke:#000000;stroke-width:2.0;" x1="8" x2="539.6182" y1="170" y2="170"/><ellipse cx="17" cy="182" fill="#84BE84" rx="2" ry="2" style="stroke:#038048;stroke-width:1.0;"/><text fill="#000000" font-family="Helvetica" font-size="14" lengthAdjust="spacing" textLength="500.418" x="21" y="184.7803">voegBouwsteenToe(request: BouwsteenRequest): ResponseEntity&lt;Bouwsteen&gt;</text><ellipse cx="17" cy="196" fill="#84BE84" rx="2" ry="2" style="stroke:#038048;stroke-width:1.0;"/><text fill="#000000" font-family="Helvetica" font-size="14" lengthAdjust="spacing" textLength="408.5566" x="21" y="198.7803">verwijderBouwsteen(bouwsteenId: String): ResponseEntity&lt;Void&gt;</text><ellipse cx="17" cy="210" fill="#84BE84" rx="2" ry="2" style="stroke:#038048;stroke-width:1.0;"/><text fill="#000000" font-family="Helvetica" font-size="14" lengthAdjust="spacing" textLength="438.9355" x="21" y="212.7803">haalBouwsteenOp(bouwsteenId: String): ResponseEntity&lt;Bouwsteen&gt;</text><ellipse cx="17" cy="224" fill="#84BE84" rx="2" ry="2" style="stroke:#038048;stroke-width:1.0;"/><text fill="#000000" font-family="Helvetica" font-size="14" lengthAdjust="spacing" textLength="513.6182" x="21" y="226.7803">haalAlleBouwstenenOpVoorTrip(tripId: String): ResponseEntity&lt;List&lt;Bouwsteen&gt;&gt;</text></g><!--class BouwsteenFactory--><g id="elem_BouwsteenFactory"><rect codeLine="10" fill="#E0F9FF" height="48" id="BouwsteenFactory" rx="2.5" ry="2.5" style="stroke:#000000;stroke-width:2.0;" width="469.791" x="38.91" y="323"/><ellipse cx="199.4852" cy="336" fill="#B4A7E5" rx="5" ry="5" style="stroke:#181818;stroke-width:1.0;"/><path d="M197.6571,334.1836 L197.6571,333.168 L201.1297,333.168 L201.1297,334.1836 L199.9696,334.1836 L199.9696,337.9844 L201.1297,337.9844 L201.1297,339 L197.6571,339 L197.6571,337.9844 L198.8172,337.9844 L198.8172,334.1836 Z " fill="#000000"/><text fill="#000000" font-family="Helvetica" font-size="16" font-style="italic" font-weight="bold" lengthAdjust="spacing" textLength="143.1406" x="210.9852" y="340.3203">BouwsteenFactory</text><line style="stroke:#000000;stroke-width:2.0;" x1="39.91" x2="507.701" y1="349" y2="349"/><ellipse cx="48.91" cy="361" fill="#84BE84" rx="2" ry="2" style="stroke:#038048;stroke-width:1.0;"/><text fill="#000000" font-family="Helvetica" font-size="14" lengthAdjust="spacing" textLength="449.791" x="52.91" y="363.7803">createBouwsteen(type: String, details: Map&lt;String, Object&gt;): Bouwsteen</text></g><!--class BouwsteenService--><g id="elem_BouwsteenService"><rect codeLine="14" fill="#E0F9FF" height="76" id="BouwsteenService" rx="2.5" ry="2.5" style="stroke:#000000;stroke-width:2.0;" width="469.791" x="549.91" y="309"/><ellipse cx="710.9149" cy="322" fill="#ADD1B2" rx="5" ry="5" style="stroke:#181818;stroke-width:1.0;"/><path d="M711.6375,324.832 Q711.3641,324.9727 711.0633,325.043 Q710.7625,325.1133 710.4305,325.1133 Q709.2508,325.1133 708.6297,324.3359 Q708.0086,323.5586 708.0086,322.0898 Q708.0086,320.6172 708.6297,319.8398 Q709.2508,319.0625 710.4305,319.0625 Q710.7625,319.0625 711.0672,319.1328 Q711.3719,319.2031 711.6375,319.3438 L711.6375,320.625 Q711.3407,320.3516 711.0614,320.2246 Q710.7821,320.0977 710.4852,320.0977 Q709.8524,320.0977 709.5301,320.5996 Q709.2079,321.1016 709.2079,322.0898 Q709.2079,323.0742 709.5301,323.5762 Q709.8524,324.0781 710.4852,324.0781 Q710.7821,324.0781 711.0614,323.9512 Q711.3407,323.8242 711.6375,323.5508 Z " fill="#000000"/><text fill="#000000" font-family="Helvetica" font-size="16" font-weight="bold" lengthAdjust="spacing" textLength="142.2813" x="722.4149" y="326.3203">BouwsteenService</text><line style="stroke:#000000;stroke-width:2.0;" x1="550.91" x2="1018.701" y1="335" y2="335"/><ellipse cx="559.91" cy="347" fill="#84BE84" rx="2" ry="2" style="stroke:#038048;stroke-width:1.0;"/><text fill="#000000" font-family="Helvetica" font-size="14" lengthAdjust="spacing" textLength="449.791" x="563.91" y="349.7803">createBouwsteen(type: String, details: Map&lt;String, Object&gt;): Bouwsteen</text><ellipse cx="559.91" cy="361" fill="#84BE84" rx="2" ry="2" style="stroke:#038048;stroke-width:1.0;"/><text fill="#000000" font-family="Helvetica" font-size="14" lengthAdjust="spacing" textLength="268.5156" x="563.91" y="363.7803">deleteBouwsteen(bouwsteenId: Long): void</text><ellipse cx="559.91" cy="375" fill="#84BE84" rx="2" ry="2" style="stroke:#038048;stroke-width:1.0;"/><text fill="#000000" font-family="Helvetica" font-size="14" lengthAdjust="spacing" textLength="389.9287" x="563.91" y="377.7803">getBouwsteenById(bouwsteenId: Long): Optional&lt;Bouwsteen&gt;</text></g><!--class BouwsteenRepository--><g id="elem_BouwsteenRepository"><rect codeLine="20" fill="#E0F9FF" height="76" id="BouwsteenRepository" rx="2.5" ry="2.5" style="stroke:#000000;stroke-width:2.0;" width="343.7705" x="612.92" y="460"/><ellipse cx="697.5982" cy="473" fill="#ADD1B2" rx="5" ry="5" style="stroke:#181818;stroke-width:1.0;"/><path d="M698.3209,475.832 Q698.0474,475.9727 697.7467,476.043 Q697.4459,476.1133 697.1138,476.1133 Q695.9342,476.1133 695.3131,475.3359 Q694.692,474.5586 694.692,473.0898 Q694.692,471.6172 695.3131,470.8398 Q695.9342,470.0625 697.1138,470.0625 Q697.4459,470.0625 697.7506,470.1328 Q698.0553,470.2031 698.3209,470.3438 L698.3209,471.625 Q698.024,471.3516 697.7447,471.2246 Q697.4654,471.0977 697.1685,471.0977 Q696.5357,471.0977 696.2135,471.5996 Q695.8912,472.1016 695.8912,473.0898 Q695.8912,474.0742 696.2135,474.5762 Q696.5357,475.0781 697.1685,475.0781 Q697.4654,475.0781 697.7447,474.9512 Q698.024,474.8242 698.3209,474.5508 Z " fill="#000000"/><text fill="#000000" font-family="Helvetica" font-size="16" font-weight="bold" lengthAdjust="spacing" textLength="168.9141" x="709.0982" y="477.3203">BouwsteenRepository</text><line style="stroke:#000000;stroke-width:2.0;" x1="613.92" x2="955.6905" y1="486" y2="486"/><ellipse cx="622.92" cy="498" fill="#84BE84" rx="2" ry="2" style="stroke:#038048;stroke-width:1.0;"/><text fill="#000000" font-family="Helvetica" font-size="14" lengthAdjust="spacing" textLength="217.123" x="626.92" y="500.7803">save(bouwsteen: Bouwsteen): void</text><ellipse cx="622.92" cy="512" fill="#84BE84" rx="2" ry="2" style="stroke:#038048;stroke-width:1.0;"/><text fill="#000000" font-family="Helvetica" font-size="14" lengthAdjust="spacing" textLength="199.2471" x="626.92" y="514.7803">delete(bouwsteenId: Long): void</text><ellipse cx="622.92" cy="526" fill="#84BE84" rx="2" ry="2" style="stroke:#038048;stroke-width:1.0;"/><text fill="#000000" font-family="Helvetica" font-size="14" lengthAdjust="spacing" textLength="323.7705" x="626.92" y="528.7803">findById(bouwsteenId: Long): Optional&lt;Bouwsteen&gt;</text></g><!--class TripService--><g id="elem_TripService"><rect codeLine="26" fill="#E0F9FF" height="76" id="TripService" rx="2.5" ry="2.5" style="stroke:#000000;stroke-width:2.0;" width="431.6533" x="575.98" y="151"/><ellipse cx="745.4785" cy="164" fill="#ADD1B2" rx="5" ry="5" style="stroke:#181818;stroke-width:1.0;"/><path d="M746.2012,166.832 Q745.9278,166.9727 745.627,167.043 Q745.3262,167.1133 744.9942,167.1133 Q743.8145,167.1133 743.1934,166.3359 Q742.5723,165.5586 742.5723,164.0898 Q742.5723,162.6172 743.1934,161.8398 Q743.8145,161.0625 744.9942,161.0625 Q745.3262,161.0625 745.6309,161.1328 Q745.9356,161.2031 746.2012,161.3438 L746.2012,162.625 Q745.9043,162.3516 745.625,162.2246 Q745.3457,162.0977 745.0488,162.0977 Q744.416,162.0977 744.0938,162.5996 Q743.7715,163.1016 743.7715,164.0898 Q743.7715,165.0742 744.0938,165.5762 Q744.416,166.0781 745.0488,166.0781 Q745.3457,166.0781 745.625,165.9512 Q745.9043,165.8242 746.2012,165.5508 Z " fill="#000000"/><text fill="#000000" font-family="Helvetica" font-size="16" font-weight="bold" lengthAdjust="spacing" textLength="87.1563" x="756.9785" y="168.3203">TripService</text><line style="stroke:#000000;stroke-width:2.0;" x1="576.98" x2="1006.6333" y1="177" y2="177"/><ellipse cx="585.98" cy="189" fill="#84BE84" rx="2" ry="2" style="stroke:#038048;stroke-width:1.0;"/><text fill="#000000" font-family="Helvetica" font-size="14" lengthAdjust="spacing" textLength="398.4531" x="589.98" y="191.7803">addBouwsteenToTrip(tripId: Long, bouwsteen: Bouwsteen): void</text><ellipse cx="585.98" cy="203" fill="#84BE84" rx="2" ry="2" style="stroke:#038048;stroke-width:1.0;"/><text fill="#000000" font-family="Helvetica" font-size="14" lengthAdjust="spacing" textLength="411.6533" x="589.98" y="205.7803">removeBouwsteenFromTrip(tripId: Long, bouwsteenId: Long): void</text><ellipse cx="585.98" cy="217" fill="#84BE84" rx="2" ry="2" style="stroke:#038048;stroke-width:1.0;"/><text fill="#000000" font-family="Helvetica" font-size="14" lengthAdjust="spacing" textLength="336.1846" x="589.98" y="219.7803">getBouwstenenForTrip(tripId: Long): List&lt;Bouwsteen&gt;</text></g><!--class ApiService--><g id="elem_ApiService"><rect codeLine="32" fill="#E0F9FF" height="62" id="ApiService" rx="2.5" ry="2.5" style="stroke:#000000;stroke-width:2.0;" width="395.8877" x="593.87" y="7"/><ellipse cx="747.7084" cy="20" fill="#ADD1B2" rx="5" ry="5" style="stroke:#181818;stroke-width:1.0;"/><path d="M748.431,22.832 Q748.1576,22.9727 747.8568,23.043 Q747.556,23.1133 747.224,23.1133 Q746.0443,23.1133 745.4232,22.3359 Q744.8021,21.5586 744.8021,20.0898 Q744.8021,18.6172 745.4232,17.8398 Q746.0443,17.0625 747.224,17.0625 Q747.556,17.0625 747.8607,17.1328 Q748.1654,17.2031 748.431,17.3438 L748.431,18.625 Q748.1342,18.3516 747.8549,18.2246 Q747.5756,18.0977 747.2787,18.0977 Q746.6459,18.0977 746.3236,18.5996 Q746.0013,19.1016 746.0013,20.0898 Q746.0013,21.0742 746.3236,21.5762 Q746.6459,22.0781 747.2787,22.0781 Q747.5756,22.0781 747.8549,21.9512 Q748.1342,21.8242 748.431,21.5508 Z " fill="#000000"/><text fill="#000000" font-family="Helvetica" font-size="16" font-weight="bold" lengthAdjust="spacing" textLength="82.7109" x="759.2084" y="24.3203">ApiService</text><line style="stroke:#000000;stroke-width:2.0;" x1="594.87" x2="988.7577" y1="33" y2="33"/><ellipse cx="603.87" cy="45" fill="#84BE84" rx="2" ry="2" style="stroke:#038048;stroke-width:1.0;"/><text fill="#000000" font-family="Helvetica" font-size="14" lengthAdjust="spacing" textLength="375.8877" x="607.87" y="47.7803">boekOvernachting(overnachting: Overnachting): BookingInfo</text><ellipse cx="603.87" cy="59" fill="#84BE84" rx="2" ry="2" style="stroke:#038048;stroke-width:1.0;"/><text fill="#000000" font-family="Helvetica" font-size="14" lengthAdjust="spacing" textLength="283.2266" x="607.87" y="61.7803">boekVervoer(vervoer: Vervoer): TransportInfo</text></g><!--class Bouwsteen--><g id="elem_Bouwsteen"><rect codeLine="37" fill="#E0F9FF" height="62" id="Bouwsteen" rx="2.5" ry="2.5" style="stroke:#000000;stroke-width:2.0;" width="132.8271" x="718.4" y="611"/><ellipse cx="739.7675" cy="624" fill="#B4A7E5" rx="5" ry="5" style="stroke:#181818;stroke-width:1.0;"/><path d="M737.9394,622.1836 L737.9394,621.168 L741.4121,621.168 L741.4121,622.1836 L740.2519,622.1836 L740.2519,625.9844 L741.4121,625.9844 L741.4121,627 L737.9394,627 L737.9394,625.9844 L739.0996,625.9844 L739.0996,622.1836 Z " fill="#000000"/><text fill="#000000" font-family="Helvetica" font-size="16" font-style="italic" font-weight="bold" lengthAdjust="spacing" textLength="85.3438" x="750.5159" y="628.3203">Bouwsteen</text><line style="stroke:#000000;stroke-width:2.0;" x1="719.4" x2="850.2271" y1="637" y2="637"/><ellipse cx="728.4" cy="649" fill="#84BE84" rx="2" ry="2" style="stroke:#038048;stroke-width:1.0;"/><text fill="#000000" font-family="Helvetica" font-size="14" lengthAdjust="spacing" textLength="104.2617" x="732.4" y="651.7803">getType(): String</text><ellipse cx="728.4" cy="663" fill="#84BE84" rx="2" ry="2" style="stroke:#038048;stroke-width:1.0;"/><text fill="#000000" font-family="Helvetica" font-size="14" lengthAdjust="spacing" textLength="112.8271" x="732.4" y="665.7803">toonDetails(): void</text></g><!--class Overnachting--><g id="elem_Overnachting"><rect codeLine="42" fill="#E0F9FF" height="62" id="Overnachting" rx="2.5" ry="2.5" style="stroke:#000000;stroke-width:2.0;" width="132.8271" x="634.4" y="748"/><ellipse cx="647.7625" cy="761" fill="#ADD1B2" rx="5" ry="5" style="stroke:#181818;stroke-width:1.0;"/><path d="M648.4851,763.832 Q648.2117,763.9727 647.9109,764.043 Q647.6101,764.1133 647.2781,764.1133 Q646.0984,764.1133 645.4773,763.3359 Q644.8562,762.5586 644.8562,761.0898 Q644.8562,759.6172 645.4773,758.8398 Q646.0984,758.0625 647.2781,758.0625 Q647.6101,758.0625 647.9148,758.1328 Q648.2195,758.2031 648.4851,758.3438 L648.4851,759.625 Q648.1882,759.3516 647.9089,759.2246 Q647.6296,759.0977 647.3328,759.0977 Q646.7,759.0977 646.3777,759.5996 Q646.0554,760.1016 646.0554,761.0898 Q646.0554,762.0742 646.3777,762.5762 Q646.7,763.0781 647.3328,763.0781 Q647.6296,763.0781 647.9089,762.9512 Q648.1882,762.8242 648.4851,762.5508 Z " fill="#000000"/><text fill="#000000" font-family="Helvetica" font-size="16" font-weight="bold" lengthAdjust="spacing" textLength="103.1328" x="656.7319" y="765.3203">Overnachting</text><line style="stroke:#000000;stroke-width:2.0;" x1="635.4" x2="766.2271" y1="774" y2="774"/><ellipse cx="644.4" cy="786" fill="#84BE84" rx="2" ry="2" style="stroke:#038048;stroke-width:1.0;"/><text fill="#000000" font-family="Helvetica" font-size="14" lengthAdjust="spacing" textLength="104.2617" x="648.4" y="788.7803">getType(): String</text><ellipse cx="644.4" cy="800" fill="#84BE84" rx="2" ry="2" style="stroke:#038048;stroke-width:1.0;"/><text fill="#000000" font-family="Helvetica" font-size="14" lengthAdjust="spacing" textLength="112.8271" x="648.4" y="802.7803">toonDetails(): void</text></g><!--class Vervoer--><g id="elem_Vervoer"><rect codeLine="47" fill="#E0F9FF" height="62" id="Vervoer" rx="2.5" ry="2.5" style="stroke:#000000;stroke-width:2.0;" width="132.8271" x="802.4" y="748"/><ellipse cx="836.2667" cy="761" fill="#ADD1B2" rx="5" ry="5" style="stroke:#181818;stroke-width:1.0;"/><path d="M836.9894,763.832 Q836.7159,763.9727 836.4151,764.043 Q836.1144,764.1133 835.7823,764.1133 Q834.6026,764.1133 833.9815,763.3359 Q833.3604,762.5586 833.3604,761.0898 Q833.3604,759.6172 833.9815,758.8398 Q834.6026,758.0625 835.7823,758.0625 Q836.1144,758.0625 836.419,758.1328 Q836.7237,758.2031 836.9894,758.3438 L836.9894,759.625 Q836.6925,759.3516 836.4132,759.2246 Q836.1339,759.0977 835.837,759.0977 Q835.2042,759.0977 834.8819,759.5996 Q834.5597,760.1016 834.5597,761.0898 Q834.5597,762.0742 834.8819,762.5762 Q835.2042,763.0781 835.837,763.0781 Q836.1339,763.0781 836.4132,762.9512 Q836.6925,762.8242 836.9894,762.5508 Z " fill="#000000"/><text fill="#000000" font-family="Helvetica" font-size="16" font-weight="bold" lengthAdjust="spacing" textLength="59.5938" x="847.7667" y="765.3203">Vervoer</text><line style="stroke:#000000;stroke-width:2.0;" x1="803.4" x2="934.2271" y1="774" y2="774"/><ellipse cx="812.4" cy="786" fill="#84BE84" rx="2" ry="2" style="stroke:#038048;stroke-width:1.0;"/><text fill="#000000" font-family="Helvetica" font-size="14" lengthAdjust="spacing" textLength="104.2617" x="816.4" y="788.7803">getType(): String</text><ellipse cx="812.4" cy="800" fill="#84BE84" rx="2" ry="2" style="stroke:#038048;stroke-width:1.0;"/><text fill="#000000" font-family="Helvetica" font-size="14" lengthAdjust="spacing" textLength="112.8271" x="816.4" y="802.7803">toonDetails(): void</text></g><!--reverse link Bouwsteen to Overnachting--><g id="link_Bouwsteen_Overnachting"><path codeLine="52" d="M756.4466,688.5806 C742.6066,710.8106 733.42,725.59 719.6,747.8 " fill="none" id="Bouwsteen-backto-Overnachting" style="stroke:#000000;stroke-width:1.1;"/><polygon fill="none" points="765.96,673.3,751.3531,685.4094,761.5401,691.7517,765.96,673.3" style="stroke:#000000;stroke-width:1.1;"/><text fill="#000000" font-family="Helvetica" font-size="13" lengthAdjust="spacing" textLength="66.4663" x="746.33" y="714.0103">implements</text></g><!--reverse link Bouwsteen to Vervoer--><g id="link_Bouwsteen_Vervoer"><path codeLine="53" d="M813.1684,688.5836 C826.9984,710.8136 836.2,725.59 850.02,747.8 " fill="none" id="Bouwsteen-backto-Vervoer" style="stroke:#000000;stroke-width:1.1;"/><polygon fill="none" points="803.66,673.3,808.0739,691.7531,818.263,685.4142,803.66,673.3" style="stroke:#000000;stroke-width:1.1;"/><text fill="#000000" font-family="Helvetica" font-size="13" lengthAdjust="spacing" textLength="66.4663" x="830.33" y="714.0103">implements</text></g><!--link BouwsteenController to BouwsteenFactory--><g id="link_BouwsteenController_BouwsteenFactory"><path codeLine="55" d="M273.81,234.29 C273.81,263.11 273.81,293.54 273.81,316.81 " fill="none" id="BouwsteenController-to-BouwsteenFactory" style="stroke:#000000;stroke-width:1.1;stroke-dasharray:7.0,7.0;"/><polygon fill="#000000" points="273.81,322.81,277.81,313.81,273.81,317.81,269.81,313.81,273.81,322.81" style="stroke:#000000;stroke-width:1.1;"/><text fill="#000000" font-family="Helvetica" font-size="13" lengthAdjust="spacing" textLength="27.46" x="274.81" y="275.0103">uses</text></g><!--link BouwsteenController to BouwsteenService--><g id="link_BouwsteenController_BouwsteenService"><path codeLine="56" d="M419.56,234.49 C496.26,257.91 583.5114,284.5481 656.4614,306.8181 " fill="none" id="BouwsteenController-to-BouwsteenService" style="stroke:#000000;stroke-width:1.1;stroke-dasharray:7.0,7.0;"/><polygon fill="#000000" points="662.2,308.57,654.7601,302.1165,657.4179,307.1101,652.4243,309.7679,662.2,308.57" style="stroke:#000000;stroke-width:1.1;"/><text fill="#000000" font-family="Helvetica" font-size="13" lengthAdjust="spacing" textLength="56.3799" x="560.9" y="275.0103">delegates</text></g><!--link BouwsteenService to BouwsteenRepository--><g id="link_BouwsteenService_BouwsteenRepository"><path codeLine="57" d="M784.81,385.21 C784.81,407.97 784.81,430.98 784.81,453.74 " fill="none" id="BouwsteenService-to-BouwsteenRepository" style="stroke:#000000;stroke-width:1.1;stroke-dasharray:7.0,7.0;"/><polygon fill="#000000" points="784.81,459.74,788.81,450.74,784.81,454.74,780.81,450.74,784.81,459.74" style="stroke:#000000;stroke-width:1.1;"/><text fill="#000000" font-family="Helvetica" font-size="13" lengthAdjust="spacing" textLength="27.46" x="785.81" y="426.0103">uses</text></g><!--link BouwsteenRepository to Bouwsteen--><g id="link_BouwsteenRepository_Bouwsteen"><path codeLine="58" d="M784.81,536.31 C784.81,559.48 784.81,582.89 784.81,604.63 " fill="none" id="BouwsteenRepository-to-Bouwsteen" style="stroke:#000000;stroke-width:1.1;stroke-dasharray:7.0,7.0;"/><polygon fill="#000000" points="784.81,610.63,788.81,601.63,784.81,605.63,780.81,601.63,784.81,610.63" style="stroke:#000000;stroke-width:1.1;"/><text fill="#000000" font-family="Helvetica" font-size="13" lengthAdjust="spacing" textLength="45.5381" x="785.81" y="577.0103">handles</text></g><!--link TripService to BouwsteenService--><g id="link_TripService_BouwsteenService"><path codeLine="59" d="M790.13,227.37 C789.03,251.97 787.8605,278.0761 786.7505,302.6761 " fill="none" id="TripService-to-BouwsteenService" style="stroke:#000000;stroke-width:1.1;stroke-dasharray:7.0,7.0;"/><polygon fill="#000000" points="786.48,308.67,790.8816,299.8595,786.7054,303.6751,782.8898,299.4988,786.48,308.67" style="stroke:#000000;stroke-width:1.1;"/><text fill="#000000" font-family="Helvetica" font-size="13" lengthAdjust="spacing" textLength="27.46" x="789.31" y="275.0103">uses</text></g><!--link ApiService to TripService--><g id="link_ApiService_TripService"><path codeLine="60" d="M791.81,69.15 C791.81,92.71 791.81,119.56 791.81,144.76 " fill="none" id="ApiService-to-TripService" style="stroke:#000000;stroke-width:1.1;stroke-dasharray:7.0,7.0;"/><polygon fill="#000000" points="791.81,150.76,795.81,141.76,791.81,145.76,787.81,141.76,791.81,150.76" style="stroke:#000000;stroke-width:1.1;"/><text fill="#000000" font-family="Helvetica" font-size="13" lengthAdjust="spacing" textLength="49.1309" x="792.81" y="110.0103">interacts</text></g><!--SRC=[hLN1Zjem4BtdAznRK1ToZn3IxhP8I5iXiMZl9Xd0kuxjsfCWrFRVEo4nSG9TgcsvaDXlthmPlt4-2PN9CWUsHpGkJHBB3vETm7svAHtOJ2i4XPDC5qbc-HR7cSx19aPoXMKXnmwF4bnISA4I_rmZLBCpyS0eoYHtZZteyk0GG3qIizLIWcK_8aQ_pvM6tNbxhI6syBq4XsaNj6fMHYbRWJDQEVYgKE1nUaRCMYwm1_5AEiuRySO_BVAKFQCLQdV9yw95tbBiEPVdwANvk_YXZfhadefirrNDzAArNLjXOk8mxv4z2OS1uopw5KM2piDkUGPTK-OyGssFlesP1OxGrOr70px77Si1kP0kPT-ucVh5vUOLCfoDWaxNkGOdzWos4fJu_-OvSUKW8UJgzVf9dvfJqT4qw1tW6VfmNEHNuKk3GYikmoEvh6a5HZiHji_n2Zh2G6bFGYFuXiwjKFd7zDNs6BIRvtam73t_r8ntxAPc2uMkkYRFhIxUexdHUhBoVE3Z5ZsmRLVLlH63eZOQtfOqgufdUoIBn3fueHu5RoVJw3TwMgYjxi9VY563ZQlcFsNj0k7NbYiQA8kdYEl3uvLGOMioS3po5cwMKMlrfR5ox1jnhYUKzoyyhUAFKNILJ7-EntrDAHE5aL3G3Uw6G9-qXuckNS-JoUpoiaaPVHxSRRm_y9JL8xEZ6oC8yfkzY60aXqc2hLu80VTSvVJnYSB9-OEG4sVWnHeMXb57QfzGeIxw3G00]--></g></svg>