<svg xmlns="http://www.w3.org/2000/svg" xmlns:xlink="http://www.w3.org/1999/xlink" contentStyleType="text/css" height="688px" preserveAspectRatio="none" style="width:1209px;height:688px;background:#FFFFFF;" version="1.1" viewBox="0 0 1209 688" width="1209px" zoomAndPan="magnify"><defs/><g><!--class BouwsteenFactory--><g id="elem_BouwsteenFactory"><rect codeLine="3" fill="#E0F9FF" height="48" id="BouwsteenFactory" rx="2.5" ry="2.5" style="stroke:#000000;stroke-width:2.0;" width="391.1982" x="433" y="323"/><ellipse cx="554.2788" cy="336" fill="#B4A7E5" rx="5" ry="5" style="stroke:#181818;stroke-width:1.0;"/><path d="M552.4507,334.1836 L552.4507,333.168 L555.9233,333.168 L555.9233,334.1836 L554.7632,334.1836 L554.7632,337.9844 L555.9233,337.9844 L555.9233,339 L552.4507,339 L552.4507,337.9844 L553.6108,337.9844 L553.6108,334.1836 Z " fill="#000000"/><text fill="#000000" font-family="Helvetica" font-size="16" font-style="italic" font-weight="bold" lengthAdjust="spacing" textLength="143.1406" x="565.7788" y="340.3203">BouwsteenFactory</text><line style="stroke:#000000;stroke-width:2.0;" x1="434" x2="823.1982" y1="349" y2="349"/><ellipse cx="443" cy="361" fill="#84BE84" rx="2" ry="2" style="stroke:#038048;stroke-width:1.0;"/><text fill="#000000" font-family="Helvetica" font-size="14" lengthAdjust="spacing" textLength="371.1982" x="447" y="363.7803">createBouwsteen(details: Map&lt;String, Object&gt;): Bouwsteen</text></g><!--class OvernachtingFactory--><g id="elem_OvernachtingFactory"><rect codeLine="7" fill="#E0F9FF" height="48" id="OvernachtingFactory" rx="2.5" ry="2.5" style="stroke:#000000;stroke-width:2.0;" width="391.1982" x="7" y="467"/><ellipse cx="119.3843" cy="480" fill="#ADD1B2" rx="5" ry="5" style="stroke:#181818;stroke-width:1.0;"/><path d="M120.1069,482.832 Q119.8335,482.9727 119.5327,483.043 Q119.2319,483.1133 118.8999,483.1133 Q117.7202,483.1133 117.0991,482.3359 Q116.478,481.5586 116.478,480.0898 Q116.478,478.6172 117.0991,477.8398 Q117.7202,477.0625 118.8999,477.0625 Q119.2319,477.0625 119.5366,477.1328 Q119.8413,477.2031 120.1069,477.3438 L120.1069,478.625 Q119.8101,478.3516 119.5308,478.2246 Q119.2515,478.0977 118.9546,478.0977 Q118.3218,478.0977 117.9995,478.5996 Q117.6772,479.1016 117.6772,480.0898 Q117.6772,481.0742 117.9995,481.5762 Q118.3218,482.0781 118.9546,482.0781 Q119.2515,482.0781 119.5308,481.9512 Q119.8101,481.8242 120.1069,481.5508 Z " fill="#000000"/><text fill="#000000" font-family="Helvetica" font-size="16" font-weight="bold" lengthAdjust="spacing" textLength="160.9297" x="130.8843" y="484.3203">OvernachtingFactory</text><line style="stroke:#000000;stroke-width:2.0;" x1="8" x2="397.1982" y1="493" y2="493"/><ellipse cx="17" cy="505" fill="#84BE84" rx="2" ry="2" style="stroke:#038048;stroke-width:1.0;"/><text fill="#000000" font-family="Helvetica" font-size="14" lengthAdjust="spacing" textLength="371.1982" x="21" y="507.7803">createBouwsteen(details: Map&lt;String, Object&gt;): Bouwsteen</text></g><!--class VervoerFactory--><g id="elem_VervoerFactory"><rect codeLine="11" fill="#E0F9FF" height="48" id="VervoerFactory" rx="2.5" ry="2.5" style="stroke:#000000;stroke-width:2.0;" width="391.1982" x="433" y="467"/><ellipse cx="567.1538" cy="480" fill="#ADD1B2" rx="5" ry="5" style="stroke:#181818;stroke-width:1.0;"/><path d="M567.8765,482.832 Q567.603,482.9727 567.3022,483.043 Q567.0015,483.1133 566.6694,483.1133 Q565.4897,483.1133 564.8687,482.3359 Q564.2476,481.5586 564.2476,480.0898 Q564.2476,478.6172 564.8687,477.8398 Q565.4897,477.0625 566.6694,477.0625 Q567.0015,477.0625 567.3062,477.1328 Q567.6108,477.2031 567.8765,477.3438 L567.8765,478.625 Q567.5796,478.3516 567.3003,478.2246 Q567.021,478.0977 566.7241,478.0977 Q566.0913,478.0977 565.769,478.5996 Q565.4468,479.1016 565.4468,480.0898 Q565.4468,481.0742 565.769,481.5762 Q566.0913,482.0781 566.7241,482.0781 Q567.021,482.0781 567.3003,481.9512 Q567.5796,481.8242 567.8765,481.5508 Z " fill="#000000"/><text fill="#000000" font-family="Helvetica" font-size="16" font-weight="bold" lengthAdjust="spacing" textLength="117.3906" x="578.6538" y="484.3203">VervoerFactory</text><line style="stroke:#000000;stroke-width:2.0;" x1="434" x2="823.1982" y1="493" y2="493"/><ellipse cx="443" cy="505" fill="#84BE84" rx="2" ry="2" style="stroke:#038048;stroke-width:1.0;"/><text fill="#000000" font-family="Helvetica" font-size="14" lengthAdjust="spacing" textLength="371.1982" x="447" y="507.7803">createBouwsteen(details: Map&lt;String, Object&gt;): Bouwsteen</text></g><!--class BouwsteenController--><g id="elem_BouwsteenController"><rect codeLine="15" fill="#E0F9FF" height="76" id="BouwsteenController" rx="2.5" ry="2.5" style="stroke:#000000;stroke-width:2.0;" width="520.418" x="569.39" y="7"/><ellipse cx="745.9545" cy="20" fill="#ADD1B2" rx="5" ry="5" style="stroke:#181818;stroke-width:1.0;"/><path d="M746.6771,22.832 Q746.4037,22.9727 746.1029,23.043 Q745.8021,23.1133 745.4701,23.1133 Q744.2904,23.1133 743.6693,22.3359 Q743.0482,21.5586 743.0482,20.0898 Q743.0482,18.6172 743.6693,17.8398 Q744.2904,17.0625 745.4701,17.0625 Q745.8021,17.0625 746.1068,17.1328 Q746.4115,17.2031 746.6771,17.3438 L746.6771,18.625 Q746.3802,18.3516 746.1009,18.2246 Q745.8216,18.0977 745.5248,18.0977 Q744.892,18.0977 744.5697,18.5996 Q744.2474,19.1016 744.2474,20.0898 Q744.2474,21.0742 744.5697,21.5762 Q744.892,22.0781 745.5248,22.0781 Q745.8216,22.0781 746.1009,21.9512 Q746.3802,21.8242 746.6771,21.5508 Z " fill="#000000"/><text fill="#000000" font-family="Helvetica" font-size="16" font-weight="bold" lengthAdjust="spacing" textLength="161.7891" x="757.4545" y="24.3203">BouwsteenController</text><line style="stroke:#000000;stroke-width:2.0;" x1="570.39" x2="1088.808" y1="33" y2="33"/><ellipse cx="579.39" cy="45" fill="#84BE84" rx="2" ry="2" style="stroke:#038048;stroke-width:1.0;"/><text fill="#000000" font-family="Helvetica" font-size="14" lengthAdjust="spacing" textLength="500.418" x="583.39" y="47.7803">voegBouwsteenToe(request: BouwsteenRequest): ResponseEntity&lt;Bouwsteen&gt;</text><ellipse cx="579.39" cy="59" fill="#84BE84" rx="2" ry="2" style="stroke:#038048;stroke-width:1.0;"/><text fill="#000000" font-family="Helvetica" font-size="14" lengthAdjust="spacing" textLength="408.5566" x="583.39" y="61.7803">verwijderBouwsteen(bouwsteenId: String): ResponseEntity&lt;Void&gt;</text><ellipse cx="579.39" cy="73" fill="#84BE84" rx="2" ry="2" style="stroke:#038048;stroke-width:1.0;"/><text fill="#000000" font-family="Helvetica" font-size="14" lengthAdjust="spacing" textLength="438.9355" x="583.39" y="75.7803">haalBouwsteenOp(bouwsteenId: String): ResponseEntity&lt;Bouwsteen&gt;</text></g><!--class BouwsteenService--><g id="elem_BouwsteenService"><rect codeLine="21" fill="#E0F9FF" height="76" id="BouwsteenService" rx="2.5" ry="2.5" style="stroke:#000000;stroke-width:2.0;" width="564.7148" x="547.24" y="158"/><ellipse cx="755.7068" cy="171" fill="#ADD1B2" rx="5" ry="5" style="stroke:#181818;stroke-width:1.0;"/><path d="M756.4295,173.832 Q756.156,173.9727 755.8552,174.043 Q755.5545,174.1133 755.2224,174.1133 Q754.0427,174.1133 753.4216,173.3359 Q752.8005,172.5586 752.8005,171.0898 Q752.8005,169.6172 753.4216,168.8398 Q754.0427,168.0625 755.2224,168.0625 Q755.5545,168.0625 755.8591,168.1328 Q756.1638,168.2031 756.4295,168.3438 L756.4295,169.625 Q756.1326,169.3516 755.8533,169.2246 Q755.574,169.0977 755.2771,169.0977 Q754.6443,169.0977 754.322,169.5996 Q753.9998,170.1016 753.9998,171.0898 Q753.9998,172.0742 754.322,172.5762 Q754.6443,173.0781 755.2771,173.0781 Q755.574,173.0781 755.8533,172.9512 Q756.1326,172.8242 756.4295,172.5508 Z " fill="#000000"/><text fill="#000000" font-family="Helvetica" font-size="16" font-weight="bold" lengthAdjust="spacing" textLength="142.2813" x="767.2068" y="175.3203">BouwsteenService</text><line style="stroke:#000000;stroke-width:2.0;" x1="548.24" x2="1110.9548" y1="184" y2="184"/><ellipse cx="557.24" cy="196" fill="#84BE84" rx="2" ry="2" style="stroke:#038048;stroke-width:1.0;"/><text fill="#000000" font-family="Helvetica" font-size="14" lengthAdjust="spacing" textLength="544.7148" x="561.24" y="198.7803">createBouwsteen(factory: BouwsteenFactory, details: Map&lt;String, Object&gt;): Bouwsteen</text><ellipse cx="557.24" cy="210" fill="#84BE84" rx="2" ry="2" style="stroke:#038048;stroke-width:1.0;"/><text fill="#000000" font-family="Helvetica" font-size="14" lengthAdjust="spacing" textLength="268.5156" x="561.24" y="212.7803">deleteBouwsteen(bouwsteenId: Long): void</text><ellipse cx="557.24" cy="224" fill="#84BE84" rx="2" ry="2" style="stroke:#038048;stroke-width:1.0;"/><text fill="#000000" font-family="Helvetica" font-size="14" lengthAdjust="spacing" textLength="389.9287" x="561.24" y="226.7803">getBouwsteenById(bouwsteenId: Long): Optional&lt;Bouwsteen&gt;</text></g><!--class BouwsteenRepository--><g id="elem_BouwsteenRepository"><rect codeLine="27" fill="#E0F9FF" height="76" id="BouwsteenRepository" rx="2.5" ry="2.5" style="stroke:#000000;stroke-width:2.0;" width="343.7705" x="858.71" y="309"/><ellipse cx="943.3882" cy="322" fill="#ADD1B2" rx="5" ry="5" style="stroke:#181818;stroke-width:1.0;"/><path d="M944.1109,324.832 Q943.8374,324.9727 943.5367,325.043 Q943.2359,325.1133 942.9038,325.1133 Q941.7242,325.1133 941.1031,324.3359 Q940.482,323.5586 940.482,322.0898 Q940.482,320.6172 941.1031,319.8398 Q941.7242,319.0625 942.9038,319.0625 Q943.2359,319.0625 943.5406,319.1328 Q943.8453,319.2031 944.1109,319.3438 L944.1109,320.625 Q943.814,320.3516 943.5347,320.2246 Q943.2554,320.0977 942.9585,320.0977 Q942.3257,320.0977 942.0035,320.5996 Q941.6812,321.1016 941.6812,322.0898 Q941.6812,323.0742 942.0035,323.5762 Q942.3257,324.0781 942.9585,324.0781 Q943.2554,324.0781 943.5347,323.9512 Q943.814,323.8242 944.1109,323.5508 Z " fill="#000000"/><text fill="#000000" font-family="Helvetica" font-size="16" font-weight="bold" lengthAdjust="spacing" textLength="168.9141" x="954.8882" y="326.3203">BouwsteenRepository</text><line style="stroke:#000000;stroke-width:2.0;" x1="859.71" x2="1201.4805" y1="335" y2="335"/><ellipse cx="868.71" cy="347" fill="#84BE84" rx="2" ry="2" style="stroke:#038048;stroke-width:1.0;"/><text fill="#000000" font-family="Helvetica" font-size="14" lengthAdjust="spacing" textLength="217.123" x="872.71" y="349.7803">save(bouwsteen: Bouwsteen): void</text><ellipse cx="868.71" cy="361" fill="#84BE84" rx="2" ry="2" style="stroke:#038048;stroke-width:1.0;"/><text fill="#000000" font-family="Helvetica" font-size="14" lengthAdjust="spacing" textLength="199.2471" x="872.71" y="363.7803">delete(bouwsteenId: Long): void</text><ellipse cx="868.71" cy="375" fill="#84BE84" rx="2" ry="2" style="stroke:#038048;stroke-width:1.0;"/><text fill="#000000" font-family="Helvetica" font-size="14" lengthAdjust="spacing" textLength="323.7705" x="872.71" y="377.7803">findById(bouwsteenId: Long): Optional&lt;Bouwsteen&gt;</text></g><!--class Bouwsteen--><g id="elem_Bouwsteen"><rect codeLine="33" fill="#E0F9FF" height="62" id="Bouwsteen" rx="2.5" ry="2.5" style="stroke:#000000;stroke-width:2.0;" width="135.9307" x="859.63" y="460"/><ellipse cx="882.3941" cy="473" fill="#B4A7E5" rx="5" ry="5" style="stroke:#181818;stroke-width:1.0;"/><path d="M880.566,471.1836 L880.566,470.168 L884.0386,470.168 L884.0386,471.1836 L882.8785,471.1836 L882.8785,474.9844 L884.0386,474.9844 L884.0386,476 L880.566,476 L880.566,474.9844 L881.7261,474.9844 L881.7261,471.1836 Z " fill="#000000"/><text fill="#000000" font-family="Helvetica" font-size="16" font-style="italic" font-weight="bold" lengthAdjust="spacing" textLength="85.3438" x="893.4528" y="477.3203">Bouwsteen</text><line style="stroke:#000000;stroke-width:2.0;" x1="860.63" x2="994.5607" y1="486" y2="486"/><ellipse cx="869.63" cy="498" fill="#84BE84" rx="2" ry="2" style="stroke:#038048;stroke-width:1.0;"/><text fill="#000000" font-family="Helvetica" font-size="14" lengthAdjust="spacing" textLength="104.2617" x="873.63" y="500.7803">getType(): String</text><ellipse cx="869.63" cy="512" fill="#84BE84" rx="2" ry="2" style="stroke:#038048;stroke-width:1.0;"/><text fill="#000000" font-family="Helvetica" font-size="14" lengthAdjust="spacing" textLength="115.9307" x="873.63" y="514.7803">getDetails(): String</text></g><!--class Overnachting--><g id="elem_Overnachting"><rect codeLine="38" fill="#E0F9FF" height="84" id="Overnachting" rx="2.5" ry="2.5" style="stroke:#000000;stroke-width:2.0;" width="196.6475" x="713.28" y="597"/><ellipse cx="757.2873" cy="610" fill="#ADD1B2" rx="5" ry="5" style="stroke:#181818;stroke-width:1.0;"/><path d="M758.01,612.832 Q757.7365,612.9727 757.4358,613.043 Q757.135,613.1133 756.8029,613.1133 Q755.6233,613.1133 755.0022,612.3359 Q754.3811,611.5586 754.3811,610.0898 Q754.3811,608.6172 755.0022,607.8398 Q755.6233,607.0625 756.8029,607.0625 Q757.135,607.0625 757.4397,607.1328 Q757.7444,607.2031 758.01,607.3438 L758.01,608.625 Q757.7131,608.3516 757.4338,608.2246 Q757.1545,608.0977 756.8576,608.0977 Q756.2248,608.0977 755.9026,608.5996 Q755.5803,609.1016 755.5803,610.0898 Q755.5803,611.0742 755.9026,611.5762 Q756.2248,612.0781 756.8576,612.0781 Q757.1545,612.0781 757.4338,611.9512 Q757.7131,611.8242 758.01,611.5508 Z " fill="#000000"/><text fill="#000000" font-family="Helvetica" font-size="16" font-weight="bold" lengthAdjust="spacing" textLength="103.1328" x="768.7873" y="614.3203">Overnachting</text><line style="stroke:#000000;stroke-width:2.0;" x1="714.28" x2="908.9275" y1="623" y2="623"/><rect fill="none" height="4" style="stroke:#C82930;stroke-width:1.0;" width="4" x="721.28" y="633"/><text fill="#000000" font-family="Helvetica" font-size="14" lengthAdjust="spacing" textLength="176.6475" x="727.28" y="637.7803">details: Map&lt;String, Object&gt;</text><line style="stroke:#000000;stroke-width:2.0;" x1="714.28" x2="908.9275" y1="645" y2="645"/><ellipse cx="723.28" cy="657" fill="#84BE84" rx="2" ry="2" style="stroke:#038048;stroke-width:1.0;"/><text fill="#000000" font-family="Helvetica" font-size="14" lengthAdjust="spacing" textLength="104.2617" x="727.28" y="659.7803">getType(): String</text><ellipse cx="723.28" cy="671" fill="#84BE84" rx="2" ry="2" style="stroke:#038048;stroke-width:1.0;"/><text fill="#000000" font-family="Helvetica" font-size="14" lengthAdjust="spacing" textLength="115.9307" x="727.28" y="673.7803">getDetails(): String</text></g><!--class Vervoer--><g id="elem_Vervoer"><rect codeLine="44" fill="#E0F9FF" height="84" id="Vervoer" rx="2.5" ry="2.5" style="stroke:#000000;stroke-width:2.0;" width="196.6475" x="945.28" y="597"/><ellipse cx="1011.0569" cy="610" fill="#ADD1B2" rx="5" ry="5" style="stroke:#181818;stroke-width:1.0;"/><path d="M1011.7795,612.832 Q1011.5061,612.9727 1011.2053,613.043 Q1010.9045,613.1133 1010.5725,613.1133 Q1009.3928,613.1133 1008.7717,612.3359 Q1008.1506,611.5586 1008.1506,610.0898 Q1008.1506,608.6172 1008.7717,607.8398 Q1009.3928,607.0625 1010.5725,607.0625 Q1010.9045,607.0625 1011.2092,607.1328 Q1011.5139,607.2031 1011.7795,607.3438 L1011.7795,608.625 Q1011.4826,608.3516 1011.2033,608.2246 Q1010.924,608.0977 1010.6272,608.0977 Q1009.9944,608.0977 1009.6721,608.5996 Q1009.3498,609.1016 1009.3498,610.0898 Q1009.3498,611.0742 1009.6721,611.5762 Q1009.9944,612.0781 1010.6272,612.0781 Q1010.924,612.0781 1011.2033,611.9512 Q1011.4826,611.8242 1011.7795,611.5508 Z " fill="#000000"/><text fill="#000000" font-family="Helvetica" font-size="16" font-weight="bold" lengthAdjust="spacing" textLength="59.5938" x="1022.5569" y="614.3203">Vervoer</text><line style="stroke:#000000;stroke-width:2.0;" x1="946.28" x2="1140.9275" y1="623" y2="623"/><rect fill="none" height="4" style="stroke:#C82930;stroke-width:1.0;" width="4" x="953.28" y="633"/><text fill="#000000" font-family="Helvetica" font-size="14" lengthAdjust="spacing" textLength="176.6475" x="959.28" y="637.7803">details: Map&lt;String, Object&gt;</text><line style="stroke:#000000;stroke-width:2.0;" x1="946.28" x2="1140.9275" y1="645" y2="645"/><ellipse cx="955.28" cy="657" fill="#84BE84" rx="2" ry="2" style="stroke:#038048;stroke-width:1.0;"/><text fill="#000000" font-family="Helvetica" font-size="14" lengthAdjust="spacing" textLength="104.2617" x="959.28" y="659.7803">getType(): String</text><ellipse cx="955.28" cy="671" fill="#84BE84" rx="2" ry="2" style="stroke:#038048;stroke-width:1.0;"/><text fill="#000000" font-family="Helvetica" font-size="14" lengthAdjust="spacing" textLength="115.9307" x="959.28" y="673.7803">getDetails(): String</text></g><!--reverse link Bouwsteen to Overnachting--><g id="link_Bouwsteen_Overnachting"><path codeLine="50" d="M892.3634,536.3438 C875.2434,557.8938 863.22,573.02 844.4,596.71 " fill="none" id="Bouwsteen-backto-Overnachting" style="stroke:#000000;stroke-width:1.1;"/><polygon fill="none" points="903.56,522.25,887.6655,532.6116,897.0614,540.076,903.56,522.25" style="stroke:#000000;stroke-width:1.1;"/><text fill="#000000" font-family="Helvetica" font-size="13" lengthAdjust="spacing" textLength="66.4663" x="877.54" y="563.0103">implements</text></g><!--reverse link Bouwsteen to Vervoer--><g id="link_Bouwsteen_Vervoer"><path codeLine="51" d="M962.8306,536.3407 C979.9606,557.8907 991.97,573.02 1010.8,596.71 " fill="none" id="Bouwsteen-backto-Vervoer" style="stroke:#000000;stroke-width:1.1;"/><polygon fill="none" points="951.63,522.25,958.1337,540.0742,967.5275,532.6071,951.63,522.25" style="stroke:#000000;stroke-width:1.1;"/><text fill="#000000" font-family="Helvetica" font-size="13" lengthAdjust="spacing" textLength="66.4663" x="986.6" y="563.0103">implements</text></g><!--reverse link BouwsteenFactory to OvernachtingFactory--><g id="link_BouwsteenFactory_OvernachtingFactory"><path codeLine="52" d="M541.1737,377.1421 C462.2437,403.4521 352.02,440.19 273.05,466.52 " fill="none" id="BouwsteenFactory-backto-OvernachtingFactory" style="stroke:#000000;stroke-width:1.1;"/><polygon fill="none" points="558.25,371.45,539.2763,371.45,543.0711,382.8342,558.25,371.45" style="stroke:#000000;stroke-width:1.1;"/><text fill="#000000" font-family="Helvetica" font-size="13" lengthAdjust="spacing" textLength="66.4663" x="416.6" y="426.0103">implements</text></g><!--reverse link BouwsteenFactory to VervoerFactory--><g id="link_BouwsteenFactory_VervoerFactory"><path codeLine="53" d="M628.6,389.45 C628.6,415.76 628.6,440.19 628.6,466.52 " fill="none" id="BouwsteenFactory-backto-VervoerFactory" style="stroke:#000000;stroke-width:1.1;"/><polygon fill="none" points="628.6,371.45,622.6,389.45,634.6,389.45,628.6,371.45" style="stroke:#000000;stroke-width:1.1;"/><text fill="#000000" font-family="Helvetica" font-size="13" lengthAdjust="spacing" textLength="66.4663" x="629.6" y="426.0103">implements</text></g><!--link BouwsteenService to BouwsteenFactory--><g id="link_BouwsteenService_BouwsteenFactory"><path codeLine="55" d="M779.14,234.41 C741.81,262.08 696.9302,295.3472 665.0502,318.9772 " fill="none" id="BouwsteenService-to-BouwsteenFactory" style="stroke:#000000;stroke-width:1.1;stroke-dasharray:7.0,7.0;"/><polygon fill="#000000" points="660.23,322.55,669.8423,320.4042,664.2469,319.5726,665.0785,313.9772,660.23,322.55" style="stroke:#000000;stroke-width:1.1;"/><text fill="#000000" font-family="Helvetica" font-size="13" lengthAdjust="spacing" textLength="27.46" x="736.13" y="275.0103">uses</text></g><!--link BouwsteenController to BouwsteenService--><g id="link_BouwsteenController_BouwsteenService"><path codeLine="56" d="M829.6,83.21 C829.6,105.97 829.6,128.98 829.6,151.74 " fill="none" id="BouwsteenController-to-BouwsteenService" style="stroke:#000000;stroke-width:1.1;stroke-dasharray:7.0,7.0;"/><polygon fill="#000000" points="829.6,157.74,833.6,148.74,829.6,152.74,825.6,148.74,829.6,157.74" style="stroke:#000000;stroke-width:1.1;"/><text fill="#000000" font-family="Helvetica" font-size="13" lengthAdjust="spacing" textLength="56.3799" x="830.6" y="124.0103">delegates</text></g><!--link BouwsteenService to BouwsteenRepository--><g id="link_BouwsteenService_BouwsteenRepository"><path codeLine="58" d="M880.06,234.41 C910.64,257.08 944.7102,282.3265 975.3002,305.0065 " fill="none" id="BouwsteenService-to-BouwsteenRepository" style="stroke:#000000;stroke-width:1.1;stroke-dasharray:7.0,7.0;"/><polygon fill="#000000" points="980.12,308.58,975.2726,300.0066,976.1035,305.6021,970.508,306.433,980.12,308.58" style="stroke:#000000;stroke-width:1.1;"/><text fill="#000000" font-family="Helvetica" font-size="13" lengthAdjust="spacing" textLength="27.46" x="937.13" y="275.0103">uses</text></g><!--link BouwsteenFactory to Bouwsteen--><g id="link_BouwsteenFactory_Bouwsteen"><path codeLine="59" d="M677.97,371.45 C728.73,395.55 802.5603,430.6157 858.1203,457.0057 " fill="none" id="BouwsteenFactory-to-Bouwsteen" style="stroke:#000000;stroke-width:1.1;"/><polygon fill="#000000" points="863.54,459.58,857.1266,452.1055,859.0236,457.4348,853.6943,459.3317,863.54,459.58" style="stroke:#000000;stroke-width:1.1;"/><text fill="#000000" font-family="Helvetica" font-size="13" lengthAdjust="spacing" textLength="42.6309" x="797" y="426.0103">creates</text></g><!--SRC=[jLHDJyCm3BttLuJR4BIzLzCEV4b8e4bZsZrBlIueJKBYRgg0_qwWIvUkOni2SehYv-Tdn_OPbqnKEP0behPPcXgwJWgEosfUMJ1CIGI92LDboWnTOCnK3YRLWagiIX5Rh0NOjAHSflx-YP2D9V70AEAEoIme0tAbghL507b76IfJazU8k7F13524rZh80IaNDYEFL0-Vq71PN9Bn_1aOZiwpBKtq7aLCK6l9UEKYKxP41_rpyXcObGBpvxpjqxKhjb52WF7aBbxHcgSA1WPUAh0Oy4oQ5qSz0QkLj70haMCzR16Z3HUODNzsNxFLElUt-pmZZTO-pqpnV4Enf5IqtcDzcd-Wev_oawifTotnJJ4NJQspNijSafFh_4MSWu2GkAFyGNtfNhb46tG1s4AlwljyBtoiaIj9nU449w2LvM73MBg2BM6Wj2EX4Nn4vuBB_AVwzeoXL-RIdjOQ1kV-CzldcwROWMNlo6s8uaD_yujGcm7yjoZRWWpVuhYRMKPugGMKRXdQNQ3NjH_ZzqMFqnjESDjPFHsFg3TCIJBgxzYCk7qUy0VBfeFt91dvRC72ZUFH446FxqRnqUCum3jKC-Ws-W00]--></g></svg>