<svg xmlns="http://www.w3.org/2000/svg" xmlns:xlink="http://www.w3.org/1999/xlink" contentStyleType="text/css" height="543px" preserveAspectRatio="none" style="width:1230px;height:543px;background:#FFFFFF;" version="1.1" viewBox="0 0 1230 543" width="1230px" zoomAndPan="magnify"><defs/><g><!--cluster serviceImpls--><g id="cluster_serviceImpls"><path d="M8.5,6 L100.459,6 A3.75,3.75 0 0 1 102.959,8.5 L109.959,28.4883 L497.5,28.4883 A2.5,2.5 0 0 1 500,30.9883 L500,168.45 A2.5,2.5 0 0 1 497.5,170.95 L8.5,170.95 A2.5,2.5 0 0 1 6,168.45 L6,8.5 A2.5,2.5 0 0 1 8.5,6 " fill="none" style="stroke:#000000;stroke-width:1.5;"/><line style="stroke:#000000;stroke-width:1.5;" x1="6" x2="109.959" y1="28.4883" y2="28.4883"/><text fill="#000000" font-family="sans-serif" font-size="14" font-weight="bold" lengthAdjust="spacing" textLength="90.959" x="10" y="21.5352">serviceImpls</text></g><!--cluster bouwsteenImpls--><g id="cluster_bouwsteenImpls"><path d="M870.5,14.24 L990.1445,14.24 A3.75,3.75 0 0 1 992.6445,16.74 L999.6445,36.7283 L1220.5,36.7283 A2.5,2.5 0 0 1 1223,39.2283 L1223,160.21 A2.5,2.5 0 0 1 1220.5,162.71 L870.5,162.71 A2.5,2.5 0 0 1 868,160.21 L868,16.74 A2.5,2.5 0 0 1 870.5,14.24 " fill="none" style="stroke:#000000;stroke-width:1.5;"/><line style="stroke:#000000;stroke-width:1.5;" x1="868" x2="999.6445" y1="36.7283" y2="36.7283"/><text fill="#000000" font-family="sans-serif" font-size="14" font-weight="bold" lengthAdjust="spacing" textLength="118.6445" x="872" y="29.7752">bouwsteenImpls</text></g><!--class HotelServiceStrategyImpl--><g id="elem_HotelServiceStrategyImpl"><rect codeLine="19" fill="#F1F1F1" height="113.9531" id="HotelServiceStrategyImpl" rx="2.5" ry="2.5" style="stroke:#181818;stroke-width:0.5;" width="213.2773" x="270.36" y="41"/><ellipse cx="291.0733" cy="57" fill="#ADD1B2" rx="11" ry="11" style="stroke:#181818;stroke-width:1.0;"/><path d="M294.0465,62.6431 Q293.4654,62.9419 292.8263,63.0913 Q292.1871,63.2407 291.4815,63.2407 Q288.9747,63.2407 287.6549,61.5889 Q286.335,59.937 286.335,56.8159 Q286.335,53.6865 287.6549,52.0347 Q288.9747,50.3828 291.4815,50.3828 Q292.1871,50.3828 292.8346,50.5322 Q293.482,50.6816 294.0465,50.9805 L294.0465,53.7031 Q293.4156,53.1221 292.8221,52.8523 Q292.2286,52.5825 291.5977,52.5825 Q290.253,52.5825 289.5682,53.6492 Q288.8834,54.7158 288.8834,56.8159 Q288.8834,58.9077 289.5682,59.9744 Q290.253,61.041 291.5977,61.041 Q292.2286,61.041 292.8221,60.7712 Q293.4156,60.5015 294.0465,59.9204 Z " fill="#000000"/><text fill="#000000" font-family="sans-serif" font-size="14" lengthAdjust="spacing" textLength="168.5811" x="306.343" y="62.291">HotelServiceStrategyImpl</text><line style="stroke:#181818;stroke-width:0.5;" x1="271.36" x2="482.6373" y1="73" y2="73"/><rect fill="none" height="6" style="stroke:#C82930;stroke-width:1.0;" width="6" x="278.36" y="83.7441"/><text fill="#000000" font-family="sans-serif" font-size="14" lengthAdjust="spacing" textLength="146.6514" x="290.36" y="90.5352">repo: BouwsteenRepo</text><rect fill="none" height="6" style="stroke:#C82930;stroke-width:1.0;" width="6" x="278.36" y="100.2324"/><text fill="#000000" font-family="sans-serif" font-size="14" lengthAdjust="spacing" textLength="187.2773" x="290.36" y="107.0234">adapter: BouwsteenAdapter</text><rect fill="none" height="6" style="stroke:#C82930;stroke-width:1.0;" width="6" x="278.36" y="116.7207"/><text fill="#000000" font-family="sans-serif" font-size="14" lengthAdjust="spacing" textLength="88.8945" x="290.36" y="123.5117">apiUrl: String</text><rect fill="none" height="6" style="stroke:#C82930;stroke-width:1.0;" width="6" x="278.36" y="133.209"/><text fill="#000000" font-family="sans-serif" font-size="14" lengthAdjust="spacing" textLength="93.6729" x="290.36" y="140">apiKey: String</text><line style="stroke:#181818;stroke-width:0.5;" x1="271.36" x2="482.6373" y1="146.9531" y2="146.9531"/></g><!--class TripServiceStrategyImpl--><g id="elem_TripServiceStrategyImpl"><rect codeLine="25" fill="#F1F1F1" height="113.9531" id="TripServiceStrategyImpl" rx="2.5" ry="2.5" style="stroke:#181818;stroke-width:0.5;" width="213.2773" x="22.36" y="41"/><ellipse cx="46.9124" cy="57" fill="#ADD1B2" rx="11" ry="11" style="stroke:#181818;stroke-width:1.0;"/><path d="M49.8855,62.6431 Q49.3045,62.9419 48.6653,63.0913 Q48.0262,63.2407 47.3206,63.2407 Q44.8138,63.2407 43.4939,61.5889 Q42.1741,59.937 42.1741,56.8159 Q42.1741,53.6865 43.4939,52.0347 Q44.8138,50.3828 47.3206,50.3828 Q48.0262,50.3828 48.6736,50.5322 Q49.3211,50.6816 49.8855,50.9805 L49.8855,53.7031 Q49.2547,53.1221 48.6612,52.8523 Q48.0677,52.5825 47.4368,52.5825 Q46.0921,52.5825 45.4073,53.6492 Q44.7225,54.7158 44.7225,56.8159 Q44.7225,58.9077 45.4073,59.9744 Q46.0921,61.041 47.4368,61.041 Q48.0677,61.041 48.6612,60.7712 Q49.2547,60.5015 49.8855,59.9204 Z " fill="#000000"/><text fill="#000000" font-family="sans-serif" font-size="14" lengthAdjust="spacing" textLength="160.0498" x="63.0351" y="62.291">TripServiceStrategyImpl</text><line style="stroke:#181818;stroke-width:0.5;" x1="23.36" x2="234.6373" y1="73" y2="73"/><rect fill="none" height="6" style="stroke:#C82930;stroke-width:1.0;" width="6" x="30.36" y="83.7441"/><text fill="#000000" font-family="sans-serif" font-size="14" lengthAdjust="spacing" textLength="146.6514" x="42.36" y="90.5352">repo: BouwsteenRepo</text><rect fill="none" height="6" style="stroke:#C82930;stroke-width:1.0;" width="6" x="30.36" y="100.2324"/><text fill="#000000" font-family="sans-serif" font-size="14" lengthAdjust="spacing" textLength="187.2773" x="42.36" y="107.0234">adapter: BouwsteenAdapter</text><rect fill="none" height="6" style="stroke:#C82930;stroke-width:1.0;" width="6" x="30.36" y="116.7207"/><text fill="#000000" font-family="sans-serif" font-size="14" lengthAdjust="spacing" textLength="88.8945" x="42.36" y="123.5117">apiUrl: String</text><rect fill="none" height="6" style="stroke:#C82930;stroke-width:1.0;" width="6" x="30.36" y="133.209"/><text fill="#000000" font-family="sans-serif" font-size="14" lengthAdjust="spacing" textLength="93.6729" x="42.36" y="140">apiKey: String</text><line style="stroke:#181818;stroke-width:0.5;" x1="23.36" x2="234.6373" y1="146.9531" y2="146.9531"/></g><!--class HotelBouwsteen--><g id="elem_HotelBouwsteen"><rect codeLine="38" fill="#F1F1F1" height="97.4648" id="HotelBouwsteen" rx="2.5" ry="2.5" style="stroke:#181818;stroke-width:0.5;" width="155.7529" x="884.12" y="49.24"/><ellipse cx="905.8669" cy="65.24" fill="#ADD1B2" rx="11" ry="11" style="stroke:#181818;stroke-width:1.0;"/><path d="M908.8401,70.8831 Q908.259,71.1819 907.6199,71.3313 Q906.9807,71.4807 906.2751,71.4807 Q903.7683,71.4807 902.4485,69.8289 Q901.1286,68.177 901.1286,65.0559 Q901.1286,61.9265 902.4485,60.2747 Q903.7683,58.6228 906.2751,58.6228 Q906.9807,58.6228 907.6282,58.7722 Q908.2756,58.9216 908.8401,59.2205 L908.8401,61.9431 Q908.2092,61.3621 907.6157,61.0923 Q907.0222,60.8225 906.3913,60.8225 Q905.0466,60.8225 904.3618,61.8892 Q903.677,62.9558 903.677,65.0559 Q903.677,67.1477 904.3618,68.2144 Q905.0466,69.281 906.3913,69.281 Q907.0222,69.281 907.6157,69.0112 Q908.2092,68.7415 908.8401,68.1604 Z " fill="#000000"/><text fill="#000000" font-family="sans-serif" font-size="14" lengthAdjust="spacing" textLength="108.7598" x="921.3662" y="70.531">HotelBouwsteen</text><line style="stroke:#181818;stroke-width:0.5;" x1="885.12" x2="1038.8729" y1="81.24" y2="81.24"/><rect fill="none" height="6" style="stroke:#C82930;stroke-width:1.0;" width="6" x="892.12" y="91.9841"/><text fill="#000000" font-family="sans-serif" font-size="14" lengthAdjust="spacing" textLength="86.1191" x="904.12" y="98.7752">name: String</text><rect fill="none" height="6" style="stroke:#C82930;stroke-width:1.0;" width="6" x="892.12" y="108.4724"/><text fill="#000000" font-family="sans-serif" font-size="14" lengthAdjust="spacing" textLength="72.5977" x="904.12" y="115.2634">city: String</text><rect fill="none" height="6" style="stroke:#C82930;stroke-width:1.0;" width="6" x="892.12" y="124.9607"/><text fill="#000000" font-family="sans-serif" font-size="14" lengthAdjust="spacing" textLength="129.7529" x="904.12" y="131.7517">durationInDays: int</text><line style="stroke:#181818;stroke-width:0.5;" x1="885.12" x2="1038.8729" y1="138.7048" y2="138.7048"/></g><!--class TripBouwsteen--><g id="elem_TripBouwsteen"><rect codeLine="43" fill="#F1F1F1" height="80.9766" id="TripBouwsteen" rx="2.5" ry="2.5" style="stroke:#181818;stroke-width:0.5;" width="132.2285" x="1074.89" y="57.49"/><ellipse cx="1089.89" cy="73.49" fill="#ADD1B2" rx="11" ry="11" style="stroke:#181818;stroke-width:1.0;"/><path d="M1092.8631,79.1331 Q1092.2821,79.4319 1091.6429,79.5813 Q1091.0038,79.7307 1090.2982,79.7307 Q1087.7914,79.7307 1086.4715,78.0789 Q1085.1517,76.427 1085.1517,73.3059 Q1085.1517,70.1765 1086.4715,68.5247 Q1087.7914,66.8728 1090.2982,66.8728 Q1091.0038,66.8728 1091.6512,67.0222 Q1092.2987,67.1716 1092.8631,67.4705 L1092.8631,70.1931 Q1092.2323,69.6121 1091.6388,69.3423 Q1091.0453,69.0725 1090.4144,69.0725 Q1089.0697,69.0725 1088.3849,70.1392 Q1087.7001,71.2058 1087.7001,73.3059 Q1087.7001,75.3977 1088.3849,76.4644 Q1089.0697,77.531 1090.4144,77.531 Q1091.0453,77.531 1091.6388,77.2612 Q1092.2323,76.9915 1092.8631,76.4104 Z " fill="#000000"/><text fill="#000000" font-family="sans-serif" font-size="14" lengthAdjust="spacing" textLength="100.2285" x="1103.89" y="78.781">TripBouwsteen</text><line style="stroke:#181818;stroke-width:0.5;" x1="1075.89" x2="1206.1185" y1="89.49" y2="89.49"/><rect fill="none" height="6" style="stroke:#C82930;stroke-width:1.0;" width="6" x="1082.89" y="100.2341"/><text fill="#000000" font-family="sans-serif" font-size="14" lengthAdjust="spacing" textLength="86.1191" x="1094.89" y="107.0252">name: String</text><rect fill="none" height="6" style="stroke:#C82930;stroke-width:1.0;" width="6" x="1082.89" y="116.7224"/><text fill="#000000" font-family="sans-serif" font-size="14" lengthAdjust="spacing" textLength="103.9404" x="1094.89" y="123.5134">lengthInKM: int</text><line style="stroke:#181818;stroke-width:0.5;" x1="1075.89" x2="1206.1185" y1="130.4666" y2="130.4666"/></g><!--class BouwsteenController--><g id="elem_BouwsteenController"><rect codeLine="2" fill="#F1F1F1" height="146.9297" id="BouwsteenController" rx="2.5" ry="2.5" style="stroke:#181818;stroke-width:0.5;" width="329.7754" x="519.11" y="24.51"/><ellipse cx="609.2726" cy="40.51" fill="#ADD1B2" rx="11" ry="11" style="stroke:#181818;stroke-width:1.0;"/><path d="M612.2457,46.1531 Q611.6647,46.4519 611.0255,46.6013 Q610.3864,46.7507 609.6808,46.7507 Q607.174,46.7507 605.8541,45.0989 Q604.5343,43.447 604.5343,40.3259 Q604.5343,37.1965 605.8541,35.5447 Q607.174,33.8928 609.6808,33.8928 Q610.3864,33.8928 611.0338,34.0422 Q611.6813,34.1916 612.2457,34.4905 L612.2457,37.2131 Q611.6149,36.6321 611.0214,36.3623 Q610.4279,36.0925 609.797,36.0925 Q608.4523,36.0925 607.7675,37.1592 Q607.0827,38.2258 607.0827,40.3259 Q607.0827,42.4177 607.7675,43.4844 Q608.4523,44.551 609.797,44.551 Q610.4279,44.551 611.0214,44.2812 Q611.6149,44.0115 612.2457,43.4304 Z " fill="#000000"/><text fill="#000000" font-family="sans-serif" font-size="14" lengthAdjust="spacing" textLength="140.9502" x="629.7726" y="45.801">BouwsteenController</text><line style="stroke:#181818;stroke-width:0.5;" x1="520.11" x2="847.8854" y1="56.51" y2="56.51"/><rect fill="none" height="6" style="stroke:#C82930;stroke-width:1.0;" width="6" x="527.11" y="67.2541"/><text fill="#000000" font-family="sans-serif" font-size="14" lengthAdjust="spacing" textLength="158.4365" x="539.11" y="74.0452">service: ServiceStrategy</text><line style="stroke:#181818;stroke-width:0.5;" x1="520.11" x2="847.8854" y1="80.9983" y2="80.9983"/><rect fill="#F24D5C" height="6" style="stroke:#C82930;stroke-width:1.0;" width="6" x="527.11" y="91.7424"/><text fill="#000000" font-family="sans-serif" font-size="14" lengthAdjust="spacing" textLength="152.3867" x="539.11" y="98.5334">chooseStrategy(String)</text><ellipse cx="530.11" cy="111.2307" fill="#84BE84" rx="3" ry="3" style="stroke:#038048;stroke-width:1.0;"/><text fill="#000000" font-family="sans-serif" font-size="14" lengthAdjust="spacing" textLength="303.7754" x="539.11" y="115.0217">boekBouwsteen(String, Map&lt;String, String&gt;)</text><ellipse cx="530.11" cy="127.719" fill="#84BE84" rx="3" ry="3" style="stroke:#038048;stroke-width:1.0;"/><text fill="#000000" font-family="sans-serif" font-size="14" lengthAdjust="spacing" textLength="170.4609" x="539.11" y="131.51">getBouwsteen(String, int)</text><ellipse cx="530.11" cy="144.2073" fill="#84BE84" rx="3" ry="3" style="stroke:#038048;stroke-width:1.0;"/><text fill="#000000" font-family="sans-serif" font-size="14" lengthAdjust="spacing" textLength="152.3184" x="539.11" y="147.9983">getBouwstenen(String)</text><ellipse cx="530.11" cy="160.6955" fill="#84BE84" rx="3" ry="3" style="stroke:#038048;stroke-width:1.0;"/><text fill="#000000" font-family="sans-serif" font-size="14" lengthAdjust="spacing" textLength="123.457" x="539.11" y="164.4866">getAPIData(String)</text></g><!--class ServiceStrategy--><g id="elem_ServiceStrategy"><rect codeLine="11" fill="#F1F1F1" height="113.9531" id="ServiceStrategy" rx="2.5" ry="2.5" style="stroke:#181818;stroke-width:0.5;" width="366.8877" x="193.56" y="248.44"/><ellipse cx="321.4296" cy="264.44" fill="#B4A7E5" rx="11" ry="11" style="stroke:#181818;stroke-width:1.0;"/><path d="M317.3574,260.2051 L317.3574,258.0469 L324.7368,258.0469 L324.7368,260.2051 L322.2714,260.2051 L322.2714,268.2818 L324.7368,268.2818 L324.7368,270.44 L317.3574,270.44 L317.3574,268.2818 L319.8227,268.2818 L319.8227,260.2051 Z " fill="#000000"/><text fill="#000000" font-family="sans-serif" font-size="14" font-style="italic" lengthAdjust="spacing" textLength="102.6484" x="341.9296" y="269.731">ServiceStrategy</text><line style="stroke:#181818;stroke-width:0.5;" x1="194.56" x2="559.4477" y1="280.44" y2="280.44"/><line style="stroke:#181818;stroke-width:0.5;" x1="194.56" x2="559.4477" y1="288.44" y2="288.44"/><ellipse cx="204.56" cy="302.1841" fill="#84BE84" rx="3" ry="3" style="stroke:#038048;stroke-width:1.0;"/><text fill="#000000" font-family="sans-serif" font-size="14" lengthAdjust="spacing" textLength="184.5977" x="213.56" y="305.9752">saveBouwsteen(Bouwsteen)</text><ellipse cx="204.56" cy="318.6724" fill="#84BE84" rx="3" ry="3" style="stroke:#038048;stroke-width:1.0;"/><text fill="#000000" font-family="sans-serif" font-size="14" lengthAdjust="spacing" textLength="340.8877" x="213.56" y="322.4634">getBouwsteenDataByID(id, Bouwsteen): Bouwsteen</text><ellipse cx="204.56" cy="335.1607" fill="#84BE84" rx="3" ry="3" style="stroke:#038048;stroke-width:1.0;"/><text fill="#000000" font-family="sans-serif" font-size="14" lengthAdjust="spacing" textLength="312.9287" x="213.56" y="338.9517">getBouwstenen(Bouwsteen): List&lt;Bouwsteen&gt;</text><ellipse cx="204.56" cy="351.649" fill="#84BE84" rx="3" ry="3" style="stroke:#038048;stroke-width:1.0;"/><text fill="#000000" font-family="sans-serif" font-size="14" lengthAdjust="spacing" textLength="83.4873" x="213.56" y="355.44">getAPIData()</text></g><!--class Bouwsteen--><g id="elem_Bouwsteen"><rect codeLine="33" fill="#F1F1F1" height="64.4883" id="Bouwsteen" rx="2.5" ry="2.5" style="stroke:#181818;stroke-width:0.5;" width="241.4209" x="841.29" y="273.17"/><ellipse cx="921.3559" cy="289.17" fill="#B4A7E5" rx="11" ry="11" style="stroke:#181818;stroke-width:1.0;"/><path d="M917.2837,284.9351 L917.2837,282.7769 L924.663,282.7769 L924.663,284.9351 L922.1977,284.9351 L922.1977,293.0118 L924.663,293.0118 L924.663,295.17 L917.2837,295.17 L917.2837,293.0118 L919.749,293.0118 L919.749,284.9351 Z " fill="#000000"/><text fill="#000000" font-family="sans-serif" font-size="14" font-style="italic" lengthAdjust="spacing" textLength="72.7891" x="941.8559" y="294.461">Bouwsteen</text><line style="stroke:#181818;stroke-width:0.5;" x1="842.29" x2="1081.7109" y1="305.17" y2="305.17"/><line style="stroke:#181818;stroke-width:0.5;" x1="842.29" x2="1081.7109" y1="313.17" y2="313.17"/><ellipse cx="852.29" cy="326.9141" fill="#84BE84" rx="3" ry="3" style="stroke:#038048;stroke-width:1.0;"/><text fill="#000000" font-family="sans-serif" font-size="14" lengthAdjust="spacing" textLength="215.4209" x="861.29" y="330.7052">setDetails(Map&lt;String, String&gt;)</text></g><!--class BouwsteenRepo--><g id="elem_BouwsteenRepo"><rect codeLine="49" fill="#F1F1F1" height="97.4648" id="BouwsteenRepo" rx="2.5" ry="2.5" style="stroke:#181818;stroke-width:0.5;" width="356.6816" x="41.66" y="439.4"/><ellipse cx="162.3246" cy="455.4" fill="#ADD1B2" rx="11" ry="11" style="stroke:#181818;stroke-width:1.0;"/><path d="M165.2977,461.0431 Q164.7166,461.3419 164.0775,461.4913 Q163.4383,461.6407 162.7328,461.6407 Q160.2259,461.6407 158.9061,459.9889 Q157.5863,458.337 157.5863,455.2159 Q157.5863,452.0865 158.9061,450.4347 Q160.2259,448.7828 162.7328,448.7828 Q163.4383,448.7828 164.0858,448.9322 Q164.7332,449.0816 165.2977,449.3805 L165.2977,452.1031 Q164.6668,451.5221 164.0733,451.2523 Q163.4798,450.9825 162.849,450.9825 Q161.5042,450.9825 160.8194,452.0492 Q160.1346,453.1158 160.1346,455.2159 Q160.1346,457.3077 160.8194,458.3744 Q161.5042,459.441 162.849,459.441 Q163.4798,459.441 164.0733,459.1712 Q164.6668,458.9015 165.2977,458.3204 Z " fill="#000000"/><text fill="#000000" font-family="sans-serif" font-size="14" lengthAdjust="spacing" textLength="106.8525" x="182.8246" y="460.691">BouwsteenRepo</text><line style="stroke:#181818;stroke-width:0.5;" x1="42.66" x2="397.3416" y1="471.4" y2="471.4"/><line style="stroke:#181818;stroke-width:0.5;" x1="42.66" x2="397.3416" y1="479.4" y2="479.4"/><ellipse cx="52.66" cy="493.1441" fill="#84BE84" rx="3" ry="3" style="stroke:#038048;stroke-width:1.0;"/><text fill="#000000" font-family="sans-serif" font-size="14" lengthAdjust="spacing" textLength="184.5977" x="61.66" y="496.9352">saveBouwsteen(Bouwsteen)</text><ellipse cx="52.66" cy="509.6324" fill="#84BE84" rx="3" ry="3" style="stroke:#038048;stroke-width:1.0;"/><text fill="#000000" font-family="sans-serif" font-size="14" lengthAdjust="spacing" textLength="279.8154" x="61.66" y="513.4234">getBouwsteen(id, Bouwsteen): Bouwsteen</text><ellipse cx="52.66" cy="526.1207" fill="#84BE84" rx="3" ry="3" style="stroke:#038048;stroke-width:1.0;"/><text fill="#000000" font-family="sans-serif" font-size="14" lengthAdjust="spacing" textLength="330.6816" x="61.66" y="529.9117">getAllBouwstenen(Bouwsteen): List&lt;Bouwsteen&gt;</text></g><!--class BouwsteenAdapter--><g id="elem_BouwsteenAdapter"><rect codeLine="54" fill="#F1F1F1" height="80.9766" id="BouwsteenAdapter" rx="2.5" ry="2.5" style="stroke:#181818;stroke-width:0.5;" width="203.2559" x="433.37" y="447.64"/><ellipse cx="468.4798" cy="463.64" fill="#ADD1B2" rx="11" ry="11" style="stroke:#181818;stroke-width:1.0;"/><path d="M471.453,469.2831 Q470.8719,469.5819 470.2327,469.7313 Q469.5936,469.8807 468.888,469.8807 Q466.3812,469.8807 465.0614,468.2289 Q463.7415,466.577 463.7415,463.4559 Q463.7415,460.3265 465.0614,458.6747 Q466.3812,457.0228 468.888,457.0228 Q469.5936,457.0228 470.241,457.1722 Q470.8885,457.3216 471.453,457.6205 L471.453,460.3431 Q470.8221,459.7621 470.2286,459.4923 Q469.6351,459.2225 469.0042,459.2225 Q467.6595,459.2225 466.9747,460.2892 Q466.2899,461.3558 466.2899,463.4559 Q466.2899,465.5477 466.9747,466.6144 Q467.6595,467.681 469.0042,467.681 Q469.6351,467.681 470.2286,467.4112 Q470.8221,467.1415 471.453,466.5604 Z " fill="#000000"/><text fill="#000000" font-family="sans-serif" font-size="14" lengthAdjust="spacing" textLength="126.5674" x="486.9487" y="468.931">BouwsteenAdapter</text><line style="stroke:#181818;stroke-width:0.5;" x1="434.37" x2="635.6259" y1="479.64" y2="479.64"/><line style="stroke:#181818;stroke-width:0.5;" x1="434.37" x2="635.6259" y1="487.64" y2="487.64"/><ellipse cx="444.37" cy="501.3841" fill="#84BE84" rx="3" ry="3" style="stroke:#038048;stroke-width:1.0;"/><text fill="#000000" font-family="sans-serif" font-size="14" lengthAdjust="spacing" textLength="177.2559" x="453.37" y="505.1752">getAPIData(apiKey, apiUrl)</text><ellipse cx="444.37" cy="517.8724" fill="#84BE84" rx="3" ry="3" style="stroke:#038048;stroke-width:1.0;"/><text fill="#000000" font-family="sans-serif" font-size="14" lengthAdjust="spacing" textLength="166.708" x="453.37" y="521.6634">saveBooking(Bouwsteen)</text></g><!--link BouwsteenController to ServiceStrategy--><g id="link_BouwsteenController_ServiceStrategy"><path codeLine="60" d="M575.33,171.7 C537.9,196.75 501.5562,221.0627 466.3562,244.6227 " fill="none" id="BouwsteenController-to-ServiceStrategy" style="stroke:#181818;stroke-width:1.0;"/><polygon fill="#181818" points="461.37,247.96,471.0742,246.2781,465.5252,245.1789,466.6244,239.6298,461.37,247.96" style="stroke:#181818;stroke-width:1.0;"/><text fill="#000000" font-family="sans-serif" font-size="13" lengthAdjust="spacing" textLength="28.5645" x="531.5" y="215.0084">uses</text></g><!--link HotelServiceStrategyImpl to ServiceStrategy--><g id="link_HotelServiceStrategyImpl_ServiceStrategy"><path codeLine="62" d="M377,155.39 C377,184.25 377,201.29 377,230.13 " fill="none" id="HotelServiceStrategyImpl-to-ServiceStrategy" style="stroke:#181818;stroke-width:1.0;stroke-dasharray:7.0,7.0;"/><polygon fill="none" points="377,248.13,383,230.13,371,230.13,377,248.13" style="stroke:#181818;stroke-width:1.0;"/><text fill="#000000" font-family="sans-serif" font-size="13" lengthAdjust="spacing" textLength="74.0137" x="378" y="215.0084">implements</text></g><!--link TripServiceStrategyImpl to ServiceStrategy--><g id="link_TripServiceStrategyImpl_ServiceStrategy"><path codeLine="63" d="M197.1,155.39 C231.94,184.25 260.3659,207.8102 295.1959,236.6502 " fill="none" id="TripServiceStrategyImpl-to-ServiceStrategy" style="stroke:#181818;stroke-width:1.0;stroke-dasharray:7.0,7.0;"/><polygon fill="none" points="309.06,248.13,299.0225,232.0288,291.3693,241.2716,309.06,248.13" style="stroke:#181818;stroke-width:1.0;"/><text fill="#000000" font-family="sans-serif" font-size="13" lengthAdjust="spacing" textLength="74.0137" x="268.85" y="215.0084">implements</text></g><!--link HotelBouwsteen to Bouwsteen--><g id="link_HotelBouwsteen_Bouwsteen"><path codeLine="64" d="M962,147.14 C962,185.93 962,221.32 962,254.85 " fill="none" id="HotelBouwsteen-to-Bouwsteen" style="stroke:#181818;stroke-width:1.0;stroke-dasharray:7.0,7.0;"/><polygon fill="none" points="962,272.85,968,254.85,956,254.85,962,272.85" style="stroke:#181818;stroke-width:1.0;"/><text fill="#000000" font-family="sans-serif" font-size="13" lengthAdjust="spacing" textLength="74.0137" x="963" y="215.0084">implements</text></g><!--link TripBouwsteen to Bouwsteen--><g id="link_TripBouwsteen_Bouwsteen"><path codeLine="65" d="M1110.96,138.81 C1092.74,162.44 1068.7,192.71 1046,218.44 C1029.57,237.07 1023.0019,244.2261 1007.0419,260.1761 " fill="none" id="TripBouwsteen-to-Bouwsteen" style="stroke:#181818;stroke-width:1.0;stroke-dasharray:7.0,7.0;"/><polygon fill="none" points="994.31,272.9,1011.2832,264.42,1002.8006,255.9321,994.31,272.9" style="stroke:#181818;stroke-width:1.0;"/><text fill="#000000" font-family="sans-serif" font-size="13" lengthAdjust="spacing" textLength="74.0137" x="1060.56" y="215.0084">implements</text></g><!--link ServiceStrategy to BouwsteenRepo--><g id="link_ServiceStrategy_BouwsteenRepo"><path codeLine="67" d="M328.18,362.61 C306.94,387.06 286.2352,410.8907 265.8352,434.3707 " fill="none" id="ServiceStrategy-to-BouwsteenRepo" style="stroke:#181818;stroke-width:1.0;"/><polygon fill="#181818" points="261.9,438.9,270.8223,434.7295,265.1793,435.1256,264.7832,429.4826,261.9,438.9" style="stroke:#181818;stroke-width:1.0;"/><text fill="#000000" font-family="sans-serif" font-size="13" lengthAdjust="spacing" textLength="28.5645" x="299.5" y="405.9684">uses</text></g><!--link ServiceStrategy to BouwsteenAdapter--><g id="link_ServiceStrategy_BouwsteenAdapter"><path codeLine="68" d="M426.13,362.61 C450.13,390.06 474.5012,417.9326 496.2412,442.8026 " fill="none" id="ServiceStrategy-to-BouwsteenAdapter" style="stroke:#181818;stroke-width:1.0;"/><polygon fill="#181818" points="500.19,447.32,497.2783,437.9114,496.8993,443.5555,491.2552,443.1765,500.19,447.32" style="stroke:#181818;stroke-width:1.0;"/><text fill="#000000" font-family="sans-serif" font-size="13" lengthAdjust="spacing" textLength="28.5645" x="466.46" y="405.9684">uses</text></g><!--link BouwsteenController to Bouwsteen--><g id="link_BouwsteenController_Bouwsteen"><path codeLine="70" d="M782.4,171.7 C829.26,206.33 878.0446,242.3741 914.4046,269.2441 " fill="none" id="BouwsteenController-to-Bouwsteen" style="stroke:#181818;stroke-width:1.0;"/><polygon fill="#181818" points="919.23,272.81,914.3693,264.2442,915.2089,269.8384,909.6147,270.678,919.23,272.81" style="stroke:#181818;stroke-width:1.0;"/><text fill="#000000" font-family="sans-serif" font-size="13" lengthAdjust="spacing" textLength="28.5645" x="840.64" y="215.0084">uses</text></g><!--SRC=[pLJ1Zjem4BtxAtnRq08V4AsGO97QQBjIjNG_m3ZJuCNObcse8fP_huCJuoIceZqrbumzRyRFysPCEJ46B-NXbx40ubaAgoNde4y8ks-A3UWZev3XjJVMLXCBPTMuwLPA4pP7pc2Y75-SZtWZOHTIDxu9VYNggRNzVzu6b627U2Riq2y28F8jlkShOabmd15omQ1_4Wfz_gScp90ZNCyCLefHdNjPvQiHAoRNaespgvsa6IE_CMEVmiPyIFr2MX6w8oMqjS_tYXlFbrxa-YejyDvzQf37U64qA1anUtFBo4iAebnX8i32xyGOnTurpngDkeuNg3gESyJkXsRgFoFNQOIGDRG0s1LOmhWP9NipKcJJngOrwQNsZ0JPGu8ePRPAR1S7Lp8cHUxQhJ9PtVt92l_DKHn4QRUvU7cDyxbhqUxqrphymrpSCmyBpkySYNEVLIF-QJWiNkj9qmpZ3dEvSpM8URlheiGxXwVJUVzjm1a-6308tHeqF9jzfgAOyy4UX3NenXJS4Tdj91zmNGuEkG-9-aVMr-u8trxwZy16Yr2WMmMDMNZaWvM5c_a258W216LWd9GEOAm6K1ymmN1qomqOkjNiexQPmEilI-I_tm00]--></g></svg>