<svg xmlns="http://www.w3.org/2000/svg" xmlns:xlink="http://www.w3.org/1999/xlink" contentStyleType="text/css" height="552px" preserveAspectRatio="none" style="width:1232px;height:552px;background:#FFFFFF;" version="1.1" viewBox="0 0 1232 552" width="1232px" zoomAndPan="magnify"><defs/><g><!--cluster serviceImpls--><g id="cluster_serviceImpls"><path d="M10.84,6 L102.799,6 A3.75,3.75 0 0 1 105.299,8.5 L112.299,28.4883 L499.84,28.4883 A2.5,2.5 0 0 1 502.34,30.9883 L502.34,168.45 A2.5,2.5 0 0 1 499.84,170.95 L10.84,170.95 A2.5,2.5 0 0 1 8.34,168.45 L8.34,8.5 A2.5,2.5 0 0 1 10.84,6 " fill="none" style="stroke:#000000;stroke-width:1.5;"/><line style="stroke:#000000;stroke-width:1.5;" x1="8.34" x2="112.299" y1="28.4883" y2="28.4883"/><text fill="#000000" font-family="sans-serif" font-size="14" font-weight="bold" lengthAdjust="spacing" textLength="90.959" x="12.34" y="21.5352">serviceImpls</text></g><!--cluster bouwsteenImpls--><g id="cluster_bouwsteenImpls"><path d="M872.84,14.24 L992.4845,14.24 A3.75,3.75 0 0 1 994.9845,16.74 L1001.9845,36.7283 L1222.84,36.7283 A2.5,2.5 0 0 1 1225.34,39.2283 L1225.34,160.21 A2.5,2.5 0 0 1 1222.84,162.71 L872.84,162.71 A2.5,2.5 0 0 1 870.34,160.21 L870.34,16.74 A2.5,2.5 0 0 1 872.84,14.24 " fill="none" style="stroke:#000000;stroke-width:1.5;"/><line style="stroke:#000000;stroke-width:1.5;" x1="870.34" x2="1001.9845" y1="36.7283" y2="36.7283"/><text fill="#000000" font-family="sans-serif" font-size="14" font-weight="bold" lengthAdjust="spacing" textLength="118.6445" x="874.34" y="29.7752">bouwsteenImpls</text></g><!--class HotelServiceStrategyImpl--><g id="elem_HotelServiceStrategyImpl"><rect codeLine="21" fill="#F1F1F1" height="113.9531" id="HotelServiceStrategyImpl" rx="2.5" ry="2.5" style="stroke:#181818;stroke-width:0.5;" width="213.2773" x="272.7" y="41"/><ellipse cx="293.4133" cy="57" fill="#ADD1B2" rx="11" ry="11" style="stroke:#181818;stroke-width:1.0;"/><path d="M296.3865,62.6431 Q295.8054,62.9419 295.1663,63.0913 Q294.5271,63.2407 293.8215,63.2407 Q291.3147,63.2407 289.9949,61.5889 Q288.675,59.937 288.675,56.8159 Q288.675,53.6865 289.9949,52.0347 Q291.3147,50.3828 293.8215,50.3828 Q294.5271,50.3828 295.1746,50.5322 Q295.822,50.6816 296.3865,50.9805 L296.3865,53.7031 Q295.7556,53.1221 295.1621,52.8523 Q294.5686,52.5825 293.9377,52.5825 Q292.593,52.5825 291.9082,53.6492 Q291.2234,54.7158 291.2234,56.8159 Q291.2234,58.9077 291.9082,59.9744 Q292.593,61.041 293.9377,61.041 Q294.5686,61.041 295.1621,60.7712 Q295.7556,60.5015 296.3865,59.9204 Z " fill="#000000"/><text fill="#000000" font-family="sans-serif" font-size="14" lengthAdjust="spacing" textLength="168.5811" x="308.683" y="62.291">HotelServiceStrategyImpl</text><line style="stroke:#181818;stroke-width:0.5;" x1="273.7" x2="484.9773" y1="73" y2="73"/><rect fill="none" height="6" style="stroke:#C82930;stroke-width:1.0;" width="6" x="280.7" y="83.7441"/><text fill="#000000" font-family="sans-serif" font-size="14" lengthAdjust="spacing" textLength="146.6514" x="292.7" y="90.5352">repo: BouwsteenRepo</text><rect fill="none" height="6" style="stroke:#C82930;stroke-width:1.0;" width="6" x="280.7" y="100.2324"/><text fill="#000000" font-family="sans-serif" font-size="14" lengthAdjust="spacing" textLength="187.2773" x="292.7" y="107.0234">adapter: BouwsteenAdapter</text><rect fill="none" height="6" style="stroke:#C82930;stroke-width:1.0;" width="6" x="280.7" y="116.7207"/><text fill="#000000" font-family="sans-serif" font-size="14" lengthAdjust="spacing" textLength="88.8945" x="292.7" y="123.5117">apiUrl: String</text><rect fill="none" height="6" style="stroke:#C82930;stroke-width:1.0;" width="6" x="280.7" y="133.209"/><text fill="#000000" font-family="sans-serif" font-size="14" lengthAdjust="spacing" textLength="93.6729" x="292.7" y="140">apiKey: String</text><line style="stroke:#181818;stroke-width:0.5;" x1="273.7" x2="484.9773" y1="146.9531" y2="146.9531"/></g><!--class TripServiceStrategyImpl--><g id="elem_TripServiceStrategyImpl"><rect codeLine="27" fill="#F1F1F1" height="113.9531" id="TripServiceStrategyImpl" rx="2.5" ry="2.5" style="stroke:#181818;stroke-width:0.5;" width="213.2773" x="24.7" y="41"/><ellipse cx="49.2524" cy="57" fill="#ADD1B2" rx="11" ry="11" style="stroke:#181818;stroke-width:1.0;"/><path d="M52.2255,62.6431 Q51.6445,62.9419 51.0053,63.0913 Q50.3662,63.2407 49.6606,63.2407 Q47.1538,63.2407 45.8339,61.5889 Q44.5141,59.937 44.5141,56.8159 Q44.5141,53.6865 45.8339,52.0347 Q47.1538,50.3828 49.6606,50.3828 Q50.3662,50.3828 51.0136,50.5322 Q51.6611,50.6816 52.2255,50.9805 L52.2255,53.7031 Q51.5947,53.1221 51.0012,52.8523 Q50.4077,52.5825 49.7768,52.5825 Q48.4321,52.5825 47.7473,53.6492 Q47.0625,54.7158 47.0625,56.8159 Q47.0625,58.9077 47.7473,59.9744 Q48.4321,61.041 49.7768,61.041 Q50.4077,61.041 51.0012,60.7712 Q51.5947,60.5015 52.2255,59.9204 Z " fill="#000000"/><text fill="#000000" font-family="sans-serif" font-size="14" lengthAdjust="spacing" textLength="160.0498" x="65.3751" y="62.291">TripServiceStrategyImpl</text><line style="stroke:#181818;stroke-width:0.5;" x1="25.7" x2="236.9773" y1="73" y2="73"/><rect fill="none" height="6" style="stroke:#C82930;stroke-width:1.0;" width="6" x="32.7" y="83.7441"/><text fill="#000000" font-family="sans-serif" font-size="14" lengthAdjust="spacing" textLength="146.6514" x="44.7" y="90.5352">repo: BouwsteenRepo</text><rect fill="none" height="6" style="stroke:#C82930;stroke-width:1.0;" width="6" x="32.7" y="100.2324"/><text fill="#000000" font-family="sans-serif" font-size="14" lengthAdjust="spacing" textLength="187.2773" x="44.7" y="107.0234">adapter: BouwsteenAdapter</text><rect fill="none" height="6" style="stroke:#C82930;stroke-width:1.0;" width="6" x="32.7" y="116.7207"/><text fill="#000000" font-family="sans-serif" font-size="14" lengthAdjust="spacing" textLength="88.8945" x="44.7" y="123.5117">apiUrl: String</text><rect fill="none" height="6" style="stroke:#C82930;stroke-width:1.0;" width="6" x="32.7" y="133.209"/><text fill="#000000" font-family="sans-serif" font-size="14" lengthAdjust="spacing" textLength="93.6729" x="44.7" y="140">apiKey: String</text><line style="stroke:#181818;stroke-width:0.5;" x1="25.7" x2="236.9773" y1="146.9531" y2="146.9531"/></g><!--class HotelBouwsteen--><g id="elem_HotelBouwsteen"><rect codeLine="40" fill="#F1F1F1" height="97.4648" id="HotelBouwsteen" rx="2.5" ry="2.5" style="stroke:#181818;stroke-width:0.5;" width="155.7529" x="886.46" y="49.24"/><ellipse cx="908.2069" cy="65.24" fill="#ADD1B2" rx="11" ry="11" style="stroke:#181818;stroke-width:1.0;"/><path d="M911.1801,70.8831 Q910.599,71.1819 909.9599,71.3313 Q909.3207,71.4807 908.6151,71.4807 Q906.1083,71.4807 904.7885,69.8289 Q903.4686,68.177 903.4686,65.0559 Q903.4686,61.9265 904.7885,60.2747 Q906.1083,58.6228 908.6151,58.6228 Q909.3207,58.6228 909.9682,58.7722 Q910.6156,58.9216 911.1801,59.2205 L911.1801,61.9431 Q910.5492,61.3621 909.9557,61.0923 Q909.3622,60.8225 908.7313,60.8225 Q907.3866,60.8225 906.7018,61.8892 Q906.017,62.9558 906.017,65.0559 Q906.017,67.1477 906.7018,68.2144 Q907.3866,69.281 908.7313,69.281 Q909.3622,69.281 909.9557,69.0112 Q910.5492,68.7415 911.1801,68.1604 Z " fill="#000000"/><text fill="#000000" font-family="sans-serif" font-size="14" lengthAdjust="spacing" textLength="108.7598" x="923.7062" y="70.531">HotelBouwsteen</text><line style="stroke:#181818;stroke-width:0.5;" x1="887.46" x2="1041.2129" y1="81.24" y2="81.24"/><rect fill="none" height="6" style="stroke:#C82930;stroke-width:1.0;" width="6" x="894.46" y="91.9841"/><text fill="#000000" font-family="sans-serif" font-size="14" lengthAdjust="spacing" textLength="86.1191" x="906.46" y="98.7752">name: String</text><rect fill="none" height="6" style="stroke:#C82930;stroke-width:1.0;" width="6" x="894.46" y="108.4724"/><text fill="#000000" font-family="sans-serif" font-size="14" lengthAdjust="spacing" textLength="72.5977" x="906.46" y="115.2634">city: String</text><rect fill="none" height="6" style="stroke:#C82930;stroke-width:1.0;" width="6" x="894.46" y="124.9607"/><text fill="#000000" font-family="sans-serif" font-size="14" lengthAdjust="spacing" textLength="129.7529" x="906.46" y="131.7517">durationInDays: int</text><line style="stroke:#181818;stroke-width:0.5;" x1="887.46" x2="1041.2129" y1="138.7048" y2="138.7048"/></g><!--class TripBouwsteen--><g id="elem_TripBouwsteen"><rect codeLine="45" fill="#F1F1F1" height="80.9766" id="TripBouwsteen" rx="2.5" ry="2.5" style="stroke:#181818;stroke-width:0.5;" width="132.2285" x="1077.23" y="57.48"/><ellipse cx="1092.23" cy="73.48" fill="#ADD1B2" rx="11" ry="11" style="stroke:#181818;stroke-width:1.0;"/><path d="M1095.2031,79.1231 Q1094.6221,79.4219 1093.9829,79.5713 Q1093.3438,79.7207 1092.6382,79.7207 Q1090.1314,79.7207 1088.8115,78.0689 Q1087.4917,76.417 1087.4917,73.2959 Q1087.4917,70.1665 1088.8115,68.5147 Q1090.1314,66.8628 1092.6382,66.8628 Q1093.3438,66.8628 1093.9912,67.0122 Q1094.6387,67.1616 1095.2031,67.4605 L1095.2031,70.1831 Q1094.5723,69.6021 1093.9788,69.3323 Q1093.3853,69.0625 1092.7544,69.0625 Q1091.4097,69.0625 1090.7249,70.1292 Q1090.0401,71.1958 1090.0401,73.2959 Q1090.0401,75.3877 1090.7249,76.4544 Q1091.4097,77.521 1092.7544,77.521 Q1093.3853,77.521 1093.9788,77.2512 Q1094.5723,76.9815 1095.2031,76.4004 Z " fill="#000000"/><text fill="#000000" font-family="sans-serif" font-size="14" lengthAdjust="spacing" textLength="100.2285" x="1106.23" y="78.771">TripBouwsteen</text><line style="stroke:#181818;stroke-width:0.5;" x1="1078.23" x2="1208.4585" y1="89.48" y2="89.48"/><rect fill="none" height="6" style="stroke:#C82930;stroke-width:1.0;" width="6" x="1085.23" y="100.2241"/><text fill="#000000" font-family="sans-serif" font-size="14" lengthAdjust="spacing" textLength="86.1191" x="1097.23" y="107.0152">name: String</text><rect fill="none" height="6" style="stroke:#C82930;stroke-width:1.0;" width="6" x="1085.23" y="116.7124"/><text fill="#000000" font-family="sans-serif" font-size="14" lengthAdjust="spacing" textLength="103.9404" x="1097.23" y="123.5034">lengthInKM: int</text><line style="stroke:#181818;stroke-width:0.5;" x1="1078.23" x2="1208.4585" y1="130.4566" y2="130.4566"/></g><!--class BouwsteenController--><g id="elem_BouwsteenController"><rect codeLine="2" fill="#F1F1F1" height="163.418" id="BouwsteenController" rx="2.5" ry="2.5" style="stroke:#181818;stroke-width:0.5;" width="329.7754" x="521.45" y="16.26"/><ellipse cx="611.6126" cy="32.26" fill="#ADD1B2" rx="11" ry="11" style="stroke:#181818;stroke-width:1.0;"/><path d="M614.5857,37.9031 Q614.0047,38.2019 613.3655,38.3513 Q612.7264,38.5007 612.0208,38.5007 Q609.514,38.5007 608.1941,36.8489 Q606.8743,35.197 606.8743,32.0759 Q606.8743,28.9465 608.1941,27.2947 Q609.514,25.6428 612.0208,25.6428 Q612.7264,25.6428 613.3738,25.7922 Q614.0213,25.9416 614.5857,26.2405 L614.5857,28.9631 Q613.9549,28.3821 613.3614,28.1123 Q612.7679,27.8425 612.137,27.8425 Q610.7923,27.8425 610.1075,28.9092 Q609.4227,29.9758 609.4227,32.0759 Q609.4227,34.1677 610.1075,35.2344 Q610.7923,36.301 612.137,36.301 Q612.7679,36.301 613.3614,36.0312 Q613.9549,35.7615 614.5857,35.1804 Z " fill="#000000"/><text fill="#000000" font-family="sans-serif" font-size="14" lengthAdjust="spacing" textLength="140.9502" x="632.1126" y="37.551">BouwsteenController</text><line style="stroke:#181818;stroke-width:0.5;" x1="522.45" x2="850.2254" y1="48.26" y2="48.26"/><rect fill="none" height="6" style="stroke:#C82930;stroke-width:1.0;" width="6" x="529.45" y="59.0041"/><text fill="#000000" font-family="sans-serif" font-size="14" lengthAdjust="spacing" textLength="158.4365" x="541.45" y="65.7952">service: ServiceStrategy</text><rect fill="none" height="6" style="stroke:#C82930;stroke-width:1.0;" width="6" x="529.45" y="75.4924"/><text fill="#000000" font-family="sans-serif" font-size="14" lengthAdjust="spacing" textLength="155.1963" x="541.45" y="82.2834">bouwsteen: Bouwsteen</text><line style="stroke:#181818;stroke-width:0.5;" x1="522.45" x2="850.2254" y1="89.2366" y2="89.2366"/><rect fill="#F24D5C" height="6" style="stroke:#C82930;stroke-width:1.0;" width="6" x="529.45" y="99.9807"/><text fill="#000000" font-family="sans-serif" font-size="14" lengthAdjust="spacing" textLength="152.3867" x="541.45" y="106.7717">chooseStrategy(String)</text><ellipse cx="532.45" cy="119.469" fill="#84BE84" rx="3" ry="3" style="stroke:#038048;stroke-width:1.0;"/><text fill="#000000" font-family="sans-serif" font-size="14" lengthAdjust="spacing" textLength="303.7754" x="541.45" y="123.26">boekBouwsteen(String, Map&lt;String, String&gt;)</text><ellipse cx="532.45" cy="135.9573" fill="#84BE84" rx="3" ry="3" style="stroke:#038048;stroke-width:1.0;"/><text fill="#000000" font-family="sans-serif" font-size="14" lengthAdjust="spacing" textLength="197.8252" x="541.45" y="139.7483">getOneBouwsteen(String, int)</text><ellipse cx="532.45" cy="152.4455" fill="#84BE84" rx="3" ry="3" style="stroke:#038048;stroke-width:1.0;"/><text fill="#000000" font-family="sans-serif" font-size="14" lengthAdjust="spacing" textLength="170.0713" x="541.45" y="156.2366">getAllBouwstenen(String)</text><ellipse cx="532.45" cy="168.9338" fill="#84BE84" rx="3" ry="3" style="stroke:#038048;stroke-width:1.0;"/><text fill="#000000" font-family="sans-serif" font-size="14" lengthAdjust="spacing" textLength="123.457" x="541.45" y="172.7248">getAPIData(String)</text></g><!--class ServiceStrategy--><g id="elem_ServiceStrategy"><rect codeLine="13" fill="#F1F1F1" height="113.9531" id="ServiceStrategy" rx="2.5" ry="2.5" style="stroke:#181818;stroke-width:0.5;" width="366.8877" x="195.9" y="256.68"/><ellipse cx="323.7696" cy="272.68" fill="#B4A7E5" rx="11" ry="11" style="stroke:#181818;stroke-width:1.0;"/><path d="M319.6974,268.4451 L319.6974,266.2869 L327.0768,266.2869 L327.0768,268.4451 L324.6114,268.4451 L324.6114,276.5218 L327.0768,276.5218 L327.0768,278.68 L319.6974,278.68 L319.6974,276.5218 L322.1627,276.5218 L322.1627,268.4451 Z " fill="#000000"/><text fill="#000000" font-family="sans-serif" font-size="14" font-style="italic" lengthAdjust="spacing" textLength="102.6484" x="344.2696" y="277.971">ServiceStrategy</text><line style="stroke:#181818;stroke-width:0.5;" x1="196.9" x2="561.7877" y1="288.68" y2="288.68"/><line style="stroke:#181818;stroke-width:0.5;" x1="196.9" x2="561.7877" y1="296.68" y2="296.68"/><ellipse cx="206.9" cy="310.4241" fill="#84BE84" rx="3" ry="3" style="stroke:#038048;stroke-width:1.0;"/><text fill="#000000" font-family="sans-serif" font-size="14" lengthAdjust="spacing" textLength="184.5977" x="215.9" y="314.2152">saveBouwsteen(Bouwsteen)</text><ellipse cx="206.9" cy="326.9124" fill="#84BE84" rx="3" ry="3" style="stroke:#038048;stroke-width:1.0;"/><text fill="#000000" font-family="sans-serif" font-size="14" lengthAdjust="spacing" textLength="340.8877" x="215.9" y="330.7034">getBouwsteenDataByID(id, Bouwsteen): Bouwsteen</text><ellipse cx="206.9" cy="343.4007" fill="#84BE84" rx="3" ry="3" style="stroke:#038048;stroke-width:1.0;"/><text fill="#000000" font-family="sans-serif" font-size="14" lengthAdjust="spacing" textLength="312.9287" x="215.9" y="347.1917">getBouwstenen(Bouwsteen): List&lt;Bouwsteen&gt;</text><ellipse cx="206.9" cy="359.889" fill="#84BE84" rx="3" ry="3" style="stroke:#038048;stroke-width:1.0;"/><text fill="#000000" font-family="sans-serif" font-size="14" lengthAdjust="spacing" textLength="83.4873" x="215.9" y="363.68">getAPIData()</text></g><!--class Bouwsteen--><g id="elem_Bouwsteen"><rect codeLine="35" fill="#F1F1F1" height="64.4883" id="Bouwsteen" rx="2.5" ry="2.5" style="stroke:#181818;stroke-width:0.5;" width="241.4209" x="843.63" y="281.41"/><ellipse cx="923.6959" cy="297.41" fill="#B4A7E5" rx="11" ry="11" style="stroke:#181818;stroke-width:1.0;"/><path d="M919.6237,293.1751 L919.6237,291.0169 L927.003,291.0169 L927.003,293.1751 L924.5377,293.1751 L924.5377,301.2518 L927.003,301.2518 L927.003,303.41 L919.6237,303.41 L919.6237,301.2518 L922.089,301.2518 L922.089,293.1751 Z " fill="#000000"/><text fill="#000000" font-family="sans-serif" font-size="14" font-style="italic" lengthAdjust="spacing" textLength="72.7891" x="944.1959" y="302.701">Bouwsteen</text><line style="stroke:#181818;stroke-width:0.5;" x1="844.63" x2="1084.0509" y1="313.41" y2="313.41"/><line style="stroke:#181818;stroke-width:0.5;" x1="844.63" x2="1084.0509" y1="321.41" y2="321.41"/><ellipse cx="854.63" cy="335.1541" fill="#84BE84" rx="3" ry="3" style="stroke:#038048;stroke-width:1.0;"/><text fill="#000000" font-family="sans-serif" font-size="14" lengthAdjust="spacing" textLength="215.4209" x="863.63" y="338.9452">setDetails(Map&lt;String, String&gt;)</text></g><!--class BouwsteenRepo--><g id="elem_BouwsteenRepo"><rect codeLine="51" fill="#F1F1F1" height="97.4648" id="BouwsteenRepo" rx="2.5" ry="2.5" style="stroke:#181818;stroke-width:0.5;" width="356.6816" x="7" y="447.64"/><ellipse cx="127.6646" cy="463.64" fill="#ADD1B2" rx="11" ry="11" style="stroke:#181818;stroke-width:1.0;"/><path d="M130.6377,469.2831 Q130.0566,469.5819 129.4175,469.7313 Q128.7783,469.8807 128.0728,469.8807 Q125.5659,469.8807 124.2461,468.2289 Q122.9263,466.577 122.9263,463.4559 Q122.9263,460.3265 124.2461,458.6747 Q125.5659,457.0228 128.0728,457.0228 Q128.7783,457.0228 129.4258,457.1722 Q130.0732,457.3216 130.6377,457.6205 L130.6377,460.3431 Q130.0068,459.7621 129.4133,459.4923 Q128.8198,459.2225 128.189,459.2225 Q126.8442,459.2225 126.1594,460.2892 Q125.4746,461.3558 125.4746,463.4559 Q125.4746,465.5477 126.1594,466.6144 Q126.8442,467.681 128.189,467.681 Q128.8198,467.681 129.4133,467.4112 Q130.0068,467.1415 130.6377,466.5604 Z " fill="#000000"/><text fill="#000000" font-family="sans-serif" font-size="14" lengthAdjust="spacing" textLength="106.8525" x="148.1646" y="468.931">BouwsteenRepo</text><line style="stroke:#181818;stroke-width:0.5;" x1="8" x2="362.6816" y1="479.64" y2="479.64"/><line style="stroke:#181818;stroke-width:0.5;" x1="8" x2="362.6816" y1="487.64" y2="487.64"/><ellipse cx="18" cy="501.3841" fill="#84BE84" rx="3" ry="3" style="stroke:#038048;stroke-width:1.0;"/><text fill="#000000" font-family="sans-serif" font-size="14" lengthAdjust="spacing" textLength="184.5977" x="27" y="505.1752">saveBouwsteen(Bouwsteen)</text><ellipse cx="18" cy="517.8724" fill="#84BE84" rx="3" ry="3" style="stroke:#038048;stroke-width:1.0;"/><text fill="#000000" font-family="sans-serif" font-size="14" lengthAdjust="spacing" textLength="279.8154" x="27" y="521.6634">getBouwsteen(id, Bouwsteen): Bouwsteen</text><ellipse cx="18" cy="534.3607" fill="#84BE84" rx="3" ry="3" style="stroke:#038048;stroke-width:1.0;"/><text fill="#000000" font-family="sans-serif" font-size="14" lengthAdjust="spacing" textLength="330.6816" x="27" y="538.1517">getAllBouwstenen(Bouwsteen): List&lt;Bouwsteen&gt;</text></g><!--class BouwsteenAdapter--><g id="elem_BouwsteenAdapter"><rect codeLine="56" fill="#F1F1F1" height="80.9766" id="BouwsteenAdapter" rx="2.5" ry="2.5" style="stroke:#181818;stroke-width:0.5;" width="351.7734" x="398.45" y="455.88"/><ellipse cx="506.803" cy="471.88" fill="#ADD1B2" rx="11" ry="11" style="stroke:#181818;stroke-width:1.0;"/><path d="M509.7762,477.5231 Q509.1951,477.8219 508.556,477.9713 Q507.9168,478.1207 507.2112,478.1207 Q504.7044,478.1207 503.3846,476.4689 Q502.0647,474.817 502.0647,471.6959 Q502.0647,468.5665 503.3846,466.9147 Q504.7044,465.2628 507.2112,465.2628 Q507.9168,465.2628 508.5643,465.4122 Q509.2117,465.5616 509.7762,465.8605 L509.7762,468.5831 Q509.1453,468.0021 508.5518,467.7323 Q507.9583,467.4625 507.3274,467.4625 Q505.9827,467.4625 505.2979,468.5292 Q504.6131,469.5958 504.6131,471.6959 Q504.6131,473.7877 505.2979,474.8544 Q505.9827,475.921 507.3274,475.921 Q507.9583,475.921 508.5518,475.6512 Q509.1453,475.3815 509.7762,474.8004 Z " fill="#000000"/><text fill="#000000" font-family="sans-serif" font-size="14" lengthAdjust="spacing" textLength="126.5674" x="527.303" y="477.171">BouwsteenAdapter</text><line style="stroke:#181818;stroke-width:0.5;" x1="399.45" x2="749.2234" y1="487.88" y2="487.88"/><line style="stroke:#181818;stroke-width:0.5;" x1="399.45" x2="749.2234" y1="495.88" y2="495.88"/><ellipse cx="409.45" cy="509.6241" fill="#84BE84" rx="3" ry="3" style="stroke:#038048;stroke-width:1.0;"/><text fill="#000000" font-family="sans-serif" font-size="14" lengthAdjust="spacing" textLength="325.7734" x="418.45" y="513.4152">getAPIData(apiKey, apiUrl): Map&lt;String, String&gt;</text><ellipse cx="409.45" cy="526.1124" fill="#84BE84" rx="3" ry="3" style="stroke:#038048;stroke-width:1.0;"/><text fill="#000000" font-family="sans-serif" font-size="14" lengthAdjust="spacing" textLength="166.708" x="418.45" y="529.9034">saveBooking(Bouwsteen)</text></g><!--link BouwsteenController to ServiceStrategy--><g id="link_BouwsteenController_ServiceStrategy"><path codeLine="62" d="M569.84,180.06 C533.37,205.45 498.8648,229.4627 465.3848,252.7627 " fill="none" id="BouwsteenController-to-ServiceStrategy" style="stroke:#181818;stroke-width:1.0;"/><polygon fill="#181818" points="460.46,256.19,470.132,254.3322,464.564,253.3339,465.5623,247.7658,460.46,256.19" style="stroke:#181818;stroke-width:1.0;"/><text fill="#000000" font-family="sans-serif" font-size="13" lengthAdjust="spacing" textLength="28.5645" x="524.63" y="223.2484">uses</text></g><!--link HotelServiceStrategyImpl to ServiceStrategy--><g id="link_HotelServiceStrategyImpl_ServiceStrategy"><path codeLine="64" d="M379.34,155.4 C379.34,186.56 379.34,207.14 379.34,238.29 " fill="none" id="HotelServiceStrategyImpl-to-ServiceStrategy" style="stroke:#181818;stroke-width:1.0;stroke-dasharray:7.0,7.0;"/><polygon fill="none" points="379.34,256.29,385.34,238.29,373.34,238.29,379.34,256.29" style="stroke:#181818;stroke-width:1.0;"/><text fill="#000000" font-family="sans-serif" font-size="13" lengthAdjust="spacing" textLength="74.0137" x="380.34" y="223.2484">implements</text></g><!--link TripServiceStrategyImpl to ServiceStrategy--><g id="link_TripServiceStrategyImpl_ServiceStrategy"><path codeLine="65" d="M196.82,155.4 C232.99,186.56 264.134,213.3901 300.284,244.5401 " fill="none" id="TripServiceStrategyImpl-to-ServiceStrategy" style="stroke:#181818;stroke-width:1.0;stroke-dasharray:7.0,7.0;"/><polygon fill="none" points="313.92,256.29,304.2007,239.9948,296.3674,249.0854,313.92,256.29" style="stroke:#181818;stroke-width:1.0;"/><text fill="#000000" font-family="sans-serif" font-size="13" lengthAdjust="spacing" textLength="74.0137" x="278.55" y="223.2484">implements</text></g><!--link HotelBouwsteen to Bouwsteen--><g id="link_HotelBouwsteen_Bouwsteen"><path codeLine="66" d="M964.34,147.19 C964.34,188.19 964.34,227.85 964.34,263.16 " fill="none" id="HotelBouwsteen-to-Bouwsteen" style="stroke:#181818;stroke-width:1.0;stroke-dasharray:7.0,7.0;"/><polygon fill="none" points="964.34,281.16,970.34,263.16,958.34,263.16,964.34,281.16" style="stroke:#181818;stroke-width:1.0;"/><text fill="#000000" font-family="sans-serif" font-size="13" lengthAdjust="spacing" textLength="74.0137" x="965.34" y="223.2484">implements</text></g><!--link TripBouwsteen to Bouwsteen--><g id="link_TripBouwsteen_Bouwsteen"><path codeLine="67" d="M1115.76,138.87 C1097.47,164.6 1072.47,198.42 1048.34,226.68 C1032.35,245.41 1026.0359,252.4602 1010.0859,268.2902 " fill="none" id="TripBouwsteen-to-Bouwsteen" style="stroke:#181818;stroke-width:1.0;stroke-dasharray:7.0,7.0;"/><polygon fill="none" points="997.31,280.97,1014.3125,272.5489,1005.8593,264.0316,997.31,280.97" style="stroke:#181818;stroke-width:1.0;"/><text fill="#000000" font-family="sans-serif" font-size="13" lengthAdjust="spacing" textLength="74.0137" x="1063.16" y="223.2484">implements</text></g><!--link ServiceStrategy to BouwsteenRepo--><g id="link_ServiceStrategy_BouwsteenRepo"><path codeLine="69" d="M318.76,371.09 C292.52,395.53 266.5102,419.7602 241.3702,443.1802 " fill="none" id="ServiceStrategy-to-BouwsteenRepo" style="stroke:#181818;stroke-width:1.0;"/><polygon fill="#181818" points="236.98,447.27,246.2918,444.0621,240.6385,443.8618,240.8387,438.2085,236.98,447.27" style="stroke:#181818;stroke-width:1.0;"/><text fill="#000000" font-family="sans-serif" font-size="13" lengthAdjust="spacing" textLength="28.5645" x="283.34" y="414.2084">uses</text></g><!--link ServiceStrategy to BouwsteenAdapter--><g id="link_ServiceStrategy_BouwsteenAdapter"><path codeLine="70" d="M440.24,371.09 C469.74,398.43 500.0691,426.5418 526.7991,451.3118 " fill="none" id="ServiceStrategy-to-BouwsteenAdapter" style="stroke:#181818;stroke-width:1.0;"/><polygon fill="#181818" points="531.2,455.39,527.3174,446.3387,527.5326,451.9915,521.8798,452.2066,531.2,455.39" style="stroke:#181818;stroke-width:1.0;"/><text fill="#000000" font-family="sans-serif" font-size="13" lengthAdjust="spacing" textLength="28.5645" x="489.52" y="414.2084">uses</text></g><!--link BouwsteenController to Bouwsteen--><g id="link_BouwsteenController_Bouwsteen"><path codeLine="72" d="M791.84,180.06 C837.61,215.25 883.7834,250.7328 918.3534,277.3128 " fill="none" id="BouwsteenController-to-Bouwsteen" style="stroke:#181818;stroke-width:1.0;"/><polygon fill="#181818" points="923.11,280.97,918.4133,272.3132,919.1462,277.9223,913.537,278.6552,923.11,280.97" style="stroke:#181818;stroke-width:1.0;"/><text fill="#000000" font-family="sans-serif" font-size="13" lengthAdjust="spacing" textLength="28.5645" x="851.24" y="223.2484">uses</text></g><!--SRC=[pLJ1RXiX4Btp5TpgA7O-O1LPYcifNQLHgxZv0C9EriGO461NAyV_NjQm6DPho-sfUrbWtXjcvir0EJ46p-Jcjx40ugiKLalEGUyGTjy46z1RHg702xzOM4qir4qmltNCukW41HjTIcaYOUGMJDGt1-Ej8y8gCe9jZ9-9kk_M_Z_j23NO7m9EAKpO1FB0UO28Y4dDFyiviIGQzWWvFkXtGg6VuIxG3DacryPLuZMUjRvdJJaViMfyhCTDMfi-IMG-2_oT6NiV3wQdeH-2LeIkI0sTEkLQSUFZfGT1lqaBl9TF2_8OBuy69PF8NjmsiPAAA5UO1F3WJrACOg-Q5q6ftF04JMRO9z7zqapzPy5bZH2znXO0EmTB63UZmGvD58a3CQn9pxMFI90r30HAcMq6ZgkDAncJedJjrfYY7O312l_DLHn4RPUbU7fE_RcqQFu-j3hymrnSCm_vv5uQYNq_gY3-xdHOlDRZq0pEru1yMJfovOxIP5mDqC3pY2UJQV_1m0NU6308dPi-V7VtESHYpWPh4DQWCwDn1JDlBqyuRaykkGw9-bUsQMVTq2Lz4HW4YWKwLz0q2e_yOcNb7e8A58WA16LWdBuEOAm6K1ymnh1rspSmTAdPHxjc0YyUPyX_Vm00]--></g></svg>