<svg xmlns="http://www.w3.org/2000/svg" xmlns:xlink="http://www.w3.org/1999/xlink" contentStyleType="text/css" height="680px" preserveAspectRatio="none" style="width:807px;height:680px;background:#FFFFFF;" version="1.1" viewBox="0 0 807 680" width="807px" zoomAndPan="magnify"><defs/><g><!--class BouwsteenController--><g id="elem_BouwsteenController"><rect codeLine="3" fill="#E0F9FF" height="90" id="BouwsteenController" rx="2.5" ry="2.5" style="stroke:#000000;stroke-width:2.0;" width="533.6182" x="28.09" y="7"/><ellipse cx="211.2546" cy="20" fill="#ADD1B2" rx="5" ry="5" style="stroke:#181818;stroke-width:1.0;"/><path d="M211.9772,22.832 Q211.7038,22.9727 211.403,23.043 Q211.1022,23.1133 210.7702,23.1133 Q209.5905,23.1133 208.9694,22.3359 Q208.3483,21.5586 208.3483,20.0898 Q208.3483,18.6172 208.9694,17.8398 Q209.5905,17.0625 210.7702,17.0625 Q211.1022,17.0625 211.4069,17.1328 Q211.7116,17.2031 211.9772,17.3438 L211.9772,18.625 Q211.6803,18.3516 211.401,18.2246 Q211.1217,18.0977 210.8249,18.0977 Q210.1921,18.0977 209.8698,18.5996 Q209.5475,19.1016 209.5475,20.0898 Q209.5475,21.0742 209.8698,21.5762 Q210.1921,22.0781 210.8249,22.0781 Q211.1217,22.0781 211.401,21.9512 Q211.6803,21.8242 211.9772,21.5508 Z " fill="#000000"/><text fill="#000000" font-family="Helvetica" font-size="16" font-weight="bold" lengthAdjust="spacing" textLength="161.7891" x="222.7546" y="24.3203">BouwsteenController</text><line style="stroke:#000000;stroke-width:2.0;" x1="29.09" x2="560.7082" y1="33" y2="33"/><ellipse cx="38.09" cy="45" fill="#84BE84" rx="2" ry="2" style="stroke:#038048;stroke-width:1.0;"/><text fill="#000000" font-family="Helvetica" font-size="14" lengthAdjust="spacing" textLength="500.418" x="42.09" y="47.7803">voegBouwsteenToe(request: BouwsteenRequest): ResponseEntity&lt;Bouwsteen&gt;</text><ellipse cx="38.09" cy="59" fill="#84BE84" rx="2" ry="2" style="stroke:#038048;stroke-width:1.0;"/><text fill="#000000" font-family="Helvetica" font-size="14" lengthAdjust="spacing" textLength="408.5566" x="42.09" y="61.7803">verwijderBouwsteen(bouwsteenId: String): ResponseEntity&lt;Void&gt;</text><ellipse cx="38.09" cy="73" fill="#84BE84" rx="2" ry="2" style="stroke:#038048;stroke-width:1.0;"/><text fill="#000000" font-family="Helvetica" font-size="14" lengthAdjust="spacing" textLength="438.9355" x="42.09" y="75.7803">haalBouwsteenOp(bouwsteenId: String): ResponseEntity&lt;Bouwsteen&gt;</text><ellipse cx="38.09" cy="87" fill="#84BE84" rx="2" ry="2" style="stroke:#038048;stroke-width:1.0;"/><text fill="#000000" font-family="Helvetica" font-size="14" lengthAdjust="spacing" textLength="513.6182" x="42.09" y="89.7803">haalAlleBouwstenenOpVoorTrip(tripId: String): ResponseEntity&lt;List&lt;Bouwsteen&gt;&gt;</text></g><!--class BouwsteenFactory--><g id="elem_BouwsteenFactory"><rect codeLine="10" fill="#E0F9FF" height="48" id="BouwsteenFactory" rx="2.5" ry="2.5" style="stroke:#000000;stroke-width:2.0;" width="469.791" x="7" y="481"/><ellipse cx="167.5752" cy="494" fill="#ADD1B2" rx="5" ry="5" style="stroke:#181818;stroke-width:1.0;"/><path d="M168.2979,496.832 Q168.0244,496.9727 167.7236,497.043 Q167.4229,497.1133 167.0908,497.1133 Q165.9111,497.1133 165.29,496.3359 Q164.6689,495.5586 164.6689,494.0898 Q164.6689,492.6172 165.29,491.8398 Q165.9111,491.0625 167.0908,491.0625 Q167.4229,491.0625 167.7275,491.1328 Q168.0322,491.2031 168.2979,491.3438 L168.2979,492.625 Q168.001,492.3516 167.7217,492.2246 Q167.4424,492.0977 167.1455,492.0977 Q166.5127,492.0977 166.1904,492.5996 Q165.8682,493.1016 165.8682,494.0898 Q165.8682,495.0742 166.1904,495.5762 Q166.5127,496.0781 167.1455,496.0781 Q167.4424,496.0781 167.7217,495.9512 Q168.001,495.8242 168.2979,495.5508 Z " fill="#000000"/><text fill="#000000" font-family="Helvetica" font-size="16" font-weight="bold" lengthAdjust="spacing" textLength="143.1406" x="179.0752" y="498.3203">BouwsteenFactory</text><line style="stroke:#000000;stroke-width:2.0;" x1="8" x2="475.791" y1="507" y2="507"/><ellipse cx="17" cy="519" fill="#84BE84" rx="2" ry="2" style="stroke:#038048;stroke-width:1.0;"/><text fill="#000000" font-family="Helvetica" font-size="14" lengthAdjust="spacing" textLength="449.791" x="21" y="521.7803">createBouwsteen(type: String, details: Map&lt;String, Object&gt;): Bouwsteen</text></g><!--class BouwsteenService--><g id="elem_BouwsteenService"><rect codeLine="14" fill="#E0F9FF" height="76" id="BouwsteenService" rx="2.5" ry="2.5" style="stroke:#000000;stroke-width:2.0;" width="469.791" x="331" y="172"/><ellipse cx="492.0049" cy="185" fill="#ADD1B2" rx="5" ry="5" style="stroke:#181818;stroke-width:1.0;"/><path d="M492.7275,187.832 Q492.4541,187.9727 492.1533,188.043 Q491.8525,188.1133 491.5205,188.1133 Q490.3408,188.1133 489.7197,187.3359 Q489.0986,186.5586 489.0986,185.0898 Q489.0986,183.6172 489.7197,182.8398 Q490.3408,182.0625 491.5205,182.0625 Q491.8525,182.0625 492.1572,182.1328 Q492.4619,182.2031 492.7275,182.3438 L492.7275,183.625 Q492.4307,183.3516 492.1514,183.2246 Q491.8721,183.0977 491.5752,183.0977 Q490.9424,183.0977 490.6201,183.5996 Q490.2979,184.1016 490.2979,185.0898 Q490.2979,186.0742 490.6201,186.5762 Q490.9424,187.0781 491.5752,187.0781 Q491.8721,187.0781 492.1514,186.9512 Q492.4307,186.8242 492.7275,186.5508 Z " fill="#000000"/><text fill="#000000" font-family="Helvetica" font-size="16" font-weight="bold" lengthAdjust="spacing" textLength="142.2813" x="503.5049" y="189.3203">BouwsteenService</text><line style="stroke:#000000;stroke-width:2.0;" x1="332" x2="799.791" y1="198" y2="198"/><ellipse cx="341" cy="210" fill="#84BE84" rx="2" ry="2" style="stroke:#038048;stroke-width:1.0;"/><text fill="#000000" font-family="Helvetica" font-size="14" lengthAdjust="spacing" textLength="449.791" x="345" y="212.7803">createBouwsteen(type: String, details: Map&lt;String, Object&gt;): Bouwsteen</text><ellipse cx="341" cy="224" fill="#84BE84" rx="2" ry="2" style="stroke:#038048;stroke-width:1.0;"/><text fill="#000000" font-family="Helvetica" font-size="14" lengthAdjust="spacing" textLength="268.5156" x="345" y="226.7803">deleteBouwsteen(bouwsteenId: Long): void</text><ellipse cx="341" cy="238" fill="#84BE84" rx="2" ry="2" style="stroke:#038048;stroke-width:1.0;"/><text fill="#000000" font-family="Helvetica" font-size="14" lengthAdjust="spacing" textLength="389.9287" x="345" y="240.7803">getBouwsteenById(bouwsteenId: Long): Optional&lt;Bouwsteen&gt;</text></g><!--class BouwsteenRepository--><g id="elem_BouwsteenRepository"><rect codeLine="20" fill="#E0F9FF" height="76" id="BouwsteenRepository" rx="2.5" ry="2.5" style="stroke:#000000;stroke-width:2.0;" width="343.7705" x="403.01" y="323"/><ellipse cx="487.6882" cy="336" fill="#ADD1B2" rx="5" ry="5" style="stroke:#181818;stroke-width:1.0;"/><path d="M488.4109,338.832 Q488.1374,338.9727 487.8367,339.043 Q487.5359,339.1133 487.2038,339.1133 Q486.0242,339.1133 485.4031,338.3359 Q484.782,337.5586 484.782,336.0898 Q484.782,334.6172 485.4031,333.8398 Q486.0242,333.0625 487.2038,333.0625 Q487.5359,333.0625 487.8406,333.1328 Q488.1453,333.2031 488.4109,333.3438 L488.4109,334.625 Q488.114,334.3516 487.8347,334.2246 Q487.5554,334.0977 487.2585,334.0977 Q486.6257,334.0977 486.3035,334.5996 Q485.9812,335.1016 485.9812,336.0898 Q485.9812,337.0742 486.3035,337.5762 Q486.6257,338.0781 487.2585,338.0781 Q487.5554,338.0781 487.8347,337.9512 Q488.114,337.8242 488.4109,337.5508 Z " fill="#000000"/><text fill="#000000" font-family="Helvetica" font-size="16" font-weight="bold" lengthAdjust="spacing" textLength="168.9141" x="499.1882" y="340.3203">BouwsteenRepository</text><line style="stroke:#000000;stroke-width:2.0;" x1="404.01" x2="745.7805" y1="349" y2="349"/><ellipse cx="413.01" cy="361" fill="#84BE84" rx="2" ry="2" style="stroke:#038048;stroke-width:1.0;"/><text fill="#000000" font-family="Helvetica" font-size="14" lengthAdjust="spacing" textLength="217.123" x="417.01" y="363.7803">save(bouwsteen: Bouwsteen): void</text><ellipse cx="413.01" cy="375" fill="#84BE84" rx="2" ry="2" style="stroke:#038048;stroke-width:1.0;"/><text fill="#000000" font-family="Helvetica" font-size="14" lengthAdjust="spacing" textLength="199.2471" x="417.01" y="377.7803">delete(bouwsteenId: Long): void</text><ellipse cx="413.01" cy="389" fill="#84BE84" rx="2" ry="2" style="stroke:#038048;stroke-width:1.0;"/><text fill="#000000" font-family="Helvetica" font-size="14" lengthAdjust="spacing" textLength="323.7705" x="417.01" y="391.7803">findById(bouwsteenId: Long): Optional&lt;Bouwsteen&gt;</text></g><!--class Bouwsteen--><g id="elem_Bouwsteen"><rect codeLine="27" fill="#E0F9FF" height="62" id="Bouwsteen" rx="2.5" ry="2.5" style="stroke:#000000;stroke-width:2.0;" width="132.8271" x="511.48" y="474"/><ellipse cx="532.8475" cy="487" fill="#B4A7E5" rx="5" ry="5" style="stroke:#181818;stroke-width:1.0;"/><path d="M531.0194,485.1836 L531.0194,484.168 L534.4921,484.168 L534.4921,485.1836 L533.3319,485.1836 L533.3319,488.9844 L534.4921,488.9844 L534.4921,490 L531.0194,490 L531.0194,488.9844 L532.1796,488.9844 L532.1796,485.1836 Z " fill="#000000"/><text fill="#000000" font-family="Helvetica" font-size="16" font-style="italic" font-weight="bold" lengthAdjust="spacing" textLength="85.3438" x="543.5959" y="491.3203">Bouwsteen</text><line style="stroke:#000000;stroke-width:2.0;" x1="512.48" x2="643.3071" y1="500" y2="500"/><ellipse cx="521.48" cy="512" fill="#84BE84" rx="2" ry="2" style="stroke:#038048;stroke-width:1.0;"/><text fill="#000000" font-family="Helvetica" font-size="14" lengthAdjust="spacing" textLength="104.2617" x="525.48" y="514.7803">getType(): String</text><ellipse cx="521.48" cy="526" fill="#84BE84" rx="2" ry="2" style="stroke:#038048;stroke-width:1.0;"/><text fill="#000000" font-family="Helvetica" font-size="14" lengthAdjust="spacing" textLength="112.8271" x="525.48" y="528.7803">toonDetails(): void</text></g><!--class Overnachting--><g id="elem_Overnachting"><rect codeLine="32" fill="#E0F9FF" height="62" id="Overnachting" rx="2.5" ry="2.5" style="stroke:#000000;stroke-width:2.0;" width="132.8271" x="259.48" y="611"/><ellipse cx="272.8425" cy="624" fill="#ADD1B2" rx="5" ry="5" style="stroke:#181818;stroke-width:1.0;"/><path d="M273.5651,626.832 Q273.2917,626.9727 272.9909,627.043 Q272.6901,627.1133 272.3581,627.1133 Q271.1784,627.1133 270.5573,626.3359 Q269.9362,625.5586 269.9362,624.0898 Q269.9362,622.6172 270.5573,621.8398 Q271.1784,621.0625 272.3581,621.0625 Q272.6901,621.0625 272.9948,621.1328 Q273.2995,621.2031 273.5651,621.3438 L273.5651,622.625 Q273.2682,622.3516 272.9889,622.2246 Q272.7096,622.0977 272.4128,622.0977 Q271.78,622.0977 271.4577,622.5996 Q271.1354,623.1016 271.1354,624.0898 Q271.1354,625.0742 271.4577,625.5762 Q271.78,626.0781 272.4128,626.0781 Q272.7096,626.0781 272.9889,625.9512 Q273.2682,625.8242 273.5651,625.5508 Z " fill="#000000"/><text fill="#000000" font-family="Helvetica" font-size="16" font-weight="bold" lengthAdjust="spacing" textLength="103.1328" x="281.8119" y="628.3203">Overnachting</text><line style="stroke:#000000;stroke-width:2.0;" x1="260.48" x2="391.3071" y1="637" y2="637"/><ellipse cx="269.48" cy="649" fill="#84BE84" rx="2" ry="2" style="stroke:#038048;stroke-width:1.0;"/><text fill="#000000" font-family="Helvetica" font-size="14" lengthAdjust="spacing" textLength="104.2617" x="273.48" y="651.7803">getType(): String</text><ellipse cx="269.48" cy="663" fill="#84BE84" rx="2" ry="2" style="stroke:#038048;stroke-width:1.0;"/><text fill="#000000" font-family="Helvetica" font-size="14" lengthAdjust="spacing" textLength="112.8271" x="273.48" y="665.7803">toonDetails(): void</text></g><!--class Vervoer--><g id="elem_Vervoer"><rect codeLine="37" fill="#E0F9FF" height="62" id="Vervoer" rx="2.5" ry="2.5" style="stroke:#000000;stroke-width:2.0;" width="132.8271" x="467.48" y="611"/><ellipse cx="501.3467" cy="624" fill="#ADD1B2" rx="5" ry="5" style="stroke:#181818;stroke-width:1.0;"/><path d="M502.0694,626.832 Q501.7959,626.9727 501.4951,627.043 Q501.1944,627.1133 500.8623,627.1133 Q499.6826,627.1133 499.0615,626.3359 Q498.4404,625.5586 498.4404,624.0898 Q498.4404,622.6172 499.0615,621.8398 Q499.6826,621.0625 500.8623,621.0625 Q501.1944,621.0625 501.499,621.1328 Q501.8037,621.2031 502.0694,621.3438 L502.0694,622.625 Q501.7725,622.3516 501.4932,622.2246 Q501.2139,622.0977 500.917,622.0977 Q500.2842,622.0977 499.9619,622.5996 Q499.6397,623.1016 499.6397,624.0898 Q499.6397,625.0742 499.9619,625.5762 Q500.2842,626.0781 500.917,626.0781 Q501.2139,626.0781 501.4932,625.9512 Q501.7725,625.8242 502.0694,625.5508 Z " fill="#000000"/><text fill="#000000" font-family="Helvetica" font-size="16" font-weight="bold" lengthAdjust="spacing" textLength="59.5938" x="512.8467" y="628.3203">Vervoer</text><line style="stroke:#000000;stroke-width:2.0;" x1="468.48" x2="599.3071" y1="637" y2="637"/><ellipse cx="477.48" cy="649" fill="#84BE84" rx="2" ry="2" style="stroke:#038048;stroke-width:1.0;"/><text fill="#000000" font-family="Helvetica" font-size="14" lengthAdjust="spacing" textLength="104.2617" x="481.48" y="651.7803">getType(): String</text><ellipse cx="477.48" cy="663" fill="#84BE84" rx="2" ry="2" style="stroke:#038048;stroke-width:1.0;"/><text fill="#000000" font-family="Helvetica" font-size="14" lengthAdjust="spacing" textLength="112.8271" x="481.48" y="665.7803">toonDetails(): void</text></g><!--reverse link Bouwsteen to Overnachting--><g id="link_Bouwsteen_Overnachting"><path codeLine="42" d="M505.1646,544.9622 C463.7946,567.1322 423.88,588.51 382.56,610.65 " fill="none" id="Bouwsteen-backto-Overnachting" style="stroke:#000000;stroke-width:1.1;"/><polygon fill="none" points="521.03,536.46,502.3305,539.6737,507.9986,550.2507,521.03,536.46" style="stroke:#000000;stroke-width:1.1;"/><text fill="#000000" font-family="Helvetica" font-size="13" lengthAdjust="spacing" textLength="66.4663" x="460.45" y="577.0103">implements</text></g><!--reverse link Bouwsteen to Vervoer--><g id="link_Bouwsteen_Vervoer"><path codeLine="43" d="M562.4389,553.4129 C555.1889,575.6429 550.98,588.59 543.74,610.8 " fill="none" id="Bouwsteen-backto-Vervoer" style="stroke:#000000;stroke-width:1.1;"/><polygon fill="none" points="568.02,536.3,556.7346,551.5525,568.1432,555.2733,568.02,536.3" style="stroke:#000000;stroke-width:1.1;"/><text fill="#000000" font-family="Helvetica" font-size="13" lengthAdjust="spacing" textLength="66.4663" x="558.21" y="577.0103">implements</text></g><!--link BouwsteenController to BouwsteenFactory--><g id="link_BouwsteenController_BouwsteenFactory"><path codeLine="45" d="M289.67,97.48 C278.58,191.81 253.7406,403.211 245.3306,474.741 " fill="none" id="BouwsteenController-to-BouwsteenFactory" style="stroke:#000000;stroke-width:1.1;stroke-dasharray:7.0,7.0;"/><polygon fill="#000000" points="244.63,480.7,249.6536,472.2286,245.2138,475.7342,241.7083,471.2945,244.63,480.7" style="stroke:#000000;stroke-width:1.1;"/><text fill="#000000" font-family="Helvetica" font-size="13" lengthAdjust="spacing" textLength="27.46" x="269.4" y="289.0103">uses</text></g><!--link BouwsteenFactory to Overnachting--><g id="link_BouwsteenFactory_Overnachting"><path codeLine="46" d="M254.18,529.33 C262.25,544.31 273.26,564.06 283.9,581 C290.05,590.8 293.6794,596.3015 300.2594,605.6615 " fill="none" id="BouwsteenFactory-to-Overnachting" style="stroke:#000000;stroke-width:1.1;stroke-dasharray:7.0,7.0;"/><polygon fill="#000000" points="303.71,610.57,301.8064,600.9069,300.8345,606.4796,295.2617,605.5077,303.71,610.57" style="stroke:#000000;stroke-width:1.1;"/><text fill="#000000" font-family="Helvetica" font-size="13" lengthAdjust="spacing" textLength="42.6309" x="284.9" y="577.0103">creates</text></g><!--link BouwsteenFactory to Vervoer--><g id="link_BouwsteenFactory_Vervoer"><path codeLine="47" d="M286.82,529.4 C316.43,544.6 356.2,564.55 391.9,581 C416.2,592.2 437.6555,601.4828 461.5155,611.4728 " fill="none" id="BouwsteenFactory-to-Vervoer" style="stroke:#000000;stroke-width:1.1;stroke-dasharray:7.0,7.0;"/><polygon fill="#000000" points="467.05,613.79,460.2931,606.6245,462.4379,611.859,457.2035,614.0038,467.05,613.79" style="stroke:#000000;stroke-width:1.1;"/><text fill="#000000" font-family="Helvetica" font-size="13" lengthAdjust="spacing" textLength="42.6309" x="392.9" y="577.0103">creates</text></g><!--link BouwsteenController to BouwsteenService--><g id="link_BouwsteenController_BouwsteenService"><path codeLine="48" d="M372.19,97.49 C412.87,120.91 456.9799,146.3068 495.6699,168.5768 " fill="none" id="BouwsteenController-to-BouwsteenService" style="stroke:#000000;stroke-width:1.1;stroke-dasharray:7.0,7.0;"/><polygon fill="#000000" points="500.87,171.57,495.0653,163.6135,496.5366,169.0757,491.0744,170.547,500.87,171.57" style="stroke:#000000;stroke-width:1.1;"/><text fill="#000000" font-family="Helvetica" font-size="13" lengthAdjust="spacing" textLength="56.3799" x="447.62" y="138.0103">delegates</text></g><!--link BouwsteenService to BouwsteenRepository--><g id="link_BouwsteenService_BouwsteenRepository"><path codeLine="49" d="M568.14,248.21 C569.52,270.97 570.9069,293.991 572.2869,316.751 " fill="none" id="BouwsteenService-to-BouwsteenRepository" style="stroke:#000000;stroke-width:1.1;stroke-dasharray:7.0,7.0;"/><polygon fill="#000000" points="572.65,322.74,576.098,313.5144,572.3474,317.7492,568.1126,313.9986,572.65,322.74" style="stroke:#000000;stroke-width:1.1;"/><text fill="#000000" font-family="Helvetica" font-size="13" lengthAdjust="spacing" textLength="27.46" x="571.67" y="289.0103">uses</text></g><!--link BouwsteenRepository to Bouwsteen--><g id="link_BouwsteenRepository_Bouwsteen"><path codeLine="50" d="M575.68,399.31 C576.17,422.48 576.6631,445.8913 577.1231,467.6313 " fill="none" id="BouwsteenRepository-to-Bouwsteen" style="stroke:#000000;stroke-width:1.1;stroke-dasharray:7.0,7.0;"/><polygon fill="#000000" points="577.25,473.63,581.0587,464.5474,577.1442,468.6311,573.0605,464.7166,577.25,473.63" style="stroke:#000000;stroke-width:1.1;"/><text fill="#000000" font-family="Helvetica" font-size="13" lengthAdjust="spacing" textLength="45.5381" x="577.58" y="440.0103">handles</text></g><!--SRC=[hLJ1Zfim4Btp5UwDg0tSKHIfkssbbRQAb8roT-m9U6LirnuIeRR_NhF4O4AsxQhbX6RUl7dpxF4xePXiE90AqRWYpoqzPwN0gZaq3YpJ2a5XndITCqkFk6IQWysDf0gRMYuTjX9SNbEXyl3V8LIVoG8mIPYapf4xtPmT0gXxpsorb639zuJux_r9GpcaTnfI2zyQS5YCHTi-iYZ85fpHoi5dXGBRrO1ONxZ0diMprp4aqaFuU-05UK8hL3ddsMl1BnGLfNAetfY_gx_MqP5yz4DUugfZscjjTrQOr7EOtv4z2eSHuphvENFn2sMeRHiiP1OemZWpjWO2_mV20QcGhY1VgLc5uERm30pNYyZb6tsUm9u4W__SvuMBWuIOQ-BpetunvkIFfKUNW0FqhdtWD-4RWq8hAkFZcC-q1QETYErpz0GZOQHq8g4N_0UTHw7uM_KbmY-RFLBlyv08qlpSEszokWWszs7KMdtgxKv3_s7IZTy2HLc57lulF7j_-7hSqxTHZ9EiVYoNKqq54RMHKFiNnbq3GzC99hdrV6JPUhuG1V7FLqGQuXtuIaD_cL_1ZZ9ciDSaX5qfI7TJocbHI4ugefjuhJjAJKeyiAAA-_Ss-GK0]--></g></svg>