<svg xmlns="http://www.w3.org/2000/svg" xmlns:xlink="http://www.w3.org/1999/xlink" contentStyleType="text/css" height="680px" preserveAspectRatio="none" style="width:1156px;height:680px;background:#FFFFFF;" version="1.1" viewBox="0 0 1156 680" width="1156px" zoomAndPan="magnify"><defs/><g><!--class BouwsteenFactory--><g id="elem_BouwsteenFactory"><rect codeLine="3" fill="#E0F9FF" height="48" id="BouwsteenFactory" rx="2.5" ry="2.5" style="stroke:#000000;stroke-width:2.0;" width="391.1982" x="380" y="337"/><ellipse cx="501.2788" cy="350" fill="#B4A7E5" rx="5" ry="5" style="stroke:#181818;stroke-width:1.0;"/><path d="M499.4507,348.1836 L499.4507,347.168 L502.9233,347.168 L502.9233,348.1836 L501.7632,348.1836 L501.7632,351.9844 L502.9233,351.9844 L502.9233,353 L499.4507,353 L499.4507,351.9844 L500.6108,351.9844 L500.6108,348.1836 Z " fill="#000000"/><text fill="#000000" font-family="Helvetica" font-size="16" font-style="italic" font-weight="bold" lengthAdjust="spacing" textLength="143.1406" x="512.7788" y="354.3203">BouwsteenFactory</text><line style="stroke:#000000;stroke-width:2.0;" x1="381" x2="770.1982" y1="363" y2="363"/><ellipse cx="390" cy="375" fill="#84BE84" rx="2" ry="2" style="stroke:#038048;stroke-width:1.0;"/><text fill="#000000" font-family="Helvetica" font-size="14" lengthAdjust="spacing" textLength="371.1982" x="394" y="377.7803">createBouwsteen(details: Map&lt;String, Object&gt;): Bouwsteen</text></g><!--class OvernachtingFactory--><g id="elem_OvernachtingFactory"><rect codeLine="7" fill="#E0F9FF" height="48" id="OvernachtingFactory" rx="2.5" ry="2.5" style="stroke:#000000;stroke-width:2.0;" width="391.1982" x="7" y="481"/><ellipse cx="119.3843" cy="494" fill="#ADD1B2" rx="5" ry="5" style="stroke:#181818;stroke-width:1.0;"/><path d="M120.1069,496.832 Q119.8335,496.9727 119.5327,497.043 Q119.2319,497.1133 118.8999,497.1133 Q117.7202,497.1133 117.0991,496.3359 Q116.478,495.5586 116.478,494.0898 Q116.478,492.6172 117.0991,491.8398 Q117.7202,491.0625 118.8999,491.0625 Q119.2319,491.0625 119.5366,491.1328 Q119.8413,491.2031 120.1069,491.3438 L120.1069,492.625 Q119.8101,492.3516 119.5308,492.2246 Q119.2515,492.0977 118.9546,492.0977 Q118.3218,492.0977 117.9995,492.5996 Q117.6772,493.1016 117.6772,494.0898 Q117.6772,495.0742 117.9995,495.5762 Q118.3218,496.0781 118.9546,496.0781 Q119.2515,496.0781 119.5308,495.9512 Q119.8101,495.8242 120.1069,495.5508 Z " fill="#000000"/><text fill="#000000" font-family="Helvetica" font-size="16" font-weight="bold" lengthAdjust="spacing" textLength="160.9297" x="130.8843" y="498.3203">OvernachtingFactory</text><line style="stroke:#000000;stroke-width:2.0;" x1="8" x2="397.1982" y1="507" y2="507"/><ellipse cx="17" cy="519" fill="#84BE84" rx="2" ry="2" style="stroke:#038048;stroke-width:1.0;"/><text fill="#000000" font-family="Helvetica" font-size="14" lengthAdjust="spacing" textLength="371.1982" x="21" y="521.7803">createBouwsteen(details: Map&lt;String, Object&gt;): Bouwsteen</text></g><!--class VervoerFactory--><g id="elem_VervoerFactory"><rect codeLine="11" fill="#E0F9FF" height="48" id="VervoerFactory" rx="2.5" ry="2.5" style="stroke:#000000;stroke-width:2.0;" width="391.1982" x="433" y="481"/><ellipse cx="567.1538" cy="494" fill="#ADD1B2" rx="5" ry="5" style="stroke:#181818;stroke-width:1.0;"/><path d="M567.8765,496.832 Q567.603,496.9727 567.3022,497.043 Q567.0015,497.1133 566.6694,497.1133 Q565.4897,497.1133 564.8687,496.3359 Q564.2476,495.5586 564.2476,494.0898 Q564.2476,492.6172 564.8687,491.8398 Q565.4897,491.0625 566.6694,491.0625 Q567.0015,491.0625 567.3062,491.1328 Q567.6108,491.2031 567.8765,491.3438 L567.8765,492.625 Q567.5796,492.3516 567.3003,492.2246 Q567.021,492.0977 566.7241,492.0977 Q566.0913,492.0977 565.769,492.5996 Q565.4468,493.1016 565.4468,494.0898 Q565.4468,495.0742 565.769,495.5762 Q566.0913,496.0781 566.7241,496.0781 Q567.021,496.0781 567.3003,495.9512 Q567.5796,495.8242 567.8765,495.5508 Z " fill="#000000"/><text fill="#000000" font-family="Helvetica" font-size="16" font-weight="bold" lengthAdjust="spacing" textLength="117.3906" x="578.6538" y="498.3203">VervoerFactory</text><line style="stroke:#000000;stroke-width:2.0;" x1="434" x2="823.1982" y1="507" y2="507"/><ellipse cx="443" cy="519" fill="#84BE84" rx="2" ry="2" style="stroke:#038048;stroke-width:1.0;"/><text fill="#000000" font-family="Helvetica" font-size="14" lengthAdjust="spacing" textLength="371.1982" x="447" y="521.7803">createBouwsteen(details: Map&lt;String, Object&gt;): Bouwsteen</text></g><!--class BouwsteenController--><g id="elem_BouwsteenController"><rect codeLine="15" fill="#E0F9FF" height="90" id="BouwsteenController" rx="2.5" ry="2.5" style="stroke:#000000;stroke-width:2.0;" width="533.6182" x="508.79" y="7"/><ellipse cx="691.9546" cy="20" fill="#ADD1B2" rx="5" ry="5" style="stroke:#181818;stroke-width:1.0;"/><path d="M692.6772,22.832 Q692.4038,22.9727 692.103,23.043 Q691.8022,23.1133 691.4702,23.1133 Q690.2905,23.1133 689.6694,22.3359 Q689.0483,21.5586 689.0483,20.0898 Q689.0483,18.6172 689.6694,17.8398 Q690.2905,17.0625 691.4702,17.0625 Q691.8022,17.0625 692.1069,17.1328 Q692.4116,17.2031 692.6772,17.3438 L692.6772,18.625 Q692.3803,18.3516 692.101,18.2246 Q691.8217,18.0977 691.5249,18.0977 Q690.8921,18.0977 690.5698,18.5996 Q690.2475,19.1016 690.2475,20.0898 Q690.2475,21.0742 690.5698,21.5762 Q690.8921,22.0781 691.5249,22.0781 Q691.8217,22.0781 692.101,21.9512 Q692.3803,21.8242 692.6772,21.5508 Z " fill="#000000"/><text fill="#000000" font-family="Helvetica" font-size="16" font-weight="bold" lengthAdjust="spacing" textLength="161.7891" x="703.4546" y="24.3203">BouwsteenController</text><line style="stroke:#000000;stroke-width:2.0;" x1="509.79" x2="1041.4082" y1="33" y2="33"/><ellipse cx="518.79" cy="45" fill="#84BE84" rx="2" ry="2" style="stroke:#038048;stroke-width:1.0;"/><text fill="#000000" font-family="Helvetica" font-size="14" lengthAdjust="spacing" textLength="500.418" x="522.79" y="47.7803">voegBouwsteenToe(request: BouwsteenRequest): ResponseEntity&lt;Bouwsteen&gt;</text><ellipse cx="518.79" cy="59" fill="#84BE84" rx="2" ry="2" style="stroke:#038048;stroke-width:1.0;"/><text fill="#000000" font-family="Helvetica" font-size="14" lengthAdjust="spacing" textLength="408.5566" x="522.79" y="61.7803">verwijderBouwsteen(bouwsteenId: String): ResponseEntity&lt;Void&gt;</text><ellipse cx="518.79" cy="73" fill="#84BE84" rx="2" ry="2" style="stroke:#038048;stroke-width:1.0;"/><text fill="#000000" font-family="Helvetica" font-size="14" lengthAdjust="spacing" textLength="438.9355" x="522.79" y="75.7803">haalBouwsteenOp(bouwsteenId: String): ResponseEntity&lt;Bouwsteen&gt;</text><ellipse cx="518.79" cy="87" fill="#84BE84" rx="2" ry="2" style="stroke:#038048;stroke-width:1.0;"/><text fill="#000000" font-family="Helvetica" font-size="14" lengthAdjust="spacing" textLength="513.6182" x="522.79" y="89.7803">haalAlleBouwstenenOpVoorTrip(tripId: String): ResponseEntity&lt;List&lt;Bouwsteen&gt;&gt;</text></g><!--class BouwsteenService--><g id="elem_BouwsteenService"><rect codeLine="22" fill="#E0F9FF" height="76" id="BouwsteenService" rx="2.5" ry="2.5" style="stroke:#000000;stroke-width:2.0;" width="564.7148" x="493.24" y="172"/><ellipse cx="701.7068" cy="185" fill="#ADD1B2" rx="5" ry="5" style="stroke:#181818;stroke-width:1.0;"/><path d="M702.4295,187.832 Q702.156,187.9727 701.8552,188.043 Q701.5545,188.1133 701.2224,188.1133 Q700.0427,188.1133 699.4216,187.3359 Q698.8005,186.5586 698.8005,185.0898 Q698.8005,183.6172 699.4216,182.8398 Q700.0427,182.0625 701.2224,182.0625 Q701.5545,182.0625 701.8591,182.1328 Q702.1638,182.2031 702.4295,182.3438 L702.4295,183.625 Q702.1326,183.3516 701.8533,183.2246 Q701.574,183.0977 701.2771,183.0977 Q700.6443,183.0977 700.322,183.5996 Q699.9998,184.1016 699.9998,185.0898 Q699.9998,186.0742 700.322,186.5762 Q700.6443,187.0781 701.2771,187.0781 Q701.574,187.0781 701.8533,186.9512 Q702.1326,186.8242 702.4295,186.5508 Z " fill="#000000"/><text fill="#000000" font-family="Helvetica" font-size="16" font-weight="bold" lengthAdjust="spacing" textLength="142.2813" x="713.2068" y="189.3203">BouwsteenService</text><line style="stroke:#000000;stroke-width:2.0;" x1="494.24" x2="1056.9548" y1="198" y2="198"/><ellipse cx="503.24" cy="210" fill="#84BE84" rx="2" ry="2" style="stroke:#038048;stroke-width:1.0;"/><text fill="#000000" font-family="Helvetica" font-size="14" lengthAdjust="spacing" textLength="544.7148" x="507.24" y="212.7803">createBouwsteen(factory: BouwsteenFactory, details: Map&lt;String, Object&gt;): Bouwsteen</text><ellipse cx="503.24" cy="224" fill="#84BE84" rx="2" ry="2" style="stroke:#038048;stroke-width:1.0;"/><text fill="#000000" font-family="Helvetica" font-size="14" lengthAdjust="spacing" textLength="268.5156" x="507.24" y="226.7803">deleteBouwsteen(bouwsteenId: Long): void</text><ellipse cx="503.24" cy="238" fill="#84BE84" rx="2" ry="2" style="stroke:#038048;stroke-width:1.0;"/><text fill="#000000" font-family="Helvetica" font-size="14" lengthAdjust="spacing" textLength="389.9287" x="507.24" y="240.7803">getBouwsteenById(bouwsteenId: Long): Optional&lt;Bouwsteen&gt;</text></g><!--class BouwsteenRepository--><g id="elem_BouwsteenRepository"><rect codeLine="28" fill="#E0F9FF" height="76" id="BouwsteenRepository" rx="2.5" ry="2.5" style="stroke:#000000;stroke-width:2.0;" width="343.7705" x="805.71" y="323"/><ellipse cx="890.3882" cy="336" fill="#ADD1B2" rx="5" ry="5" style="stroke:#181818;stroke-width:1.0;"/><path d="M891.1109,338.832 Q890.8374,338.9727 890.5367,339.043 Q890.2359,339.1133 889.9038,339.1133 Q888.7242,339.1133 888.1031,338.3359 Q887.482,337.5586 887.482,336.0898 Q887.482,334.6172 888.1031,333.8398 Q888.7242,333.0625 889.9038,333.0625 Q890.2359,333.0625 890.5406,333.1328 Q890.8453,333.2031 891.1109,333.3438 L891.1109,334.625 Q890.814,334.3516 890.5347,334.2246 Q890.2554,334.0977 889.9585,334.0977 Q889.3257,334.0977 889.0035,334.5996 Q888.6812,335.1016 888.6812,336.0898 Q888.6812,337.0742 889.0035,337.5762 Q889.3257,338.0781 889.9585,338.0781 Q890.2554,338.0781 890.5347,337.9512 Q890.814,337.8242 891.1109,337.5508 Z " fill="#000000"/><text fill="#000000" font-family="Helvetica" font-size="16" font-weight="bold" lengthAdjust="spacing" textLength="168.9141" x="901.8882" y="340.3203">BouwsteenRepository</text><line style="stroke:#000000;stroke-width:2.0;" x1="806.71" x2="1148.4805" y1="349" y2="349"/><ellipse cx="815.71" cy="361" fill="#84BE84" rx="2" ry="2" style="stroke:#038048;stroke-width:1.0;"/><text fill="#000000" font-family="Helvetica" font-size="14" lengthAdjust="spacing" textLength="217.123" x="819.71" y="363.7803">save(bouwsteen: Bouwsteen): void</text><ellipse cx="815.71" cy="375" fill="#84BE84" rx="2" ry="2" style="stroke:#038048;stroke-width:1.0;"/><text fill="#000000" font-family="Helvetica" font-size="14" lengthAdjust="spacing" textLength="199.2471" x="819.71" y="377.7803">delete(bouwsteenId: Long): void</text><ellipse cx="815.71" cy="389" fill="#84BE84" rx="2" ry="2" style="stroke:#038048;stroke-width:1.0;"/><text fill="#000000" font-family="Helvetica" font-size="14" lengthAdjust="spacing" textLength="323.7705" x="819.71" y="391.7803">findById(bouwsteenId: Long): Optional&lt;Bouwsteen&gt;</text></g><!--class Bouwsteen--><g id="elem_Bouwsteen"><rect codeLine="34" fill="#E0F9FF" height="62" id="Bouwsteen" rx="2.5" ry="2.5" style="stroke:#000000;stroke-width:2.0;" width="132.8271" x="911.19" y="474"/><ellipse cx="932.5575" cy="487" fill="#B4A7E5" rx="5" ry="5" style="stroke:#181818;stroke-width:1.0;"/><path d="M930.7294,485.1836 L930.7294,484.168 L934.2021,484.168 L934.2021,485.1836 L933.0419,485.1836 L933.0419,488.9844 L934.2021,488.9844 L934.2021,490 L930.7294,490 L930.7294,488.9844 L931.8896,488.9844 L931.8896,485.1836 Z " fill="#000000"/><text fill="#000000" font-family="Helvetica" font-size="16" font-style="italic" font-weight="bold" lengthAdjust="spacing" textLength="85.3438" x="943.3059" y="491.3203">Bouwsteen</text><line style="stroke:#000000;stroke-width:2.0;" x1="912.19" x2="1043.0171" y1="500" y2="500"/><ellipse cx="921.19" cy="512" fill="#84BE84" rx="2" ry="2" style="stroke:#038048;stroke-width:1.0;"/><text fill="#000000" font-family="Helvetica" font-size="14" lengthAdjust="spacing" textLength="104.2617" x="925.19" y="514.7803">getType(): String</text><ellipse cx="921.19" cy="526" fill="#84BE84" rx="2" ry="2" style="stroke:#038048;stroke-width:1.0;"/><text fill="#000000" font-family="Helvetica" font-size="14" lengthAdjust="spacing" textLength="112.8271" x="925.19" y="528.7803">toonDetails(): void</text></g><!--class Overnachting--><g id="elem_Overnachting"><rect codeLine="39" fill="#E0F9FF" height="62" id="Overnachting" rx="2.5" ry="2.5" style="stroke:#000000;stroke-width:2.0;" width="132.8271" x="827.19" y="611"/><ellipse cx="840.5525" cy="624" fill="#ADD1B2" rx="5" ry="5" style="stroke:#181818;stroke-width:1.0;"/><path d="M841.2751,626.832 Q841.0017,626.9727 840.7009,627.043 Q840.4001,627.1133 840.0681,627.1133 Q838.8884,627.1133 838.2673,626.3359 Q837.6462,625.5586 837.6462,624.0898 Q837.6462,622.6172 838.2673,621.8398 Q838.8884,621.0625 840.0681,621.0625 Q840.4001,621.0625 840.7048,621.1328 Q841.0095,621.2031 841.2751,621.3438 L841.2751,622.625 Q840.9782,622.3516 840.6989,622.2246 Q840.4196,622.0977 840.1228,622.0977 Q839.49,622.0977 839.1677,622.5996 Q838.8454,623.1016 838.8454,624.0898 Q838.8454,625.0742 839.1677,625.5762 Q839.49,626.0781 840.1228,626.0781 Q840.4196,626.0781 840.6989,625.9512 Q840.9782,625.8242 841.2751,625.5508 Z " fill="#000000"/><text fill="#000000" font-family="Helvetica" font-size="16" font-weight="bold" lengthAdjust="spacing" textLength="103.1328" x="849.5219" y="628.3203">Overnachting</text><line style="stroke:#000000;stroke-width:2.0;" x1="828.19" x2="959.0171" y1="637" y2="637"/><ellipse cx="837.19" cy="649" fill="#84BE84" rx="2" ry="2" style="stroke:#038048;stroke-width:1.0;"/><text fill="#000000" font-family="Helvetica" font-size="14" lengthAdjust="spacing" textLength="104.2617" x="841.19" y="651.7803">getType(): String</text><ellipse cx="837.19" cy="663" fill="#84BE84" rx="2" ry="2" style="stroke:#038048;stroke-width:1.0;"/><text fill="#000000" font-family="Helvetica" font-size="14" lengthAdjust="spacing" textLength="112.8271" x="841.19" y="665.7803">toonDetails(): void</text></g><!--class Vervoer--><g id="elem_Vervoer"><rect codeLine="44" fill="#E0F9FF" height="62" id="Vervoer" rx="2.5" ry="2.5" style="stroke:#000000;stroke-width:2.0;" width="132.8271" x="995.19" y="611"/><ellipse cx="1029.0567" cy="624" fill="#ADD1B2" rx="5" ry="5" style="stroke:#181818;stroke-width:1.0;"/><path d="M1029.7794,626.832 Q1029.5059,626.9727 1029.2051,627.043 Q1028.9044,627.1133 1028.5723,627.1133 Q1027.3926,627.1133 1026.7715,626.3359 Q1026.1504,625.5586 1026.1504,624.0898 Q1026.1504,622.6172 1026.7715,621.8398 Q1027.3926,621.0625 1028.5723,621.0625 Q1028.9044,621.0625 1029.209,621.1328 Q1029.5137,621.2031 1029.7794,621.3438 L1029.7794,622.625 Q1029.4825,622.3516 1029.2032,622.2246 Q1028.9239,622.0977 1028.627,622.0977 Q1027.9942,622.0977 1027.6719,622.5996 Q1027.3497,623.1016 1027.3497,624.0898 Q1027.3497,625.0742 1027.6719,625.5762 Q1027.9942,626.0781 1028.627,626.0781 Q1028.9239,626.0781 1029.2032,625.9512 Q1029.4825,625.8242 1029.7794,625.5508 Z " fill="#000000"/><text fill="#000000" font-family="Helvetica" font-size="16" font-weight="bold" lengthAdjust="spacing" textLength="59.5938" x="1040.5567" y="628.3203">Vervoer</text><line style="stroke:#000000;stroke-width:2.0;" x1="996.19" x2="1127.0171" y1="637" y2="637"/><ellipse cx="1005.19" cy="649" fill="#84BE84" rx="2" ry="2" style="stroke:#038048;stroke-width:1.0;"/><text fill="#000000" font-family="Helvetica" font-size="14" lengthAdjust="spacing" textLength="104.2617" x="1009.19" y="651.7803">getType(): String</text><ellipse cx="1005.19" cy="663" fill="#84BE84" rx="2" ry="2" style="stroke:#038048;stroke-width:1.0;"/><text fill="#000000" font-family="Helvetica" font-size="14" lengthAdjust="spacing" textLength="112.8271" x="1009.19" y="665.7803">toonDetails(): void</text></g><!--reverse link Bouwsteen to Overnachting--><g id="link_Bouwsteen_Overnachting"><path codeLine="49" d="M949.2366,551.5806 C935.3966,573.8106 926.21,588.59 912.39,610.8 " fill="none" id="Bouwsteen-backto-Overnachting" style="stroke:#000000;stroke-width:1.1;"/><polygon fill="none" points="958.75,536.3,944.1431,548.4094,954.3301,554.7517,958.75,536.3" style="stroke:#000000;stroke-width:1.1;"/><text fill="#000000" font-family="Helvetica" font-size="13" lengthAdjust="spacing" textLength="66.4663" x="939.12" y="577.0103">implements</text></g><!--reverse link Bouwsteen to Vervoer--><g id="link_Bouwsteen_Vervoer"><path codeLine="50" d="M1005.9584,551.5836 C1019.7884,573.8136 1028.99,588.59 1042.81,610.8 " fill="none" id="Bouwsteen-backto-Vervoer" style="stroke:#000000;stroke-width:1.1;"/><polygon fill="none" points="996.45,536.3,1000.8639,554.7531,1011.053,548.4142,996.45,536.3" style="stroke:#000000;stroke-width:1.1;"/><text fill="#000000" font-family="Helvetica" font-size="13" lengthAdjust="spacing" textLength="66.4663" x="1023.12" y="577.0103">implements</text></g><!--reverse link BouwsteenFactory to OvernachtingFactory--><g id="link_BouwsteenFactory_OvernachtingFactory"><path codeLine="51" d="M497.1875,391.8534 C428.0675,418.1634 333.43,454.19 264.28,480.52 " fill="none" id="BouwsteenFactory-backto-OvernachtingFactory" style="stroke:#000000;stroke-width:1.1;"/><polygon fill="none" points="514.01,385.45,495.053,386.2459,499.3219,397.4609,514.01,385.45" style="stroke:#000000;stroke-width:1.1;"/></g><!--reverse link BouwsteenFactory to VervoerFactory--><g id="link_BouwsteenFactory_VervoerFactory"><path codeLine="52" d="M590.6442,402.3137 C600.4642,428.6237 610.01,454.19 619.83,480.52 " fill="none" id="BouwsteenFactory-backto-VervoerFactory" style="stroke:#000000;stroke-width:1.1;"/><polygon fill="none" points="584.35,385.45,585.023,404.4117,596.2654,400.2156,584.35,385.45" style="stroke:#000000;stroke-width:1.1;"/></g><!--link BouwsteenService to BouwsteenFactory--><g id="link_BouwsteenService_BouwsteenFactory"><path codeLine="54" d="M725.39,248.41 C688.25,276.08 643.6116,309.3356 611.8916,332.9656 " fill="none" id="BouwsteenService-to-BouwsteenFactory" style="stroke:#000000;stroke-width:1.1;stroke-dasharray:7.0,7.0;"/><polygon fill="#000000" points="607.08,336.55,616.6871,334.3811,611.0897,333.563,611.9078,327.9656,607.08,336.55" style="stroke:#000000;stroke-width:1.1;"/><text fill="#000000" font-family="Helvetica" font-size="13" lengthAdjust="spacing" textLength="27.46" x="682.6" y="289.0103">uses</text></g><!--link BouwsteenController to BouwsteenService--><g id="link_BouwsteenController_BouwsteenService"><path codeLine="55" d="M775.6,97.29 C775.6,120.8 775.6,143.37 775.6,165.73 " fill="none" id="BouwsteenController-to-BouwsteenService" style="stroke:#000000;stroke-width:1.1;stroke-dasharray:7.0,7.0;"/><polygon fill="#000000" points="775.6,171.73,779.6,162.73,775.6,166.73,771.6,162.73,775.6,171.73" style="stroke:#000000;stroke-width:1.1;"/><text fill="#000000" font-family="Helvetica" font-size="13" lengthAdjust="spacing" textLength="56.3799" x="776.6" y="138.0103">delegates</text></g><!--link BouwsteenService to BouwsteenRepository--><g id="link_BouwsteenService_BouwsteenRepository"><path codeLine="57" d="M826.31,248.41 C857.05,271.08 891.3019,296.3378 922.0419,319.0178 " fill="none" id="BouwsteenService-to-BouwsteenRepository" style="stroke:#000000;stroke-width:1.1;stroke-dasharray:7.0,7.0;"/><polygon fill="#000000" points="926.87,322.58,922.0026,314.018,922.8466,319.6115,917.253,320.4555,926.87,322.58" style="stroke:#000000;stroke-width:1.1;"/><text fill="#000000" font-family="Helvetica" font-size="13" lengthAdjust="spacing" textLength="27.46" x="883.66" y="289.0103">uses</text></g><!--link BouwsteenRepository to Bouwsteen--><g id="link_BouwsteenRepository_Bouwsteen"><path codeLine="58" d="M977.6,399.31 C977.6,422.48 977.6,445.89 977.6,467.63 " fill="none" id="BouwsteenRepository-to-Bouwsteen" style="stroke:#000000;stroke-width:1.1;stroke-dasharray:7.0,7.0;"/><polygon fill="#000000" points="977.6,473.63,981.6,464.63,977.6,468.63,973.6,464.63,977.6,473.63" style="stroke:#000000;stroke-width:1.1;"/><text fill="#000000" font-family="Helvetica" font-size="13" lengthAdjust="spacing" textLength="45.5381" x="978.6" y="440.0103">handles</text></g><!--SRC=[hPLDR-CW48Rl_XNipTKszjsA8ctRNQbILv7IA7U29pOL1XR6YQpk_lSbjN5mx7ut9mjUddcP6IRVk6IYpe6KYDfcQMhe8IaublMsjc2OaWWI4wQgb1cwmnbJEPXK2ognhiJCOYF0fXNbClNVHuLiTn8lZ2BkI6P76P0hLHyi0iXVbA4o3NcCYFjzPmOeGhyRvu2K2vkHtrJFxz5mMLoIvVO162ukiXCc-XT5J51hoNBl8bDMefD-ENm3Pg_0V3ctNxfsoJPA230Uxk8L_VPQGMpWJmqM0ywgNN7e5LYjf8MV4Zasyrwnw5XW3lp1bURaTUk_RlECj5x7d8tYUOSeAHNzwQL-s_bp7qV83tV9RbqUIHkbpDfm7Jk6VWbsnoq6nCL45kzTcRZhicVgislBbuswy9AykNHFu1m4XE11CkxKa_kzorshBW1xwLLpcq_AbngvabI4EHjVS0LQMHxseALxE043fmCBhU5NVEwupD_hR-9bUsVkskj6GtpXIzekerBofirsxCDFFkBFSBht-Z74wIRplxFPq5D6UAK5L6umsdEX3pgjyRDZnEmsdb4E9qzWplTwaYp6KpKZRe87mOFnCj1xI4QE7LAurs9V2n6qu7cKO6jmn0bBAdFt1n7z1m00]--></g></svg>