<svg xmlns="http://www.w3.org/2000/svg" xmlns:xlink="http://www.w3.org/1999/xlink" contentStyleType="text/css" height="688px" preserveAspectRatio="none" style="width:1199px;height:688px;background:#FFFFFF;" version="1.1" viewBox="0 0 1199 688" width="1199px" zoomAndPan="magnify"><defs/><g><!--class BouwsteenFactory--><g id="elem_BouwsteenFactory"><rect codeLine="3" fill="#E0F9FF" height="48" id="BouwsteenFactory" rx="2.5" ry="2.5" style="stroke:#000000;stroke-width:2.0;" width="391.1982" x="381" y="323"/><ellipse cx="502.2788" cy="336" fill="#B4A7E5" rx="5" ry="5" style="stroke:#181818;stroke-width:1.0;"/><path d="M500.4507,334.1836 L500.4507,333.168 L503.9233,333.168 L503.9233,334.1836 L502.7632,334.1836 L502.7632,337.9844 L503.9233,337.9844 L503.9233,339 L500.4507,339 L500.4507,337.9844 L501.6108,337.9844 L501.6108,334.1836 Z " fill="#000000"/><text fill="#000000" font-family="Helvetica" font-size="16" font-style="italic" font-weight="bold" lengthAdjust="spacing" textLength="143.1406" x="513.7788" y="340.3203">BouwsteenFactory</text><line style="stroke:#000000;stroke-width:2.0;" x1="382" x2="771.1982" y1="349" y2="349"/><ellipse cx="391" cy="361" fill="#84BE84" rx="2" ry="2" style="stroke:#038048;stroke-width:1.0;"/><text fill="#000000" font-family="Helvetica" font-size="14" lengthAdjust="spacing" textLength="371.1982" x="395" y="363.7803">createBouwsteen(details: Map&lt;String, Object&gt;): Bouwsteen</text></g><!--class OvernachtingFactory--><g id="elem_OvernachtingFactory"><rect codeLine="7" fill="#E0F9FF" height="48" id="OvernachtingFactory" rx="2.5" ry="2.5" style="stroke:#000000;stroke-width:2.0;" width="391.1982" x="7" y="467"/><ellipse cx="119.3843" cy="480" fill="#ADD1B2" rx="5" ry="5" style="stroke:#181818;stroke-width:1.0;"/><path d="M120.1069,482.832 Q119.8335,482.9727 119.5327,483.043 Q119.2319,483.1133 118.8999,483.1133 Q117.7202,483.1133 117.0991,482.3359 Q116.478,481.5586 116.478,480.0898 Q116.478,478.6172 117.0991,477.8398 Q117.7202,477.0625 118.8999,477.0625 Q119.2319,477.0625 119.5366,477.1328 Q119.8413,477.2031 120.1069,477.3438 L120.1069,478.625 Q119.8101,478.3516 119.5308,478.2246 Q119.2515,478.0977 118.9546,478.0977 Q118.3218,478.0977 117.9995,478.5996 Q117.6772,479.1016 117.6772,480.0898 Q117.6772,481.0742 117.9995,481.5762 Q118.3218,482.0781 118.9546,482.0781 Q119.2515,482.0781 119.5308,481.9512 Q119.8101,481.8242 120.1069,481.5508 Z " fill="#000000"/><text fill="#000000" font-family="Helvetica" font-size="16" font-weight="bold" lengthAdjust="spacing" textLength="160.9297" x="130.8843" y="484.3203">OvernachtingFactory</text><line style="stroke:#000000;stroke-width:2.0;" x1="8" x2="397.1982" y1="493" y2="493"/><ellipse cx="17" cy="505" fill="#84BE84" rx="2" ry="2" style="stroke:#038048;stroke-width:1.0;"/><text fill="#000000" font-family="Helvetica" font-size="14" lengthAdjust="spacing" textLength="371.1982" x="21" y="507.7803">createBouwsteen(details: Map&lt;String, Object&gt;): Bouwsteen</text></g><!--class VervoerFactory--><g id="elem_VervoerFactory"><rect codeLine="11" fill="#E0F9FF" height="48" id="VervoerFactory" rx="2.5" ry="2.5" style="stroke:#000000;stroke-width:2.0;" width="391.1982" x="433" y="467"/><ellipse cx="567.1538" cy="480" fill="#ADD1B2" rx="5" ry="5" style="stroke:#181818;stroke-width:1.0;"/><path d="M567.8765,482.832 Q567.603,482.9727 567.3022,483.043 Q567.0015,483.1133 566.6694,483.1133 Q565.4897,483.1133 564.8687,482.3359 Q564.2476,481.5586 564.2476,480.0898 Q564.2476,478.6172 564.8687,477.8398 Q565.4897,477.0625 566.6694,477.0625 Q567.0015,477.0625 567.3062,477.1328 Q567.6108,477.2031 567.8765,477.3438 L567.8765,478.625 Q567.5796,478.3516 567.3003,478.2246 Q567.021,478.0977 566.7241,478.0977 Q566.0913,478.0977 565.769,478.5996 Q565.4468,479.1016 565.4468,480.0898 Q565.4468,481.0742 565.769,481.5762 Q566.0913,482.0781 566.7241,482.0781 Q567.021,482.0781 567.3003,481.9512 Q567.5796,481.8242 567.8765,481.5508 Z " fill="#000000"/><text fill="#000000" font-family="Helvetica" font-size="16" font-weight="bold" lengthAdjust="spacing" textLength="117.3906" x="578.6538" y="484.3203">VervoerFactory</text><line style="stroke:#000000;stroke-width:2.0;" x1="434" x2="823.1982" y1="493" y2="493"/><ellipse cx="443" cy="505" fill="#84BE84" rx="2" ry="2" style="stroke:#038048;stroke-width:1.0;"/><text fill="#000000" font-family="Helvetica" font-size="14" lengthAdjust="spacing" textLength="371.1982" x="447" y="507.7803">createBouwsteen(details: Map&lt;String, Object&gt;): Bouwsteen</text></g><!--class BouwsteenController--><g id="elem_BouwsteenController"><rect codeLine="15" fill="#E0F9FF" height="76" id="BouwsteenController" rx="2.5" ry="2.5" style="stroke:#000000;stroke-width:2.0;" width="520.418" x="516.39" y="7"/><ellipse cx="692.9545" cy="20" fill="#ADD1B2" rx="5" ry="5" style="stroke:#181818;stroke-width:1.0;"/><path d="M693.6771,22.832 Q693.4037,22.9727 693.1029,23.043 Q692.8021,23.1133 692.4701,23.1133 Q691.2904,23.1133 690.6693,22.3359 Q690.0482,21.5586 690.0482,20.0898 Q690.0482,18.6172 690.6693,17.8398 Q691.2904,17.0625 692.4701,17.0625 Q692.8021,17.0625 693.1068,17.1328 Q693.4115,17.2031 693.6771,17.3438 L693.6771,18.625 Q693.3802,18.3516 693.1009,18.2246 Q692.8216,18.0977 692.5248,18.0977 Q691.892,18.0977 691.5697,18.5996 Q691.2474,19.1016 691.2474,20.0898 Q691.2474,21.0742 691.5697,21.5762 Q691.892,22.0781 692.5248,22.0781 Q692.8216,22.0781 693.1009,21.9512 Q693.3802,21.8242 693.6771,21.5508 Z " fill="#000000"/><text fill="#000000" font-family="Helvetica" font-size="16" font-weight="bold" lengthAdjust="spacing" textLength="161.7891" x="704.4545" y="24.3203">BouwsteenController</text><line style="stroke:#000000;stroke-width:2.0;" x1="517.39" x2="1035.808" y1="33" y2="33"/><ellipse cx="526.39" cy="45" fill="#84BE84" rx="2" ry="2" style="stroke:#038048;stroke-width:1.0;"/><text fill="#000000" font-family="Helvetica" font-size="14" lengthAdjust="spacing" textLength="500.418" x="530.39" y="47.7803">voegBouwsteenToe(request: BouwsteenRequest): ResponseEntity&lt;Bouwsteen&gt;</text><ellipse cx="526.39" cy="59" fill="#84BE84" rx="2" ry="2" style="stroke:#038048;stroke-width:1.0;"/><text fill="#000000" font-family="Helvetica" font-size="14" lengthAdjust="spacing" textLength="408.5566" x="530.39" y="61.7803">verwijderBouwsteen(bouwsteenId: String): ResponseEntity&lt;Void&gt;</text><ellipse cx="526.39" cy="73" fill="#84BE84" rx="2" ry="2" style="stroke:#038048;stroke-width:1.0;"/><text fill="#000000" font-family="Helvetica" font-size="14" lengthAdjust="spacing" textLength="438.9355" x="530.39" y="75.7803">haalBouwsteenOp(bouwsteenId: String): ResponseEntity&lt;Bouwsteen&gt;</text></g><!--class BouwsteenService--><g id="elem_BouwsteenService"><rect codeLine="21" fill="#E0F9FF" height="76" id="BouwsteenService" rx="2.5" ry="2.5" style="stroke:#000000;stroke-width:2.0;" width="564.7148" x="494.24" y="158"/><ellipse cx="702.7068" cy="171" fill="#ADD1B2" rx="5" ry="5" style="stroke:#181818;stroke-width:1.0;"/><path d="M703.4295,173.832 Q703.156,173.9727 702.8552,174.043 Q702.5545,174.1133 702.2224,174.1133 Q701.0427,174.1133 700.4216,173.3359 Q699.8005,172.5586 699.8005,171.0898 Q699.8005,169.6172 700.4216,168.8398 Q701.0427,168.0625 702.2224,168.0625 Q702.5545,168.0625 702.8591,168.1328 Q703.1638,168.2031 703.4295,168.3438 L703.4295,169.625 Q703.1326,169.3516 702.8533,169.2246 Q702.574,169.0977 702.2771,169.0977 Q701.6443,169.0977 701.322,169.5996 Q700.9998,170.1016 700.9998,171.0898 Q700.9998,172.0742 701.322,172.5762 Q701.6443,173.0781 702.2771,173.0781 Q702.574,173.0781 702.8533,172.9512 Q703.1326,172.8242 703.4295,172.5508 Z " fill="#000000"/><text fill="#000000" font-family="Helvetica" font-size="16" font-weight="bold" lengthAdjust="spacing" textLength="142.2813" x="714.2068" y="175.3203">BouwsteenService</text><line style="stroke:#000000;stroke-width:2.0;" x1="495.24" x2="1057.9548" y1="184" y2="184"/><ellipse cx="504.24" cy="196" fill="#84BE84" rx="2" ry="2" style="stroke:#038048;stroke-width:1.0;"/><text fill="#000000" font-family="Helvetica" font-size="14" lengthAdjust="spacing" textLength="544.7148" x="508.24" y="198.7803">createBouwsteen(factory: BouwsteenFactory, details: Map&lt;String, Object&gt;): Bouwsteen</text><ellipse cx="504.24" cy="210" fill="#84BE84" rx="2" ry="2" style="stroke:#038048;stroke-width:1.0;"/><text fill="#000000" font-family="Helvetica" font-size="14" lengthAdjust="spacing" textLength="268.5156" x="508.24" y="212.7803">deleteBouwsteen(bouwsteenId: Long): void</text><ellipse cx="504.24" cy="224" fill="#84BE84" rx="2" ry="2" style="stroke:#038048;stroke-width:1.0;"/><text fill="#000000" font-family="Helvetica" font-size="14" lengthAdjust="spacing" textLength="389.9287" x="508.24" y="226.7803">getBouwsteenById(bouwsteenId: Long): Optional&lt;Bouwsteen&gt;</text></g><!--class BouwsteenRepository--><g id="elem_BouwsteenRepository"><rect codeLine="27" fill="#E0F9FF" height="76" id="BouwsteenRepository" rx="2.5" ry="2.5" style="stroke:#000000;stroke-width:2.0;" width="343.7705" x="806.71" y="309"/><ellipse cx="891.3882" cy="322" fill="#ADD1B2" rx="5" ry="5" style="stroke:#181818;stroke-width:1.0;"/><path d="M892.1109,324.832 Q891.8374,324.9727 891.5367,325.043 Q891.2359,325.1133 890.9038,325.1133 Q889.7242,325.1133 889.1031,324.3359 Q888.482,323.5586 888.482,322.0898 Q888.482,320.6172 889.1031,319.8398 Q889.7242,319.0625 890.9038,319.0625 Q891.2359,319.0625 891.5406,319.1328 Q891.8453,319.2031 892.1109,319.3438 L892.1109,320.625 Q891.814,320.3516 891.5347,320.2246 Q891.2554,320.0977 890.9585,320.0977 Q890.3257,320.0977 890.0035,320.5996 Q889.6812,321.1016 889.6812,322.0898 Q889.6812,323.0742 890.0035,323.5762 Q890.3257,324.0781 890.9585,324.0781 Q891.2554,324.0781 891.5347,323.9512 Q891.814,323.8242 892.1109,323.5508 Z " fill="#000000"/><text fill="#000000" font-family="Helvetica" font-size="16" font-weight="bold" lengthAdjust="spacing" textLength="168.9141" x="902.8882" y="326.3203">BouwsteenRepository</text><line style="stroke:#000000;stroke-width:2.0;" x1="807.71" x2="1149.4805" y1="335" y2="335"/><ellipse cx="816.71" cy="347" fill="#84BE84" rx="2" ry="2" style="stroke:#038048;stroke-width:1.0;"/><text fill="#000000" font-family="Helvetica" font-size="14" lengthAdjust="spacing" textLength="217.123" x="820.71" y="349.7803">save(bouwsteen: Bouwsteen): void</text><ellipse cx="816.71" cy="361" fill="#84BE84" rx="2" ry="2" style="stroke:#038048;stroke-width:1.0;"/><text fill="#000000" font-family="Helvetica" font-size="14" lengthAdjust="spacing" textLength="199.2471" x="820.71" y="363.7803">delete(bouwsteenId: Long): void</text><ellipse cx="816.71" cy="375" fill="#84BE84" rx="2" ry="2" style="stroke:#038048;stroke-width:1.0;"/><text fill="#000000" font-family="Helvetica" font-size="14" lengthAdjust="spacing" textLength="323.7705" x="820.71" y="377.7803">findById(bouwsteenId: Long): Optional&lt;Bouwsteen&gt;</text></g><!--class Bouwsteen--><g id="elem_Bouwsteen"><rect codeLine="33" fill="#E0F9FF" height="62" id="Bouwsteen" rx="2.5" ry="2.5" style="stroke:#000000;stroke-width:2.0;" width="135.9307" x="910.63" y="460"/><ellipse cx="933.3941" cy="473" fill="#B4A7E5" rx="5" ry="5" style="stroke:#181818;stroke-width:1.0;"/><path d="M931.566,471.1836 L931.566,470.168 L935.0386,470.168 L935.0386,471.1836 L933.8785,471.1836 L933.8785,474.9844 L935.0386,474.9844 L935.0386,476 L931.566,476 L931.566,474.9844 L932.7261,474.9844 L932.7261,471.1836 Z " fill="#000000"/><text fill="#000000" font-family="Helvetica" font-size="16" font-style="italic" font-weight="bold" lengthAdjust="spacing" textLength="85.3438" x="944.4528" y="477.3203">Bouwsteen</text><line style="stroke:#000000;stroke-width:2.0;" x1="911.63" x2="1045.5607" y1="486" y2="486"/><ellipse cx="920.63" cy="498" fill="#84BE84" rx="2" ry="2" style="stroke:#038048;stroke-width:1.0;"/><text fill="#000000" font-family="Helvetica" font-size="14" lengthAdjust="spacing" textLength="104.2617" x="924.63" y="500.7803">getType(): String</text><ellipse cx="920.63" cy="512" fill="#84BE84" rx="2" ry="2" style="stroke:#038048;stroke-width:1.0;"/><text fill="#000000" font-family="Helvetica" font-size="14" lengthAdjust="spacing" textLength="115.9307" x="924.63" y="514.7803">getDetails(): String</text></g><!--class Overnachting--><g id="elem_Overnachting"><rect codeLine="38" fill="#E0F9FF" height="84" id="Overnachting" rx="2.5" ry="2.5" style="stroke:#000000;stroke-width:2.0;" width="196.6475" x="764.28" y="597"/><ellipse cx="808.2873" cy="610" fill="#ADD1B2" rx="5" ry="5" style="stroke:#181818;stroke-width:1.0;"/><path d="M809.01,612.832 Q808.7365,612.9727 808.4358,613.043 Q808.135,613.1133 807.8029,613.1133 Q806.6233,613.1133 806.0022,612.3359 Q805.3811,611.5586 805.3811,610.0898 Q805.3811,608.6172 806.0022,607.8398 Q806.6233,607.0625 807.8029,607.0625 Q808.135,607.0625 808.4397,607.1328 Q808.7444,607.2031 809.01,607.3438 L809.01,608.625 Q808.7131,608.3516 808.4338,608.2246 Q808.1545,608.0977 807.8576,608.0977 Q807.2248,608.0977 806.9026,608.5996 Q806.5803,609.1016 806.5803,610.0898 Q806.5803,611.0742 806.9026,611.5762 Q807.2248,612.0781 807.8576,612.0781 Q808.1545,612.0781 808.4338,611.9512 Q808.7131,611.8242 809.01,611.5508 Z " fill="#000000"/><text fill="#000000" font-family="Helvetica" font-size="16" font-weight="bold" lengthAdjust="spacing" textLength="103.1328" x="819.7873" y="614.3203">Overnachting</text><line style="stroke:#000000;stroke-width:2.0;" x1="765.28" x2="959.9275" y1="623" y2="623"/><rect fill="none" height="4" style="stroke:#C82930;stroke-width:1.0;" width="4" x="772.28" y="633"/><text fill="#000000" font-family="Helvetica" font-size="14" lengthAdjust="spacing" textLength="176.6475" x="778.28" y="637.7803">details: Map&lt;String, Object&gt;</text><line style="stroke:#000000;stroke-width:2.0;" x1="765.28" x2="959.9275" y1="645" y2="645"/><ellipse cx="774.28" cy="657" fill="#84BE84" rx="2" ry="2" style="stroke:#038048;stroke-width:1.0;"/><text fill="#000000" font-family="Helvetica" font-size="14" lengthAdjust="spacing" textLength="104.2617" x="778.28" y="659.7803">getType(): String</text><ellipse cx="774.28" cy="671" fill="#84BE84" rx="2" ry="2" style="stroke:#038048;stroke-width:1.0;"/><text fill="#000000" font-family="Helvetica" font-size="14" lengthAdjust="spacing" textLength="115.9307" x="778.28" y="673.7803">getDetails(): String</text></g><!--class Vervoer--><g id="elem_Vervoer"><rect codeLine="44" fill="#E0F9FF" height="84" id="Vervoer" rx="2.5" ry="2.5" style="stroke:#000000;stroke-width:2.0;" width="196.6475" x="996.28" y="597"/><ellipse cx="1062.0569" cy="610" fill="#ADD1B2" rx="5" ry="5" style="stroke:#181818;stroke-width:1.0;"/><path d="M1062.7795,612.832 Q1062.5061,612.9727 1062.2053,613.043 Q1061.9045,613.1133 1061.5725,613.1133 Q1060.3928,613.1133 1059.7717,612.3359 Q1059.1506,611.5586 1059.1506,610.0898 Q1059.1506,608.6172 1059.7717,607.8398 Q1060.3928,607.0625 1061.5725,607.0625 Q1061.9045,607.0625 1062.2092,607.1328 Q1062.5139,607.2031 1062.7795,607.3438 L1062.7795,608.625 Q1062.4826,608.3516 1062.2033,608.2246 Q1061.924,608.0977 1061.6272,608.0977 Q1060.9944,608.0977 1060.6721,608.5996 Q1060.3498,609.1016 1060.3498,610.0898 Q1060.3498,611.0742 1060.6721,611.5762 Q1060.9944,612.0781 1061.6272,612.0781 Q1061.924,612.0781 1062.2033,611.9512 Q1062.4826,611.8242 1062.7795,611.5508 Z " fill="#000000"/><text fill="#000000" font-family="Helvetica" font-size="16" font-weight="bold" lengthAdjust="spacing" textLength="59.5938" x="1073.5569" y="614.3203">Vervoer</text><line style="stroke:#000000;stroke-width:2.0;" x1="997.28" x2="1191.9275" y1="623" y2="623"/><rect fill="none" height="4" style="stroke:#C82930;stroke-width:1.0;" width="4" x="1004.28" y="633"/><text fill="#000000" font-family="Helvetica" font-size="14" lengthAdjust="spacing" textLength="176.6475" x="1010.28" y="637.7803">details: Map&lt;String, Object&gt;</text><line style="stroke:#000000;stroke-width:2.0;" x1="997.28" x2="1191.9275" y1="645" y2="645"/><ellipse cx="1006.28" cy="657" fill="#84BE84" rx="2" ry="2" style="stroke:#038048;stroke-width:1.0;"/><text fill="#000000" font-family="Helvetica" font-size="14" lengthAdjust="spacing" textLength="104.2617" x="1010.28" y="659.7803">getType(): String</text><ellipse cx="1006.28" cy="671" fill="#84BE84" rx="2" ry="2" style="stroke:#038048;stroke-width:1.0;"/><text fill="#000000" font-family="Helvetica" font-size="14" lengthAdjust="spacing" textLength="115.9307" x="1010.28" y="673.7803">getDetails(): String</text></g><!--reverse link Bouwsteen to Overnachting--><g id="link_Bouwsteen_Overnachting"><path codeLine="50" d="M943.3634,536.3438 C926.2434,557.8938 914.22,573.02 895.4,596.71 " fill="none" id="Bouwsteen-backto-Overnachting" style="stroke:#000000;stroke-width:1.1;"/><polygon fill="none" points="954.56,522.25,938.6655,532.6116,948.0614,540.076,954.56,522.25" style="stroke:#000000;stroke-width:1.1;"/><text fill="#000000" font-family="Helvetica" font-size="13" lengthAdjust="spacing" textLength="66.4663" x="928.54" y="563.0103">implements</text></g><!--reverse link Bouwsteen to Vervoer--><g id="link_Bouwsteen_Vervoer"><path codeLine="51" d="M1013.8306,536.3407 C1030.9606,557.8907 1042.97,573.02 1061.8,596.71 " fill="none" id="Bouwsteen-backto-Vervoer" style="stroke:#000000;stroke-width:1.1;"/><polygon fill="none" points="1002.63,522.25,1009.1337,540.0742,1018.5275,532.6071,1002.63,522.25" style="stroke:#000000;stroke-width:1.1;"/><text fill="#000000" font-family="Helvetica" font-size="13" lengthAdjust="spacing" textLength="66.4663" x="1037.6" y="563.0103">implements</text></g><!--reverse link BouwsteenFactory to OvernachtingFactory--><g id="link_BouwsteenFactory_OvernachtingFactory"><path codeLine="52" d="M498.012,377.8388 C428.712,404.1488 333.78,440.19 264.45,466.52 " fill="none" id="BouwsteenFactory-backto-OvernachtingFactory" style="stroke:#000000;stroke-width:1.1;"/><polygon fill="none" points="514.84,371.45,495.8824,372.2295,500.1416,383.4482,514.84,371.45" style="stroke:#000000;stroke-width:1.1;"/></g><!--reverse link BouwsteenFactory to VervoerFactory--><g id="link_BouwsteenFactory_VervoerFactory"><path codeLine="53" d="M591.377,388.3533 C601.007,414.6633 610.36,440.19 620,466.52 " fill="none" id="BouwsteenFactory-backto-VervoerFactory" style="stroke:#000000;stroke-width:1.1;"/><polygon fill="none" points="585.19,371.45,585.7425,390.4156,597.0114,386.291,585.19,371.45" style="stroke:#000000;stroke-width:1.1;"/></g><!--link BouwsteenService to BouwsteenFactory--><g id="link_BouwsteenService_BouwsteenFactory"><path codeLine="55" d="M726.39,234.41 C689.25,262.08 644.6116,295.3356 612.8916,318.9656 " fill="none" id="BouwsteenService-to-BouwsteenFactory" style="stroke:#000000;stroke-width:1.1;stroke-dasharray:7.0,7.0;"/><polygon fill="#000000" points="608.08,322.55,617.6871,320.3811,612.0897,319.563,612.9078,313.9656,608.08,322.55" style="stroke:#000000;stroke-width:1.1;"/><text fill="#000000" font-family="Helvetica" font-size="13" lengthAdjust="spacing" textLength="27.46" x="683.6" y="275.0103">uses</text></g><!--link BouwsteenController to BouwsteenService--><g id="link_BouwsteenController_BouwsteenService"><path codeLine="56" d="M776.6,83.21 C776.6,105.97 776.6,128.98 776.6,151.74 " fill="none" id="BouwsteenController-to-BouwsteenService" style="stroke:#000000;stroke-width:1.1;stroke-dasharray:7.0,7.0;"/><polygon fill="#000000" points="776.6,157.74,780.6,148.74,776.6,152.74,772.6,148.74,776.6,157.74" style="stroke:#000000;stroke-width:1.1;"/><text fill="#000000" font-family="Helvetica" font-size="13" lengthAdjust="spacing" textLength="56.3799" x="777.6" y="124.0103">delegates</text></g><!--link BouwsteenService to BouwsteenRepository--><g id="link_BouwsteenService_BouwsteenRepository"><path codeLine="58" d="M827.31,234.41 C858.05,257.08 892.3019,282.3378 923.0419,305.0178 " fill="none" id="BouwsteenService-to-BouwsteenRepository" style="stroke:#000000;stroke-width:1.1;stroke-dasharray:7.0,7.0;"/><polygon fill="#000000" points="927.87,308.58,923.0026,300.018,923.8466,305.6115,918.253,306.4555,927.87,308.58" style="stroke:#000000;stroke-width:1.1;"/><text fill="#000000" font-family="Helvetica" font-size="13" lengthAdjust="spacing" textLength="27.46" x="884.66" y="275.0103">uses</text></g><!--link BouwsteenRepository to Bouwsteen--><g id="link_BouwsteenRepository_Bouwsteen"><path codeLine="59" d="M978.6,385.31 C978.6,408.48 978.6,431.89 978.6,453.63 " fill="none" id="BouwsteenRepository-to-Bouwsteen" style="stroke:#000000;stroke-width:1.1;stroke-dasharray:7.0,7.0;"/><polygon fill="#000000" points="978.6,459.63,982.6,450.63,978.6,454.63,974.6,450.63,978.6,459.63" style="stroke:#000000;stroke-width:1.1;"/><text fill="#000000" font-family="Helvetica" font-size="13" lengthAdjust="spacing" textLength="45.5381" x="979.6" y="426.0103">handles</text></g><!--SRC=[jLLDJ-Cm4BtdLtXlHKkIUrJrm2v8IA1A1N5txMbYvDZ6dhIAsFtlQqYSEgGKLfISBC_pcpUV-I4Kamq7KY4QL-IvfRki55WrwyQ1PLeXACoOhdDcwGPJfZdOt4YgiAbbwh2LuFAQ2fM7ymj2TPOi09D4U2QxeGp8XMvs3W7K5MMeRKkU4-A_dym2HHYiCmv8XNG5kQLcVeTMgFASBDUFm71nLknfahz9mYHrZYottZDb5NheoSaVm6urs9Fp3bU_VBAjbX9i8FV-oi5yhs5cuQa1Xn7Fghlnr2jmHYi7bme5jlC1iUYvmEx4eo_DNkiwdAvvGJgjKvu7BNXFKL4gXzTByxdtaOvfo7S-fyAtn3l9t7IvBYOjSqu-dUTNOWuIOkAHyXlzgdlh0-tG9U00lMYl-K7uqg3GYihZ0Qx0Q2VYXd5q2tl2IEb8GYVu0vqReVZ_wZimXa6P3_k-DJ0x2yKShdztoOui1qUk9qgFrUOBhle1_3Ol-uJC_wJfEBA2YDf8gFqoT6-1GTTXJDWN4yxUy0vol6qYSM5aicmntQG5yLixSXwjb14-a1JafT5AFtJk8nTH9x_r4fb6JpomeehxdqBo3m00]--></g></svg>