<svg xmlns="http://www.w3.org/2000/svg" xmlns:xlink="http://www.w3.org/1999/xlink" contentStyleType="text/css" height="680px" preserveAspectRatio="none" style="width:1155px;height:680px;background:#FFFFFF;" version="1.1" viewBox="0 0 1155 680" width="1155px" zoomAndPan="magnify"><defs/><g><!--class BouwsteenFactory--><g id="elem_BouwsteenFactory"><rect codeLine="3" fill="#E0F9FF" height="48" id="BouwsteenFactory" rx="2.5" ry="2.5" style="stroke:#000000;stroke-width:2.0;" width="391.1982" x="379" y="337"/><ellipse cx="500.2788" cy="350" fill="#B4A7E5" rx="5" ry="5" style="stroke:#181818;stroke-width:1.0;"/><path d="M498.4507,348.1836 L498.4507,347.168 L501.9233,347.168 L501.9233,348.1836 L500.7632,348.1836 L500.7632,351.9844 L501.9233,351.9844 L501.9233,353 L498.4507,353 L498.4507,351.9844 L499.6108,351.9844 L499.6108,348.1836 Z " fill="#000000"/><text fill="#000000" font-family="Helvetica" font-size="16" font-style="italic" font-weight="bold" lengthAdjust="spacing" textLength="143.1406" x="511.7788" y="354.3203">BouwsteenFactory</text><line style="stroke:#000000;stroke-width:2.0;" x1="380" x2="769.1982" y1="363" y2="363"/><ellipse cx="389" cy="375" fill="#84BE84" rx="2" ry="2" style="stroke:#038048;stroke-width:1.0;"/><text fill="#000000" font-family="Helvetica" font-size="14" lengthAdjust="spacing" textLength="371.1982" x="393" y="377.7803">createBouwsteen(details: Map&lt;String, Object&gt;): Bouwsteen</text></g><!--class OvernachtingFactory--><g id="elem_OvernachtingFactory"><rect codeLine="7" fill="#E0F9FF" height="48" id="OvernachtingFactory" rx="2.5" ry="2.5" style="stroke:#000000;stroke-width:2.0;" width="405.1982" x="7" y="481"/><ellipse cx="126.3843" cy="494" fill="#ADD1B2" rx="5" ry="5" style="stroke:#181818;stroke-width:1.0;"/><path d="M127.1069,496.832 Q126.8335,496.9727 126.5327,497.043 Q126.2319,497.1133 125.8999,497.1133 Q124.7202,497.1133 124.0991,496.3359 Q123.478,495.5586 123.478,494.0898 Q123.478,492.6172 124.0991,491.8398 Q124.7202,491.0625 125.8999,491.0625 Q126.2319,491.0625 126.5366,491.1328 Q126.8413,491.2031 127.1069,491.3438 L127.1069,492.625 Q126.8101,492.3516 126.5308,492.2246 Q126.2515,492.0977 125.9546,492.0977 Q125.3218,492.0977 124.9995,492.5996 Q124.6772,493.1016 124.6772,494.0898 Q124.6772,495.0742 124.9995,495.5762 Q125.3218,496.0781 125.9546,496.0781 Q126.2515,496.0781 126.5308,495.9512 Q126.8101,495.8242 127.1069,495.5508 Z " fill="#000000"/><text fill="#000000" font-family="Helvetica" font-size="16" font-weight="bold" lengthAdjust="spacing" textLength="160.9297" x="137.8843" y="498.3203">OvernachtingFactory</text><line style="stroke:#000000;stroke-width:2.0;" x1="8" x2="411.1982" y1="507" y2="507"/><ellipse cx="17" cy="519" fill="#84BE84" rx="2" ry="2" style="stroke:#038048;stroke-width:1.0;"/><text fill="#000000" font-family="Helvetica" font-size="14" lengthAdjust="spacing" textLength="385.1982" x="21" y="521.7803">createBouwsteen(details: Map&lt;String, Object&gt;): Overnachting</text></g><!--class VervoerFactory--><g id="elem_VervoerFactory"><rect codeLine="11" fill="#E0F9FF" height="48" id="VervoerFactory" rx="2.5" ry="2.5" style="stroke:#000000;stroke-width:2.0;" width="370.9502" x="447.12" y="481"/><ellipse cx="571.1498" cy="494" fill="#ADD1B2" rx="5" ry="5" style="stroke:#181818;stroke-width:1.0;"/><path d="M571.8724,496.832 Q571.599,496.9727 571.2982,497.043 Q570.9974,497.1133 570.6654,497.1133 Q569.4857,497.1133 568.8646,496.3359 Q568.2435,495.5586 568.2435,494.0898 Q568.2435,492.6172 568.8646,491.8398 Q569.4857,491.0625 570.6654,491.0625 Q570.9974,491.0625 571.3021,491.1328 Q571.6068,491.2031 571.8724,491.3438 L571.8724,492.625 Q571.5756,492.3516 571.2963,492.2246 Q571.017,492.0977 570.7201,492.0977 Q570.0873,492.0977 569.765,492.5996 Q569.4428,493.1016 569.4428,494.0898 Q569.4428,495.0742 569.765,495.5762 Q570.0873,496.0781 570.7201,496.0781 Q571.017,496.0781 571.2963,495.9512 Q571.5756,495.8242 571.8724,495.5508 Z " fill="#000000"/><text fill="#000000" font-family="Helvetica" font-size="16" font-weight="bold" lengthAdjust="spacing" textLength="117.3906" x="582.6498" y="498.3203">VervoerFactory</text><line style="stroke:#000000;stroke-width:2.0;" x1="448.12" x2="817.0702" y1="507" y2="507"/><ellipse cx="457.12" cy="519" fill="#84BE84" rx="2" ry="2" style="stroke:#038048;stroke-width:1.0;"/><text fill="#000000" font-family="Helvetica" font-size="14" lengthAdjust="spacing" textLength="350.9502" x="461.12" y="521.7803">createBouwsteen(details: Map&lt;String, Object&gt;): Vervoer</text></g><!--class BouwsteenController--><g id="elem_BouwsteenController"><rect codeLine="15" fill="#E0F9FF" height="90" id="BouwsteenController" rx="2.5" ry="2.5" style="stroke:#000000;stroke-width:2.0;" width="533.6182" x="507.79" y="7"/><ellipse cx="690.9546" cy="20" fill="#ADD1B2" rx="5" ry="5" style="stroke:#181818;stroke-width:1.0;"/><path d="M691.6772,22.832 Q691.4038,22.9727 691.103,23.043 Q690.8022,23.1133 690.4702,23.1133 Q689.2905,23.1133 688.6694,22.3359 Q688.0483,21.5586 688.0483,20.0898 Q688.0483,18.6172 688.6694,17.8398 Q689.2905,17.0625 690.4702,17.0625 Q690.8022,17.0625 691.1069,17.1328 Q691.4116,17.2031 691.6772,17.3438 L691.6772,18.625 Q691.3803,18.3516 691.101,18.2246 Q690.8217,18.0977 690.5249,18.0977 Q689.8921,18.0977 689.5698,18.5996 Q689.2475,19.1016 689.2475,20.0898 Q689.2475,21.0742 689.5698,21.5762 Q689.8921,22.0781 690.5249,22.0781 Q690.8217,22.0781 691.101,21.9512 Q691.3803,21.8242 691.6772,21.5508 Z " fill="#000000"/><text fill="#000000" font-family="Helvetica" font-size="16" font-weight="bold" lengthAdjust="spacing" textLength="161.7891" x="702.4546" y="24.3203">BouwsteenController</text><line style="stroke:#000000;stroke-width:2.0;" x1="508.79" x2="1040.4082" y1="33" y2="33"/><ellipse cx="517.79" cy="45" fill="#84BE84" rx="2" ry="2" style="stroke:#038048;stroke-width:1.0;"/><text fill="#000000" font-family="Helvetica" font-size="14" lengthAdjust="spacing" textLength="500.418" x="521.79" y="47.7803">voegBouwsteenToe(request: BouwsteenRequest): ResponseEntity&lt;Bouwsteen&gt;</text><ellipse cx="517.79" cy="59" fill="#84BE84" rx="2" ry="2" style="stroke:#038048;stroke-width:1.0;"/><text fill="#000000" font-family="Helvetica" font-size="14" lengthAdjust="spacing" textLength="408.5566" x="521.79" y="61.7803">verwijderBouwsteen(bouwsteenId: String): ResponseEntity&lt;Void&gt;</text><ellipse cx="517.79" cy="73" fill="#84BE84" rx="2" ry="2" style="stroke:#038048;stroke-width:1.0;"/><text fill="#000000" font-family="Helvetica" font-size="14" lengthAdjust="spacing" textLength="438.9355" x="521.79" y="75.7803">haalBouwsteenOp(bouwsteenId: String): ResponseEntity&lt;Bouwsteen&gt;</text><ellipse cx="517.79" cy="87" fill="#84BE84" rx="2" ry="2" style="stroke:#038048;stroke-width:1.0;"/><text fill="#000000" font-family="Helvetica" font-size="14" lengthAdjust="spacing" textLength="513.6182" x="521.79" y="89.7803">haalAlleBouwstenenOpVoorTrip(tripId: String): ResponseEntity&lt;List&lt;Bouwsteen&gt;&gt;</text></g><!--class BouwsteenService--><g id="elem_BouwsteenService"><rect codeLine="22" fill="#E0F9FF" height="76" id="BouwsteenService" rx="2.5" ry="2.5" style="stroke:#000000;stroke-width:2.0;" width="564.7148" x="492.24" y="172"/><ellipse cx="700.7068" cy="185" fill="#ADD1B2" rx="5" ry="5" style="stroke:#181818;stroke-width:1.0;"/><path d="M701.4295,187.832 Q701.156,187.9727 700.8552,188.043 Q700.5545,188.1133 700.2224,188.1133 Q699.0427,188.1133 698.4216,187.3359 Q697.8005,186.5586 697.8005,185.0898 Q697.8005,183.6172 698.4216,182.8398 Q699.0427,182.0625 700.2224,182.0625 Q700.5545,182.0625 700.8591,182.1328 Q701.1638,182.2031 701.4295,182.3438 L701.4295,183.625 Q701.1326,183.3516 700.8533,183.2246 Q700.574,183.0977 700.2771,183.0977 Q699.6443,183.0977 699.322,183.5996 Q698.9998,184.1016 698.9998,185.0898 Q698.9998,186.0742 699.322,186.5762 Q699.6443,187.0781 700.2771,187.0781 Q700.574,187.0781 700.8533,186.9512 Q701.1326,186.8242 701.4295,186.5508 Z " fill="#000000"/><text fill="#000000" font-family="Helvetica" font-size="16" font-weight="bold" lengthAdjust="spacing" textLength="142.2813" x="712.2068" y="189.3203">BouwsteenService</text><line style="stroke:#000000;stroke-width:2.0;" x1="493.24" x2="1055.9548" y1="198" y2="198"/><ellipse cx="502.24" cy="210" fill="#84BE84" rx="2" ry="2" style="stroke:#038048;stroke-width:1.0;"/><text fill="#000000" font-family="Helvetica" font-size="14" lengthAdjust="spacing" textLength="544.7148" x="506.24" y="212.7803">createBouwsteen(factory: BouwsteenFactory, details: Map&lt;String, Object&gt;): Bouwsteen</text><ellipse cx="502.24" cy="224" fill="#84BE84" rx="2" ry="2" style="stroke:#038048;stroke-width:1.0;"/><text fill="#000000" font-family="Helvetica" font-size="14" lengthAdjust="spacing" textLength="268.5156" x="506.24" y="226.7803">deleteBouwsteen(bouwsteenId: Long): void</text><ellipse cx="502.24" cy="238" fill="#84BE84" rx="2" ry="2" style="stroke:#038048;stroke-width:1.0;"/><text fill="#000000" font-family="Helvetica" font-size="14" lengthAdjust="spacing" textLength="389.9287" x="506.24" y="240.7803">getBouwsteenById(bouwsteenId: Long): Optional&lt;Bouwsteen&gt;</text></g><!--class BouwsteenRepository--><g id="elem_BouwsteenRepository"><rect codeLine="28" fill="#E0F9FF" height="76" id="BouwsteenRepository" rx="2.5" ry="2.5" style="stroke:#000000;stroke-width:2.0;" width="343.7705" x="804.71" y="323"/><ellipse cx="889.3882" cy="336" fill="#ADD1B2" rx="5" ry="5" style="stroke:#181818;stroke-width:1.0;"/><path d="M890.1109,338.832 Q889.8374,338.9727 889.5367,339.043 Q889.2359,339.1133 888.9038,339.1133 Q887.7242,339.1133 887.1031,338.3359 Q886.482,337.5586 886.482,336.0898 Q886.482,334.6172 887.1031,333.8398 Q887.7242,333.0625 888.9038,333.0625 Q889.2359,333.0625 889.5406,333.1328 Q889.8453,333.2031 890.1109,333.3438 L890.1109,334.625 Q889.814,334.3516 889.5347,334.2246 Q889.2554,334.0977 888.9585,334.0977 Q888.3257,334.0977 888.0035,334.5996 Q887.6812,335.1016 887.6812,336.0898 Q887.6812,337.0742 888.0035,337.5762 Q888.3257,338.0781 888.9585,338.0781 Q889.2554,338.0781 889.5347,337.9512 Q889.814,337.8242 890.1109,337.5508 Z " fill="#000000"/><text fill="#000000" font-family="Helvetica" font-size="16" font-weight="bold" lengthAdjust="spacing" textLength="168.9141" x="900.8882" y="340.3203">BouwsteenRepository</text><line style="stroke:#000000;stroke-width:2.0;" x1="805.71" x2="1147.4805" y1="349" y2="349"/><ellipse cx="814.71" cy="361" fill="#84BE84" rx="2" ry="2" style="stroke:#038048;stroke-width:1.0;"/><text fill="#000000" font-family="Helvetica" font-size="14" lengthAdjust="spacing" textLength="217.123" x="818.71" y="363.7803">save(bouwsteen: Bouwsteen): void</text><ellipse cx="814.71" cy="375" fill="#84BE84" rx="2" ry="2" style="stroke:#038048;stroke-width:1.0;"/><text fill="#000000" font-family="Helvetica" font-size="14" lengthAdjust="spacing" textLength="199.2471" x="818.71" y="377.7803">delete(bouwsteenId: Long): void</text><ellipse cx="814.71" cy="389" fill="#84BE84" rx="2" ry="2" style="stroke:#038048;stroke-width:1.0;"/><text fill="#000000" font-family="Helvetica" font-size="14" lengthAdjust="spacing" textLength="323.7705" x="818.71" y="391.7803">findById(bouwsteenId: Long): Optional&lt;Bouwsteen&gt;</text></g><!--class Bouwsteen--><g id="elem_Bouwsteen"><rect codeLine="34" fill="#E0F9FF" height="62" id="Bouwsteen" rx="2.5" ry="2.5" style="stroke:#000000;stroke-width:2.0;" width="132.8271" x="910.19" y="474"/><ellipse cx="931.5575" cy="487" fill="#B4A7E5" rx="5" ry="5" style="stroke:#181818;stroke-width:1.0;"/><path d="M929.7294,485.1836 L929.7294,484.168 L933.2021,484.168 L933.2021,485.1836 L932.0419,485.1836 L932.0419,488.9844 L933.2021,488.9844 L933.2021,490 L929.7294,490 L929.7294,488.9844 L930.8896,488.9844 L930.8896,485.1836 Z " fill="#000000"/><text fill="#000000" font-family="Helvetica" font-size="16" font-style="italic" font-weight="bold" lengthAdjust="spacing" textLength="85.3438" x="942.3059" y="491.3203">Bouwsteen</text><line style="stroke:#000000;stroke-width:2.0;" x1="911.19" x2="1042.0171" y1="500" y2="500"/><ellipse cx="920.19" cy="512" fill="#84BE84" rx="2" ry="2" style="stroke:#038048;stroke-width:1.0;"/><text fill="#000000" font-family="Helvetica" font-size="14" lengthAdjust="spacing" textLength="104.2617" x="924.19" y="514.7803">getType(): String</text><ellipse cx="920.19" cy="526" fill="#84BE84" rx="2" ry="2" style="stroke:#038048;stroke-width:1.0;"/><text fill="#000000" font-family="Helvetica" font-size="14" lengthAdjust="spacing" textLength="112.8271" x="924.19" y="528.7803">toonDetails(): void</text></g><!--class Overnachting--><g id="elem_Overnachting"><rect codeLine="39" fill="#E0F9FF" height="62" id="Overnachting" rx="2.5" ry="2.5" style="stroke:#000000;stroke-width:2.0;" width="132.8271" x="826.19" y="611"/><ellipse cx="839.5525" cy="624" fill="#ADD1B2" rx="5" ry="5" style="stroke:#181818;stroke-width:1.0;"/><path d="M840.2751,626.832 Q840.0017,626.9727 839.7009,627.043 Q839.4001,627.1133 839.0681,627.1133 Q837.8884,627.1133 837.2673,626.3359 Q836.6462,625.5586 836.6462,624.0898 Q836.6462,622.6172 837.2673,621.8398 Q837.8884,621.0625 839.0681,621.0625 Q839.4001,621.0625 839.7048,621.1328 Q840.0095,621.2031 840.2751,621.3438 L840.2751,622.625 Q839.9782,622.3516 839.6989,622.2246 Q839.4196,622.0977 839.1228,622.0977 Q838.49,622.0977 838.1677,622.5996 Q837.8454,623.1016 837.8454,624.0898 Q837.8454,625.0742 838.1677,625.5762 Q838.49,626.0781 839.1228,626.0781 Q839.4196,626.0781 839.6989,625.9512 Q839.9782,625.8242 840.2751,625.5508 Z " fill="#000000"/><text fill="#000000" font-family="Helvetica" font-size="16" font-weight="bold" lengthAdjust="spacing" textLength="103.1328" x="848.5219" y="628.3203">Overnachting</text><line style="stroke:#000000;stroke-width:2.0;" x1="827.19" x2="958.0171" y1="637" y2="637"/><ellipse cx="836.19" cy="649" fill="#84BE84" rx="2" ry="2" style="stroke:#038048;stroke-width:1.0;"/><text fill="#000000" font-family="Helvetica" font-size="14" lengthAdjust="spacing" textLength="104.2617" x="840.19" y="651.7803">getType(): String</text><ellipse cx="836.19" cy="663" fill="#84BE84" rx="2" ry="2" style="stroke:#038048;stroke-width:1.0;"/><text fill="#000000" font-family="Helvetica" font-size="14" lengthAdjust="spacing" textLength="112.8271" x="840.19" y="665.7803">toonDetails(): void</text></g><!--class Vervoer--><g id="elem_Vervoer"><rect codeLine="44" fill="#E0F9FF" height="62" id="Vervoer" rx="2.5" ry="2.5" style="stroke:#000000;stroke-width:2.0;" width="132.8271" x="994.19" y="611"/><ellipse cx="1028.0567" cy="624" fill="#ADD1B2" rx="5" ry="5" style="stroke:#181818;stroke-width:1.0;"/><path d="M1028.7794,626.832 Q1028.5059,626.9727 1028.2051,627.043 Q1027.9044,627.1133 1027.5723,627.1133 Q1026.3926,627.1133 1025.7715,626.3359 Q1025.1504,625.5586 1025.1504,624.0898 Q1025.1504,622.6172 1025.7715,621.8398 Q1026.3926,621.0625 1027.5723,621.0625 Q1027.9044,621.0625 1028.209,621.1328 Q1028.5137,621.2031 1028.7794,621.3438 L1028.7794,622.625 Q1028.4825,622.3516 1028.2032,622.2246 Q1027.9239,622.0977 1027.627,622.0977 Q1026.9942,622.0977 1026.6719,622.5996 Q1026.3497,623.1016 1026.3497,624.0898 Q1026.3497,625.0742 1026.6719,625.5762 Q1026.9942,626.0781 1027.627,626.0781 Q1027.9239,626.0781 1028.2032,625.9512 Q1028.4825,625.8242 1028.7794,625.5508 Z " fill="#000000"/><text fill="#000000" font-family="Helvetica" font-size="16" font-weight="bold" lengthAdjust="spacing" textLength="59.5938" x="1039.5567" y="628.3203">Vervoer</text><line style="stroke:#000000;stroke-width:2.0;" x1="995.19" x2="1126.0171" y1="637" y2="637"/><ellipse cx="1004.19" cy="649" fill="#84BE84" rx="2" ry="2" style="stroke:#038048;stroke-width:1.0;"/><text fill="#000000" font-family="Helvetica" font-size="14" lengthAdjust="spacing" textLength="104.2617" x="1008.19" y="651.7803">getType(): String</text><ellipse cx="1004.19" cy="663" fill="#84BE84" rx="2" ry="2" style="stroke:#038048;stroke-width:1.0;"/><text fill="#000000" font-family="Helvetica" font-size="14" lengthAdjust="spacing" textLength="112.8271" x="1008.19" y="665.7803">toonDetails(): void</text></g><!--reverse link Bouwsteen to Overnachting--><g id="link_Bouwsteen_Overnachting"><path codeLine="49" d="M948.2366,551.5806 C934.3966,573.8106 925.21,588.59 911.39,610.8 " fill="none" id="Bouwsteen-backto-Overnachting" style="stroke:#000000;stroke-width:1.1;"/><polygon fill="none" points="957.75,536.3,943.1431,548.4094,953.3301,554.7517,957.75,536.3" style="stroke:#000000;stroke-width:1.1;"/><text fill="#000000" font-family="Helvetica" font-size="13" lengthAdjust="spacing" textLength="66.4663" x="938.12" y="577.0103">implements</text></g><!--reverse link Bouwsteen to Vervoer--><g id="link_Bouwsteen_Vervoer"><path codeLine="50" d="M1004.9584,551.5836 C1018.7884,573.8136 1027.99,588.59 1041.81,610.8 " fill="none" id="Bouwsteen-backto-Vervoer" style="stroke:#000000;stroke-width:1.1;"/><polygon fill="none" points="995.45,536.3,999.8639,554.7531,1010.053,548.4142,995.45,536.3" style="stroke:#000000;stroke-width:1.1;"/><text fill="#000000" font-family="Helvetica" font-size="13" lengthAdjust="spacing" textLength="66.4663" x="1022.12" y="577.0103">implements</text></g><!--reverse link BouwsteenFactory to OvernachtingFactory--><g id="link_BouwsteenFactory_OvernachtingFactory"><path codeLine="51" d="M497.5547,391.9761 C429.9247,418.2861 337.63,454.19 269.96,480.52 " fill="none" id="BouwsteenFactory-backto-OvernachtingFactory" style="stroke:#000000;stroke-width:1.1;"/><polygon fill="none" points="514.33,385.45,495.3794,386.3843,499.7301,397.5678,514.33,385.45" style="stroke:#000000;stroke-width:1.1;"/></g><!--reverse link BouwsteenFactory to VervoerFactory--><g id="link_BouwsteenFactory_VervoerFactory"><path codeLine="52" d="M590.9828,402.115 C601.7228,428.425 612.26,454.19 623.01,480.52 " fill="none" id="BouwsteenFactory-backto-VervoerFactory" style="stroke:#000000;stroke-width:1.1;"/><polygon fill="none" points="584.18,385.45,585.4278,404.3826,596.5378,399.8474,584.18,385.45" style="stroke:#000000;stroke-width:1.1;"/></g><!--link BouwsteenService to BouwsteenFactory--><g id="link_BouwsteenService_BouwsteenFactory"><path codeLine="54" d="M724.39,248.41 C687.25,276.08 642.6116,309.3356 610.8916,332.9656 " fill="none" id="BouwsteenService-to-BouwsteenFactory" style="stroke:#000000;stroke-width:1.1;stroke-dasharray:7.0,7.0;"/><polygon fill="#000000" points="606.08,336.55,615.6871,334.3811,610.0897,333.563,610.9078,327.9656,606.08,336.55" style="stroke:#000000;stroke-width:1.1;"/><text fill="#000000" font-family="Helvetica" font-size="13" lengthAdjust="spacing" textLength="27.46" x="681.6" y="289.0103">uses</text></g><!--link BouwsteenController to BouwsteenService--><g id="link_BouwsteenController_BouwsteenService"><path codeLine="55" d="M774.6,97.29 C774.6,120.8 774.6,143.37 774.6,165.73 " fill="none" id="BouwsteenController-to-BouwsteenService" style="stroke:#000000;stroke-width:1.1;stroke-dasharray:7.0,7.0;"/><polygon fill="#000000" points="774.6,171.73,778.6,162.73,774.6,166.73,770.6,162.73,774.6,171.73" style="stroke:#000000;stroke-width:1.1;"/><text fill="#000000" font-family="Helvetica" font-size="13" lengthAdjust="spacing" textLength="56.3799" x="775.6" y="138.0103">delegates</text></g><!--link BouwsteenService to BouwsteenRepository--><g id="link_BouwsteenService_BouwsteenRepository"><path codeLine="57" d="M825.31,248.41 C856.05,271.08 890.3019,296.3378 921.0419,319.0178 " fill="none" id="BouwsteenService-to-BouwsteenRepository" style="stroke:#000000;stroke-width:1.1;stroke-dasharray:7.0,7.0;"/><polygon fill="#000000" points="925.87,322.58,921.0026,314.018,921.8466,319.6115,916.253,320.4555,925.87,322.58" style="stroke:#000000;stroke-width:1.1;"/><text fill="#000000" font-family="Helvetica" font-size="13" lengthAdjust="spacing" textLength="27.46" x="882.66" y="289.0103">uses</text></g><!--link BouwsteenRepository to Bouwsteen--><g id="link_BouwsteenRepository_Bouwsteen"><path codeLine="58" d="M976.6,399.31 C976.6,422.48 976.6,445.89 976.6,467.63 " fill="none" id="BouwsteenRepository-to-Bouwsteen" style="stroke:#000000;stroke-width:1.1;stroke-dasharray:7.0,7.0;"/><polygon fill="#000000" points="976.6,473.63,980.6,464.63,976.6,468.63,972.6,464.63,976.6,473.63" style="stroke:#000000;stroke-width:1.1;"/><text fill="#000000" font-family="Helvetica" font-size="13" lengthAdjust="spacing" textLength="45.5381" x="977.6" y="440.0103">handles</text></g><!--SRC=[fPLHRvim4CVV-HJU6zKQU4THf7Nhf4gT8gLHtXrp0LV6zkmZ4ThstUSK32RGjMloX7n__-xly_doYKicwXn8YQXjbgQ6dfA2OrdlQmk6AOaWCM6gIfcX1rmmbOD9jQ0IwqeiB3O2R5fHBbF_VLR8Df9uOHHnHp87oe3SgVfa4K1-fmoLQSYlYBZVPsQ08lJHE0UaNDYC_A1w-OI6o-AMhFVFm71ramsOw4yKCK6j9UkZoqnPYKvw7Jma3VmTcAC2SnswWmpKVkTNLssZX03ZqKvOzE6jWjZ0pnei1gVVj2iEl06hbRHmBv5Zi-mLguu5viIVtTqCJlV-wo7FIEjqojafddU8abBHxrxhz-s_z766V767xDRbcRHJocmDrx5Zw7_17hd5WBYQgUAJgoztRVRAxHpQoyicRNXBtjrmB-0S18JWKJ4UrOlxewjTgou0U-bTyv3FojSQkP9KX3MR7d03MbaUTg2bHnY0WTEHXTRm6puFNER_ws_cQNjdxjZRHaDyuw-qNKQbvBUssh5FF_kAh-5q3-rZYE4aoz-BnTXJHdYb1LHkCjfBeKywh_6JOyBi0gyentCdCETxFKbMqx6Q4JV2W-J1U1dfFIGZvmuft6knRwK8Ml0oIn0QRN72aihS_KD4Vm40]--></g></svg>